<mxfile host="drawio-plugin" modified="2022-03-03T09:32:22.531Z" agent="5.0 (Macintosh; Intel Mac OS X 11_5_2) AppleWebKit/537.36 (KHTML, like Gecko) Chrome/89.0.4389.114 Safari/537.36" version="14.7.4" etag="gvqEcXrf0pPN69VD-3rR" type="embed"><diagram id="E9xdZ84Cc-7xd8yKUC8r" name="Page-1"><mxGraphModel dx="1245" dy="744" grid="1" gridSize="10" guides="1" tooltips="1" connect="1" arrows="1" fold="1" page="1" pageScale="1" pageWidth="850" pageHeight="1100" math="0" shadow="0"><root><mxCell id="0"/><mxCell id="1" parent="0"/><mxCell id="6" style="edgeStyle=orthogonalEdgeStyle;rounded=0;orthogonalLoop=1;jettySize=auto;html=1;entryX=0.5;entryY=0;entryDx=0;entryDy=0;" edge="1" parent="1" source="3" target="4"><mxGeometry relative="1" as="geometry"><Array as="points"><mxPoint x="188" y="90"/><mxPoint x="611" y="90"/></Array></mxGeometry></mxCell><mxCell id="3" value="" style="shape=image;verticalLabelPosition=bottom;labelBackgroundColor=#ffffff;verticalAlign=top;aspect=fixed;imageAspect=0;image=data:image/png,iVBORw0KGgoAAAANSUhEUgAABAAAAAJ3CAMAAAA9NNPyAAAAz1BMVEUiIiIm2f0m2Pz///8AAAAiAAAm3f8iJCX+/v4iJygiKSwhICAm2/8l2PshAAAuLi4hKy4m3/8mJiYpKSkk1PUkz+4jwt8jyeczMzMgHRv7+/shDAEiu9cis84hGBQgeovu7u4fb38l2vwghJcfZXPi4uIgRk8gW2cgUVuHh4f19fUhrcYgPUMgjaIhEwsYGBgglKohpr/V1dWmpqYgm7JNTU0hoLggNDjKysoMDAyYmJjBwcGtra18fHx2dna1tbVkZGRBQUFaWlq7u7tubm5lS9xfAABgW0lEQVR42uzBgQAAAACAoP2pF6kCAAAAAAAAAAAAAAAAAAAAAAAAAAAAAAAAAAAAAAAAAAAAAAAAAAAAAAAAAAAAAAAAAAAAAAAAAAAAAGD2znY3cR0Iw4mlsWVjW46UD6GQIJIoIIWgICG4/zs7MXv2dM/mi5bQZZV5frQqaov58Y5nxuM3CLJgWAu3X5y/B8a5EMJY2u/8b1o6grwLXPxQzzpN0/XKYe3P5t3VxLhdo3OCX4jX9pO897oR5K2wak+hRevUHI/HmxPrFgBYC8HfMwpY8bP7kk/HQ7Hb5nVd59tdUQq78PW7xy4EeRe4WQHo235bX5MwjCxhGCbXJi8OQgPEjnm3HZUJ48Sg47LIL0kYBb7KMkpplik/iDaXfO9oGwMcBEEmpMQBVvs6CQPpefQX2p/8IKyaXXlq1cTfZ0vlQqxAp4ftdRP51K5ZSvcnUtL2pSA8724ahHAQBBlGMNCHZuNLj0qXEKKIar+0EIuU1JMqSi47owH4O2ypjIsT6FVxSYKsVfqPNd9p1U8sdu2SUhVeDhreYckI8qZwDnpXBbQVv7IS+h2rJteVHvWjKi81xK/vrk1XK/q4vYY+9aRrpe/2YYOCS2lwLnRs3iVxQZD3gplW/ony5KCQLPct1mYCQVIfNKz/XAxgQsSa7c5R5lGp7JpHIC3S888HYFgHIEgXzvShUp6rPoQ0IScanLcGgP+REMDE6l6tqB95v/sAREkvqDUYB0GQ/yNiXQdj8u+m1a70svCy17D69hDARArr3TmgHfVPhQCaHODdDjEQ5E9j4JhQ2ZH/lJ5c6vnJluvvPWPjJtW3fGOrlZbPLdn1gq3m2AtEkF8QUIReq47PQuyeqjb5DeJvCwFcxPrYhBntT1emkwBVawcjAIL8h4FtQAflNJ0GZFFz/KYQwEysyyaiQ/KfRsnsqlcYARDkX4zOFVXuCNOVQHQ56JN5tayYSaG8BB4dTf2ny4AzRgAE+Reht75U7hO0cqRe0JRweml/jYk1HJvIk1Pqn44AV/1X3XBEkJdh4Fn9W+y4nS0EVsJ5FZyDqa38n1+sSxuN8wAIYvVf+FS5z2NHA6KaAX+NsrgBvQ0pJWSOtbpZjvMACOLw+Bg+rf+PQkButi+ZuLe9vyJRVv6zQKRfYARAFg9zdOIpdy4Ioara65Nw5kU4cLz49zmlmVBeeDthIxBZOEY3I7sq+YWHTwQ8/3IELubN/k955D06p0T+z2AEOGMbAFk4Ava+JMM6ut+olx+qenDcNso1GDbbItd6n8jJ7P9jkVLSn8j7awNtgC0WAciiYU66GWgAWB1RKTPfDwLfz6TsiGmsDsiSPazFTGd/IBqfusqd4D/tZ34UbpKkqqw5ULtydyAC0KiMsQhAFoyBmhLSL3+qos3Vuurt99Zi71JtIl9+BIHJifuLAcNnWOJa70Iq1UPqp5n1LNoWh9vauhjG4ljczQJcgkUAgnRPAA6BJP3n5H6VH1L4FXbYNVX4MwhM37zdFDoVT8/9w+3q08m3swGL+uG5Lm5aA0C6cpi1NI4B4Lat+k8PiOsXgBEAWSxCnz3Vmxz750JD7HBjxJ32O1vFALrcNZtAUkmmNUn9y+3Jm7ci1buw0/vvrVb88LorNcD6bg3O2Q/sD2s7P9CbBCgv0VgDIEulvwNopRvuNDDBWccsnFnv3X2dBJJa3Y2iXK/9P2vxjEXR7aropNWPpKpVv9EQ91qVMsHgdm5/sycFUFtMAZClInTlqT79J+WQzY8NAg5AvG9CdU8DJpMAAYZ92aJob7f/yc0/SPKjhvXwU4CYOekm64kAim5ODt4JQBYJ700ArP4ZmHEvPgZw3FbBvRswcU1wUwDjX2tQ6joY3/5t5S+jaxFDOmFNKFhvBCBuhikAslBsB6AnLaYbHptpM+4U9P4SZVMhgHh+HcfmK+n/IZlo/tuTirAuAZzpTgPn+iIJ6esCvM0DDhDkG+HQdwRAaFgO7P/dylqXdagmmgHWha/89O0AsdLbyCNkXP7ZDyuihxTMV30zz0QqPAhAFomBhnb1L/0dmIdtuU9wzDfZeAggxIu2n+wFGjhd1JhFEfkp//ThWQNxD3g4C4AgFrZmPbcACb1o85lj+hRMvlHSHYsAiqrLGsxnZv/KZLT7R4jMwtx6kbJP+R512wBEBuUJawBkcRjYdeWgaGhS/ll/bpaH2eiJgHK9zeNm3Jx10/+u90h9Ayv/T8B4TxFAXFnjjQBkefS2AL9ik8HM3aeLylHJesH2QStecdKNP5r+uzS4lpAa9nnrY1+SbhsQ3cGQxcHSY9QRA6FJzNiXntJRXgM6VgfYMuAhmwADx4pKNTpcUO11LNjTQe9jHhjHAZGFIWCbuaRnMM58cWRf7yslCZk4DTDTp392+IeMZP8yvHsOzTb6SNAeEFkefdcA7FwcY1++tRNvQynHzEW8cA+CTZX/AVVkLPt/wm2EcV3Rbg2wwRoAWRj8dIxody98xihTMDhexuoAoqYaASLVjZJqZPtXSQGpeCLv2alO3iODPY4CIMuiVULWY5DxlEseEyddJGN1gJLZRQ/r18TsTEf079Ioj0E8s8TVatMT9/AcAFkYAi49Qjhr8+zt/XU9lgQol1ZmSG0GyqT927Ht/6AdMbsDCvEqvBSMLArG9cZTnRbgDvjz7r2HKpNkWMZ2IsD0a3NvT/9Hqv88BsPmn3+2mU+KTQBkQfC4jGhHB6FZsxkc/OI8oGMRINqBYN2/G2v/ESWty6DDn//kuvI6TQA8CESWhYGt7IjMu2ozj4X/PsnkcBlA/Vwz3mn/5z5Vw2f/QbOaxWfYQO71HQRiEwBZEAYaj7zKHYcZODUjPn5KZs1vD+fljm4yqYbT/7AAR7zKBUl5Fd4JRpYE10k3EQ6Oc1XCYmWdfF013Aq8xqn49fgvvkp3OP1X5yMINpMReryhqlP8HPEhQchyYGvWbQHMaZDJBBzPSo509CoG4iMfcSrqkuH0P9cnM98E1LWb/Ph7bAIgy4HHZbcX7tVzFsLmpEd6gaQNNzcw/03/J97gb1pTMc3nkyfv3IK074HGYMiCELBVHRFku1nHYTiH/Ua6wxHgp/OQgXIzqH+b/ptO+j//QeAFrwMgy8HohqpOC+AwbxrMDJjz4EgAUV54AGP1fwg9RQbT/1qnYt7yh29opwuYYABAlkPPTSBFw3hug2yRjpUBikYFGDv+Q9Vg+R/tNOff8eHZGo8BkIXAVuueTbCafxPkDIpwJAIEO4BiWP+uTMre9H/uaWCb/mAXEFkK9ipgtwyuX9AHY3a+X7ojEaAIBvUv1ZXP0ZaY9gWyU9DYBUSWQk8fjLjZayRg4tVFycEWn9/qf9D4p/7wEp43/HU+PZE5XghElgKHQrnkm47C+VrngRzq8klJBsv/rWavWBFbpWF3CKLBAIAshR47MCKjMubOK+AcdtFQI2DwZfrhHjQ3HLpjkN4VSwBkKQio6e8BgIYvuxLLDBw29g0fhrgf/oHzI+DqoSUAslyEvlDynebYBm6VdMnj+s/O/HU7soG65yp0ik8JRhZC57HgL39ClonTq5LkQf13jMPmxUBOuzehDA4CIAtBdO2A1KAZwGz3A2tfksf07zfWOvRlGNi5nRZIUOJ9QOQf9s51xW0YiMK2QBKSJSND4mB8WXIhWciFBEzy/m/WlbNtSkfuZhsp20Xz/Szbbf/MsTRz5igOOAcCQIJnYghO7TAg/RCtpiAvxC+SbsAcUOE+IBIL8FlQe+sOvQ/HBZ2DzC+3Och/+x/moYEpKDqBkEgY3gTQTy8AbujqVnjj7v+Vjf4KCa+kSwDRCIDEgaAgDeA5uZiGbsBmgGv8n4SFJ3lZ/CkAaAVEYsF9Bw68DQOT/931/xq6Dt09EHwcBImGIRcTdsHr8AIwhP+ocQFQja3/0HCbiAhiAdELjESCXYeDY7DnxGLKA4zjuBVhswvfiXP7IAjrMRkciQMJdoFAJHAwJF2XakwA1Oz1SQJw+tMLrNkZBQCJA/BE7vNex5L0UrLxKwB7jgJIeoJWaBQAJBK+TgBEZ+wi3ii6KHd1eAWQ+RkKwAlTAZE4cAvAE7zwoqq2xV/HgLpoq0okgZHUJQBoBELi4KsEgPP8xAj5wAh0yrPQCmBojycAJFq+SAC4zHtoAoAKcIZ7yc8QgC0KABIHXyQAMt8vUnJHFsgRlCIKAIJ8cwEw9OWufWCS6uWftYgCgCDfewpg6Or+PADHYg72ABDk+xqBJH2FD4CMbwRvgiqApD1OAZBo+QIrsKS7Etb/uAKUa8/lCH0ABAUAiRMgAMGXgUQnmkLfHwtOWGM6kQACWoGLEzoBkTgA24Ch14E5z60B6P6HQQgptiAW0K8VWKMVGIkUQV+fmonHxZgBgLBZydwKwPo8WDCYtHqE24BIpIBMvMCJQCZfLtz1r6arW28QDAPBpTzoOvARBQCJA9FdSqaf9jyuofOJctf/8Dz4VGn3MHAORgHBAkEIBoIg0cCzyhGKCTLxQgwA4bx/VB40m4J4oECRYBaFkWBIJIACCBmJJepdOXbI39trvqFLPaIAzQWMJoOFgi4wFBSJhSe+DCSyQ1u4639xzAUf3gsY2REgbHsI8WAfrwTGgiMRI8EdGMzBfW4AEjKy98v5+4GkVyl53ihAHHb4MAgSMc5EnK39HvvG5Es98nVvs5/JHyKpT26VSPXtYP59x6AI8n8h8z0QANaC43bADSDCmkstbp9k0TLifidwdVOA7+uERJD/CUmXDKwDlv7XASVdwwEANPtfs4IZcf/gznthGvqi4PPglw6fB0fiQNL5AnwCZ94/gaICDcCxdT9JNyNSUbR5xn0LwJIRYEnkFQoAEgfCuQ/sexmAC7B0N+7xMXQ+VXqsEehbAPZQAJo6QQFA4sDVBUv1ynMb3DgiwMZdvoa624VEad8DOkl7sApQbHNsASCRYJcBFAGDcFuV4R3AJFU9ldwxMDy69UJNPT8YLOgWCsAZA4GQWOB2GYDA53GlZ5Fheiz4mzv9eXYY6G4EHoRfIyQDAoCrAEg0cF63DHiBvYbi8SwZcQCyxrjLWXS8gZLxfj7n3OsqBBQAdAIj8SDzE7QCNh4FgN9St+AAsJafWxsiqTpS6fP8M2UEncBIvBjaFxpUpoc+OGjpkQ+cPXAUMDY2kOFaoISkkxU6gZFoMHQZ1Agg6WbK9PBrYea/+VA3AJrN1lT6c0FMHENQdAIj0SAGiy7MBJK+E0fgACCX/C7rAPQDJdzbeBJkAttnEVAAkFgQ9XqqPF6DYQYoc2/3bT+4Zoiqc//V1F9kl8nPrgYIRx8QEgu8MjPYCN9T481pl7obgJda3pMfEvK5IC7yLRSAFm0ASDyAUbhPL4yhm5FW3j0P/hgbEhiyDcArA6eArEcBQCLCZYZjfo7BovvLN1x+YoAA2wB1wgNdf9gShwBIRBh6BAKg7APBfk7YxD3Mz+Vdv8AdIkQ8JXcLRxpAusA8ICQmDH1hJPUWigMnjADC7rXziSxrWTg3gKQvC5wCInFjQ3GCjAHkyBWeDMkej+WIaObDqiDz3pEGsDugACDxILrLjHl5HAc6AAo9ttL36CKhBksBnhJRWVvjFBCJCM5dyeAPrwNxMWz0PZzuKd1RAiRV+0c1imdZyTQ+DYzEjfN9zMZUPFAD4GwdgBwg3gB/aIUEWImAXdFjGApR+DAgEheSHsFNOH30iXBpi0s7M8BFYq6lnmRZVVXdlcNAZ6m6qsqyJLnKgul2ZTHiJerEg5sAMA5tMsceIBIVQy7oHzwaCiSSunU3AModzfOcUlofKi7NZTew/sXOcrkYkXU1fSN/4+YmAnYl/tghpSApZoIjcSPo6ySFfrh/EoDhmy2lNPmRuUO92uWxP59O223btk3TlAOzG+VA80bbttvt6dwf98vGHShmIwKFlMN54t8eRYF3nxIjgZG44JVpGIGOeJHczXvZS5FUh3r4aoPe/c1pN1BY2O+oN9gA+AmVWpyzwOthosv48O9/Sgk4zx1xQC3eAJDIcIYClUnF7yp8C6/q62m9uqw385f98WyTRt2QzzP6q1TTH5cvq9edrK/3ii4RA/foAO92UwUEoMc4ICQy7HmdOB7Ikx+VvhTZYah7at7qfrnvT205m070QjFFUm+Q0d9FGFOLyWQ6a7bnqxIcqBWCuuLXm8Hn0kDsL8RAQCQ2bDf8/krg9rT985svd/aDf77WPSuK4SQPahbgVxuUGm4MajKZlc32uJxv1pfaykCXXDsEn9I93ARAIkMc1o6z8JlK54E/6exH/3B5Xb0cT005myzU9QqfghP7M/j9nvD+H9H2RNAvV6+7LM9/Xgs4d64qga6CwB4gEhk8qcvxB7Jutc87Sqkt/bn95k8nWr036IjWHureixToX0KgJ9OyPR1fNrtq6A7wQQXAiwiw94kCgETGbR7m2IobGvy29vN6t3kvfcWK6ydfE/IflL5bB5RiRTEcB36wdy4qbuNQGLYFkpAiCQd8wfiGY5MEYhsHQvz+b7YjJ9PpVrKtZOJ22tHHwu5S2smUOUfn+p/RDSRjMPCREhB40HU/bQZg+XZ4Qk7EaBYCMaFktP28OVSXUxpwtkVIWv7XM/yJ1ECGA1vEgzC7VPVe5gSdM8YCFFbq/BMrrAOwfDuoKozh8u1FDLks8Td1ccnCYIfups+/tOGrfoDf3QDa+dHoBTohM4JBnDUT0Ac7BmD5dug3gjMhmkPRZ2HAb7bP+dd+9Jf8wJgUjF5AZgRQXYIEKMUbWwKwfDuoUA8EsqA9p/d3/8sH/Eb8SAmQG4SnqggYUHaBrSCo5RuiLgRKdtL2/wnT13mBnQ/UMeXWjgFZviEU1jr53b8r3TcHuABMSAzYEoDlG0K6vTq8/4KX/zX+A3z8WwW87rMBFjV2DMjy3cCE4GRUx/vmgO1JEGoHgSzfCEzpBsLuWIUMuL+LFy0DruAAmhwmDqXWB1i+AZhQkkNBD20WuevZ/4xBs2mmf/96H9Tl0ak9YAFjQm0twPJvgwnpoBjKi+z1MXdFs5L8JPfB2O4Nzn1JcCP6QTDiSzjnu93up9/4xv2PXAuEdkHWl4OAObG5gOWfBVNp/fviGvq3Xp+7FoAxwKWlR2GY/hD5aquqKIqyLOv6cOM4cvvvuq7LsiiKqqraViqISQGxNIyiQHqFHVrRWwGXbZEfXsrG+gDLPwqmJJfWfw75FjHAwUui/Cn7D/u2Ksq6Pu6bgeSJeAMKaIyA4o0kJsP+eKjLomr7S8DAdLLxgnyFIeSHV+kDYusDLP8WmJAYikFaP0LuawwGyBB/wv6DGt7tvcvjjXM/AEB/QHTQ///6KCEev6sEQ9FPZSzMdV9QJxjHhm8+YBBwY32A5Z8BUwyFV15H6//M2w8+LF/KcnE/0E4SAXm/h9zBI0997BFyg+JOfzHU9QO+kx/nBX7g3QdcagwTbNsCln8ATEgO80Of+srb/8ya7Wj6Uo8vO7dVXfku0B7y3xDHHPOjI0B3dLSW8mRpGPhgLBl+Lim45wJpe0xsKmD568HEgaKpsoA9a/0fpo8QGwV3rn1VHhsnEVDe79InANR5OZ5okQt0VwcFFPFwlH7gFEY+/1848Nw3zNAuOheDgNi6AMvfC6E5jOtLxBFzOXi6znczfSnC25aHhghxE+UfYMV0FsnaVbbr8KbLENeEAMGxo048XibYNMdSapjc3MDzwcC4OcTD/pDA2A4HWP5KMCWJaIosQMh9fL/nQ1nH5UF4ulTlcRTdhV18v+hJEnnFX5sAONhZAQrltTDtzXD5cSSbbqwYeu9uwGXvuqVPuD4XoeBUDKKzmYDlr2OM/Y99yBF76sffdW/Jfnjqi7rZwDdiTH7W3SfirE8AVtPYpqLVhhxSx+z9ux7VyzeydZA3B6lgHPm791jgmXIAT9u9zQQsfxmYxjAuz7fM330chnZ+kJ6krGYuxKixTX/R2Kaw4BprBKxfTV4DO1225TMXg1Ul82Q4lncvwJ4bEUK76FoncGN7Apa/BUJjOBSZv2XPVsOj7M32B5nsd45i+iNE6mvrjDHLFX2tlZMAANDlw+noRM29UeTMd590Acg/FUTYYoDlrwCTTgxVyp9u+gGAWpFICU1KZi7sXJQEYP0jO1T0+q9aQzp9wFQOQQk8XBl4ujHoZ8UgcpsIWL46mOaiacPdY7G/opIHPfnuz77FvvYt7leV18Ibkmo8AEdpt8HzG5AUnhB/flkA8bRqRG4TActXhtBc7NvwkdQf6ERygn1H5of0En02nuKYOCtCYa04HiNdv7FnofFYjxQDwrYRsXUBlq/K+Po/ZP63CR9tXZ0uHBXZ6erxfvnyBEBNPba6ecBon5B5z1FoOghji/ARF1ANIraJgOVLQjZwuJm/ea8PMR6F6q8oStkmz6kL0HV1gW3SaYuPAJ3FvAMQJ9VxgMBXOoSLLsATjq0GWr4chEBSjbm/8dOPdn54Lfa15lpe1HRkzprO2md4bMetgEH70eWzwQfpGsVlAeYXxTn0GWLgDUMX4KbVBhLrAixfCkKgKLOx8m9s/UHal3sBIVaeVOC6BaQPJ+JcDuSsDdYPIHEUkpnygweLnermQgGTvVRHYsgwGQDcRTwrhXUBli+ETP4PJx8ZDfzfrT9r61EDi3riisAjOQB28hRxvbwudlbAMP/ooTcbs3DlA1/EgHMohrrPRh9g6gL888E2BCxfBoJh0wdbZvb4MwaCrD1s3tWviOY9BygaJsXyqVwCkmhPi6+PB5UK5NLXx3kTMaDNGsZ1aeHVfRrsmNHkFABsG/QNxDYIsHwBMIVJETLGgdFIC/PTtvYg3Lxr4ePYCxEwD+dJ0kRIuwT4m45sY0fpQS5FLVSTAXAU4hj/pJdUG2smSC8aFgLaIMDyxyGxOJw4AsAo8ffTSzl8WP8IFdcPewKLFzOpthHHURqvsAQ4W4Mwb0JScdJkAB89i5sPgI1UTTJKBQBA/HQQsQ0CLH8UTOHQBsjlRpttUu8OKkI33lhXVw9m5djE+tRp3PWh2jlkvk1j/TwggftgIgP4AJO7ampkNEUN3G3Qe7YYaFkH8+c/lZnr8m47C7LqqFW9xrkXIW44C4SJ0M4Arj4CoN9EAv8PzCvoTVQtENDvEKpXE5Jjm/oGYQDgjKW1yO1pccsfAlOI+2Cx839//GsMO0KxYVufo5Og8214dRJvZdSunuH4gnRaQDM6RHXD1DgRQ3mOAFp2AQD5Fw/ayUDLH4FgKJ9/DhbL/n5a7Uep66mcugQuUPcBING8vU2ItMJ8kDq/D4zFCXHTUUQCj9MZgMpYEryFAQCApWJgWtrJQMufgHZJFWxdsNTzZ8G59GBCCJ6NqNUXUhdPe6LXZt/Z6iMAqjKAcSXCg63m2wu9yUYnJlheUTgFo57YUhDQx7YdYPndYAqbM2ccLOrZXA5Sz2ZhUP6qhsjSqPVv6bIKwPpQ7aEQjjKBsRouZJpv7wrp7AJxDDf1NVrcrOKMZUdh0wDLb4VgWIdbd8n8edge4bKiHYUl1+QAB0iMlgBURZ71wTENEZ/RB/yAaLQLgCtjBRNVxUVpBeCiqBAbmwZYfh8kFlWAAFjWsFBif701ebocoBWe4ih8Xe0tbDry3OWf9xtgj+Npq5Fciez14kUchcvaxZgQKOUVFlYsAEf8Eie2G2D5XdDEuXLGjSRsiOmWPVfsOs0d/IsoZ6p9dR+vAI6WL0//vRFvxv/Dj/4JcrhHJ2cGvWX1QrC9QGp4WWHZBXCXZXtoPYDl90DhPptt/t3MfxSxM5+tc3VRMvlFBsQk71ZRBbo2iRAiJ8PQNIPnSBXvDlOCX1EHjI4J+SVs2bmmGYAKIZ1oqpTPlgOBuw1rWwq0/A4wFYdwC8Bc42+UrskpfkBwW90Jlk01T3lKPzsDSAjuoBgOZXs9ZWn4RpqdL1V9jB+9zU/hBQGgbQUujQFzlJpfL5ETglJmkc15AI6CQtj1IMvqYCLKCHEwN/YTtXv4mHgdhf12aVbOE63O4LbnB+z/Pm57TQN/hz6Ql8ey/naX29xr5Y3ikNTHnSTKGLAiXmqWCEQTI5fg3g3wW7sbYFkbTETlIz6X/AeXI1x8/U0q5YD9PA5MEn0L8IEZQDlp2xSniL/f6uGAv/1zOzi+Zbe73DHFn5oH5Nv/pSSeHAMGn11dxqSDx8vs1CVnu0tnPYBlVaT9c8Znkn//VBvp1ai9csR18z1KC1DdAvZMc5fkfqxMudn54xBhkBWD8RUe7Mi9BL2kqTIEoJwTfEJzaRRdATN/+Wfa2VKgZT0wFi1nfHZNPX5qQ43Clrnah3J+CxCl2DCZJrnYX6KZM+XgfoyvwhCTT+wFc5Q6P7YCiba8yZ4RLyMExkUo84BpD3DybDvQshoYi56zmZ8/KVTz3GQ67mSqPCOzpd0CNK+mYwKHWxYNlk9wlInhQ0pUOTOJ1CaZG3JE0ZBj53GIA5u57SsAUDZ0NguwrAMmot0xPvn8g+wgumd7Ubq2OkAh3mDtsOBHLE3NJMtFmTJkpLYjNff2Zjt2pNtHaG43UQoIsqUxYHMw7aT8CgNgxgPYLMCyCphCmf9PP/+tByl5xYatujKHsVBmgJRx4WkodHpFtmROdjMszYZrPajtTKBeeD/0C4H6XT0vXkIoxFWE3GkPcNrYGMCyBlRU/lT8D9guO4gN+eRwPdC/8HpRPfMlAAqPGVIWlxYW7eOOmnxqondMR0jufks3BKAqB5lDNnNBgPQAuV0MsLweD5Y+41M/dUFPPjmJRuFlCyYsCcsZIO0SQE5MJpeUxaUlOEOnJqHGKwF6gVB9lRDIEsEnVVingwDgoqvAdibQ8mIoPESIT/3MhbXYUMcQ83Fg9z5a78FWKwRcQc/E/stgZnJpMqVJ95Ca9S8nhQEovG65xql9Ur2IYHHIGJvyALvergdbXgxJ9iECE68lP+8Xn38jU9KEy2G8wffDWmoovTEIpakolMklszQgPBp4AKJfCUBZ4mCcy8+tO2Dy+XIMvfiTHoBXwnMslteBnU5apw6O/Fa8ovIsC2baMqA3KoEDV/dLRvbP+FNH+behSQxAZStQPw00+R3RF+iSwiKaWMjmLKjtbqBFsoIAjvJQRsXTqnTq+RxdGdBTxunVLUDzyoU5AKVNQgxio0AbnuTYidUKIRhjmpdcYzykE4UAjsJ9YguBljVOYaip8uFVe6hU6DPmXFyn0myD+n/0QPyvRuvJsrF6op8IAXSzC2DbQ/oqUbbTR2tEcZuOLQNYnkfV4uV6+8+aF0WbesEfuTg3kWWfBTUQ8Ffe4McqgRejLxIirTaQOE31NV4CTfILn/DLrLVlAMt/7J1hi9swDIYTQWzsxiGFtkdJmrH1uBXuWq5Qbv//n41ug8FeZac58gZDz8d9WLOuVmTp1auFoOIVf2dXRfG5r4bRMWVASAy4gzS/ypvqbKiFdV/zxQvsUbxw6mYsAS6RBJz5C85dImVlAGMR6NmJae7bNEVNqcHRMbW+G9yxQU4rUBdmkSQbR3zlOTWQG9ELEEuAS/uBH34EGZykHEwNYGSClp2JPf83XQsKvt1XJ6plNgBYnsspAODkrs+LkGlTM9qlsFc8lz40d5HDzCXAUgAjH3TiwfOv7UYdG7hr8JB7hZ+3YOWYCFxUHt+/I/FNUuI9QxXx/UwESO7BOgHGMmCgDSSnodIBpufhGKEI2MtqigtJbve+3Cjyz03M1Vz9VN4jQEtcC+PNUgAjF1zbg9Wshfm/fPcv6wTeZygL8zoBZ0kKcOVSF35GQJnYfNi0xNcBLQUwssBtXKh17WEQp8jaXf6tXK2EF/PF0N2b1GcJggX+JTo2zcdUExttLAAYC/kmw+W1ZrFSx09fHhxlJwB4L1eA2mMTswTB7/iFKuZNN0dkKYAB6BXmUYbXVxqgrA7jDbMzaOVl4kUFElTupZUSfoeRPmE/HRybAlgVwJAyb3lTU1mhGe7bySzMo644Czy3HyWag1dHGZcJvVnNxFmTWQpgLMFX0+i4YddLKal5AP0sN2fz/mLNC76ReZRKd2GAVIl3CitCP7M29diYINhY2pcroWfPb95RnWTy3HwRIL5JoemIxO4MEafM1yYfSl6PZg5kLAFXW9/RVrO8uwIY14Vw4EY+DXDrP4/fw0yQYImZYq0GP53ajZUBjQX41YSmlgQ78FXp8d2NCYC0dlnuDoD0MBMk6AGW/drIne0OYCwqyWEpnbfi0x09oN8nAL4qKwLICnl+tYIHRwOTUng/jIz92MHsAQ3l8Ty3i9oJgLyeTjUO6PLNiyVjAJhKn5qQkQIIehfKGiqUHtuWAGPJcM6axBWAstpDTADkvYQyE0GYu/idS/O9i7AqGTf9ar9zCe9LVgQwcoB9PAXnWXCKz5H8Is0/OByGJZC7CYIerC8pfnHCLUU4yGC+IMYiYW6SrrYu1HvEBED84Nlk7iAEF1DBQtCymVMyMaCh+JMqX1jGmUBsAYgfXI0001CXpwC0vpU+ib7Clk2yKqCxWJQjN+Mt4UGGlXTxg6uRJIVP2AWIIqCy9M0b5mu71coCgLGksAyquBIlAGxppYwEAB9cTwsoqqZHWBVY2J0D1Y/w4NYGMMRgXwvfhVP5V0rfHV2NEDhdCh48F9z4LzM2hhTgr0nyAg5AUru1eSBjkQyAfgkAheTlaLWfMjQA2JHPB89RdgqQNMzAJWsKmQBwsjaAsbCxVD4AYArwzI63ghFQmQwg/wofmtOmJa4E2FclwM+2/QCGhMwXaXK7ofzSKb9fjS6Jt4GVzwDEFruxeXVEjJZYcBUvlAHYFcDQKwKmez87VIXAdhqu1fH/qAiIAUDuCkBUXJDDXz/IzMEN1XYctZsiOSX6+VENQAogeHC1aSAIe/OLQpEk+AuUZrdxjMnagIbaMCCVlbSizT4W02TJsLYQaKh8hqdp0a8N9VPPKAQaTQhkKDiClheXost+fgoQppciUmCRKxDNzAIVcFHDTWgED25SYEOAeKaG2mKidixm5Yvy/8kwULjAERQMFJYsnJB7tSaAkU3EqVqqP5X/JYO/HaQAoiKCHB0/78hVAOZVzP/Ff5bxPxOb45rq8vMlcot9kg0jxuZVNQCAkE/SAsBB5lDpgobqEC+tC2joVOPKe9uh/Eh+jrANAOlw0e1g2ALgQ1c5emaHI7lxb7NAxjJJLhX+JeNUK3zmH/sRhGbhWgD8TC8omcJnihqo5XyU0vrWmSmokQGs2BdI8ovJWbAKILYUyAfdfPK9DMtbAvjvnROcnrQSgKE9mZ/cuC/R0sKt3vkpQGzOIMnNAFzQ8koX5c3Uei5sktsFkwEZMuTbLqj+BKsBVXuANWXs2C7nCUTCVSS3d1eDFfvawtRz45PrmyUAhuZ28PIzZrjjSt5QQ1mcBlS3H5o+K+JgLRFeyKrfGt6WLAAYYuSi2uRGvw9VAULzlL8dGC8vpe2A0EFdLifQvwBgw9ZWAxoLYd+kRO7WRV8BBXqASHICZb6vwFZMDC71jbJAKfMWVaf/8eGmAjKAImVAfAtrbrcglWWdsTm2RKVKgPJdBuUlFHH4MrrEriIxEYChVJXHY/ERDmHhHiC2IeR7evL5luxI7fiQ8pNUYb86OKotATCQcgv7k3s4QQQoc+HgL9O90CR3IUlSAfABLMz+WicwrIarq4kfYbYEwFA5lMR6XDzBG0Zfzpa/rtf7y3IxEOEiFHnFkbh6QtMrn//u7Zv9mYmAjDxy61vkxowIkKOmxz8Ciy3BeEyuFci08lnXJKpb6VRBPsF3t081sXopswIx9I4lHwFeVN9nft/z13aSm/Thgy+sAD42McuCkOrNmEpfzMP+5/k3N1AD0HTpR8gdXuDnrO4FStdtS1xvrn+/p7Badgmguj138f2PCaMjJnfgxnPcodO7mcfL5Y0//3Vra4ENzTogewkgN2pWArkJHnIP03Wd8t5woTktsQaj++Cj94K5g7YmplEKk1TKV/M49Ne2Jn6LslUAjSWgzp2PALvPTfSaHqTwCW+sQxi5axdloSvldwDGlyEInRPxVT9x3qak1gn0sXk6OP7820IgQxO/qsZ1mtHJPmqp2/rmtk6Mnn0AkY183V7f5fcCk3v43ER55RLFShcQ6Oit6/Sh+bxzRDNtUjv/xgLkBXVy22O3CnqThziJ17PNQXKS9Nz77hUigPj8S3R7YbhPL7ATSz2jRKC6VZkJDFX34WfiAVmTdQAMVfrmOCPRozbdLkPUKwHiixQGbeA2/U4EyLgFUHLbR8lJ/c3DfetqMDZdU+UXp//D9LpxRDVfAJj21gEwNPGhuzk+AqS6fn5qgldSAeImMn9/yToSW+1jBEh/HAHo292mz/Uw/149BJMgLXdQH5qn57mwltyDFQAMbXw1PM+8cah2u49NFXRUgGijxV6z5dt2vO+OW3h0AP5JIssD74eDS6xhQoB/E5QvM4n77uPuZziGAqC5ABj6hEs/rtPc63J7noa8bgA6eWOlL1xedo7duTt5UQR43K1rqqVQattnUDgINECwDhy8+hU0Oj428bZxNHf+NyYBNkoQm9POpbkTk55PnQ9LMoxudMRaWswO9pC7NVF2ZE7Pn8RJANXr7dkPUVS4rEb3G5FCbD5STYyOuV8i/vt8+NQmmpEupqMtAzMApVbArKyGavfwYbhErzF0iMJZX03jbKYtIA7744OrJSGAqG3Hx64KQv+Stqb5kR+/91wncBxyO6chNP3r1tU065Z0tgaAUYi+edzORgBy6frU+JAdAK5rmh/669l5O/nuy1A1p+vG1Yno96efWvdw7qGmKVsGiK3+u8ORnlefj1P3eGhnjU6oTa/mAmYUo+9+RgC2cPZhyGwH+ImR06W7qy0Y/edZ7Pg4DB8PybVEs8eHUu3c9u3UrKK0cfHmiFgZzs8QwZY24Q4gjGJf2Tsb3rR5II4HS7Z1jm0FKS+KEhIBEUGCRCBF8P2/2VMH2mfaOdRjpWuLf9qkqRQK1e7V5//thzH821Fy5eO/55EIurzhAQiLj1ud31EHoCIfRUq8pcxA/mBFAXAaLneJZDPsAy5fkkxlQ6sLwd03p1kVU8OQ31ytIrN9xe/I/vu6nA7/Jv53Pv57HoqgTcbU9AZMkz/fUQdYAzwxGprBK4AsCWsD3YZDSPt2SGPG5Iz8xkyyVbJYb/TUu3eXAVA1jX79hSlJ7hnVxdl/u4unw7/p/6+9/XseTGQ8wHQQIlKVS00B7hwCwKofWJcECwO4WxGner8cykSxOWNMjjDG5jLOFl0DugeUQrsdAeKTC6xOfP+GZQ6V3hwyY/5TKBbXPv/3PBxBt+WckBsjNPGx1eg8wGGTl0VAj8J78h5m7l38iSVBRXXU1odjmWXJSJYuTt1yW2kaCrjv7gKuW/CSMnx84QoXIT2vU5P935pcXGrh7d/zcATdL26EItNHT4aNzgX8ifQwCpNoYg76c8bU37fUOUBOqdZiv23bpmm3m3OoNS0CgD9zWmjOF7/r6QnHAxXO5h/QqC7VrfBvlBla6u3f8xmI4nyUktw8SU/XZ1oB/2MlAHLjsk9E12yGuGf/DQcBPKyKgr5Q9FUAQgC/r2rBM0AFvKsYTJjrihAOOc2Xi/jmEAOZscWG+kXgns8B8v4QM3VTSkuV6zPNHa0qso0Bs1Tk/LetISWzNd3uuvzOOYcrnH/gyqSORvZdBzhvcetb8hfzlzdnmJRUgyj8/J/nceDL6Lfv15AZG12AUyHAQ54yW5YcWacF/1Zi44Ebk5RFr5znYPt0LutGRE6hXsRM3vxVj5IM/v6v56FgOZry5v0a8uoCKgCXvToOMRLdrcG7ex4Pzkbw0jIsGTQ55DgNB+hpVKPk3zZ/1Wjw9u/5VATdH1dSve8C9rp4r7sWWVbrK1QlTx8Fyvhh28rdhUDx2lLc4XCXM+EAVO/XJTJ/2wT23rf/PJ+OKAp0zd7mAtJuqym/9T+UV5Z1AGMxbVcntWrgfsYEDO4AEkvW4qZ2rG6pAoAIqN4eUvXe/SVFWLbWvS//PZ8PcN2UTKr3XMAsHZrCVALcvZy2X5pHwgBoHvCzAG2kyl1nEgRdW5TBsk0Bk7l/3pyyFW79Yd2CRUu5T/89/wIu6P6ElCmwC5AyOS7PdLISEPo0Jy6zctPCABJZ06NAdxORTbueGErrjiAOAdX7epdIbP64+k8OYeHTf8+/AqpRm0q96wJYXHYbTQMB3La/B1UAaFoezd/fq7b/wBVmhE3p/QrLkSGxXGXmAiqaN0OKGv/W8L9atDr04d/z7wCgG5QE2KcDVXpqAl1wAKcKINv03G17iIE8WggLzwDaOoA8566Cx/j0kgPk1+DvIF2iZizpct/98/xjhEkCcLyyVwKLbqtRN8BeAew0BLcKBmx9efhgY8BnEbiv76Z2gI8MOZjUH5an9CJZ8L5osdFgC3z3z/OvAbioVKgZAlcCq+xY7yn9deye5yKdNg4MFPtMksk1no+HX2cA8SUA7LNuO7nXJ3AQvKd52y1ihoO/vfmX1tqHf89X4KJT5aC5ScY0IC4PTUBpCMDfpoCkJT2uYHpHiZyRf7cPO6K1cvz5uMzBsiDG+gtabNe7ZIWC/9TJSjLsffPf81UAQaMuQ3XAlA+YJYuuDSnNAfi4EZARS4MMpvWD0RCeQbHdp1yH5/Zl6WT+275yPA6sbMohEFKtX6w/U2Pbn7isLFC7Rlc+/Hu+DpDrzSlB5wE2XsV3uuasaQ4RhxI7AHxEZlfiwmXDwxEXh4VHe88V3HyWtdFRaN6uj5lCqf908b8q65565Q/Pl4KLQjc7NLk2nQawWVIejA+gbTwjLgfquKJ+/KUgd++jkMtyqQG2bbdI1FWhzMn8ZdpFPvv3fD0AaFWXK+a0gedVhK8c6vOBkT9U+4bCqHFbB/EebRk8xCu/cc2CAWvhQNJkxVDmf+swNTtsaOizf89XBAIarVOJuoG3agEZp4m07gNx1BDGYfihRLS7rwMZ6ZPFZ13qfnfzHza699m/54vCRa73nXEB7j5gxiTB5oQqAKd5QDVZiH/0JSC8Cui9TcJgnR52/0URaTYW6MLf+/V8YbgY1WtdW1p2E1Dzd/v5wj6LQ9hgNcSPHAGw3UZ0uNwvgii1PNU9V0pOrTd/z5eHQ683XSrdXYB17fdZ3BIRQAvD0X3cB4DUvdxKDw4gICyoRnsN3M2fyeyw1dSbv+cbAFAYF7BydwF4rl9rTfsAxKReH1QT93FKFIvvxb35OI70YfjF9nuqdbRddsfMoT9qXVe2Sg8bb/6ebwOIyqjZqLm80wVki6Fu9r2mtMj5qNo5HYxxNS6CByH0kVmPH7cFWARHg4pSqsNNsz4tsnjF5D3RX15UlXrhzd/zfTC9gKheJGi21Q3JpErS3bButmfjBaoA4PeaAPTRqQh4fAEgf1Uj4XCRHKdUF+etsf00UZKh2/2OuT9LdrXQlY/+nm8Gh5wWzTGRaCW34+mAZMYLZOWxW273oabU1AQg3qoC6PeZbSJ4XsKHXgvEakRYjyzgl3zfmH5vwj7fXHYPGdu/jvmgZzr0/VdmVynN/cGf5xsyLuJrjbDdPZXAdWOnZHIWZ+Vu6Op2n+vRD+QcDBFdrz6zCAB9mko5IgCej5ZvMv76cFqkWWzyGGfbt4uorLe64H7sx/NNuUjb1uiSqzPEcEkGVnGSLo6H9bLdw+gHaBXoxfzzioDIvpRgJg+0MJYvNu1yPRwXaRKvxrBvH/FxD/6nBmjvc3/Pd4YDVLpvBpMG3G8Ob26ASRWbVZ4vfqDZbs56k0mrNoj4+DUZMCUDlm62Tb0+jJY/JvzG9Edm90DGyj8eF5WH3vw93x4YV3KvFwnDPsCd/9f4S5NZq9js9N0dSttY3jiXBwZ+4U7ndQFGxLi7wJZvJGVmLH/k/7eJcD/0Yyodmlz34HN/z4+Ag6ho0R5KUwog67gvHbg4glGGyF4EUFoUfZXnYfBqwi/A+4iRq/cIwrzqC/qCfi0AMFLKX97Z/ZD/NZM0Dfyxn+cHwYFTHRnFO+QD7oAgc0N5ed207XazP0e8KvRowVrTXygQ9A2tL99fVKE47zfbtlnW6/XUIC8ZQc7hTuvfmdS/At/39/wwOIhR8/aYqTmTBB0N3gWZ/HqcZFmWpuVisTuehsOh69brul4ul03TtG27tdC2L4+9fEddr7vuMAyn43G3KNM0y5IkVo4mfr/1z1fJYr0tdA8++Ht+JBygonpTn9KxFlBk9jDITBrYiGkarJRSsSExZDYSg/kWpdTq+myD+ef4ko+DMZUd122hC+6t3/OD4cB7qvfLoYxNCf84iAEVCtKFiRd5HFKlp3qjNeU+9ff8dDgIkwecl4dFZqQ1Hgwh419yByjqPwYiy+Ve054Lb/2e54ALyCnNt5250//smPUAHLz1e54KDgB07x3AeGQR+QV/nucjossVNocf7BHIiOXEoqXeAXieDqGNwD6CqB/pBMgL46UG/IBcU7/jz/NscNAWgW2yer0++2PcACFEXYxfxenuhLcgzI/eAXieDigsG3NZud6liRpP34n69l7g7U6zOegvj+tmU4QpI0jBQHPfAvQ8GdZdOfODrs5tfdilSSzn43169S1LAhP21Wj7cxknqVE1iTSllaC7ucIbjQrfBPA8GZHu5sSyYj8yalr63C6746ikZ0qC71QTGNN/vb28irPFabR9Pe5CBX5dLII/deDxPBVmyz6xbQQZD8VHLwCjnmaZxTM2v7YGvqwnIK8Yy58zEmflYlg3m3C0/fEz8YnVgmreeQfgeTJ4GNhaANdqmHMQAoL+Iq25XA+7MjNCO/Or3ob6Qn6AvMV8yeYXHUMjZ3oJ+1UgxK9DPjyP8Mee7/w5oOfJALqNJbKEgYrfhPWB55RqarKBuhvTAWXKgle5PfWPXAExKKXemnxspYx24amrmw1oqmkRWgXNAeuYEZYGoe8Cep4Km8Y2keOGfyyxf9Xc1Lo/j5qbu0WaJYpdkDMHIZ4Pr/JNkX9BGXGi42j558JE/T7kcLV9TEQPtsrHdwE9z0Wkhzlx3rF7Vd1+096F/VWIr0xHQa75fG5cAflIK598xPy0MeCnpZEprZvtHjS96hVfdcsniWht6wL6SQDPU8FND1DhA/GA337axRHwsC8uIj/52YjxdsPJ+AJUU+AWnRohipg/byiizJ8R3GlEbmp3Gi52n1+FhvoQxFVEDOGw1pSwQfsuoOeZ4NXeMhGz08JRrxNGOA+q4qLfpfNzVE94ADKbz9kfYb5/6rVUrS9mX1Qhh7c34gjPw5Qp/MF9BuB5JoC28YwgNV+XTBhnBAbgYaA7q8IAkelg5L0WZVmmL2QTmMfK0qiI7Y6n0+FkehTWTaDiAor4Tgi9wKNAaZT7LqDniRCmFLaMAUFwL5wDLitGiMy2tNBFlQcQRefzeb/fYPYvD0QRBEYH2ER4fZLEtnQgPffwd5+8Y7iq2PqDQM8zIejALM1w+pe2tcmYzQOw8pyLIAjDPM+rF/qR4o3eUFXVy8NhOPqSiHbWvWOz+G+n9gRdrnAXsPFdQM8zIfTC0gPMAx78DdHEznDCjhqAX4EJ+BtBZFp11hcatPjwAQgyY/5GsOc/9s6oxW0YCMK2QBJSbCFD4hDsxNQJuYMkJoGS/P9/VnylhWZX15RKhaL5HvrS9i550NjanZ3NCb2YWioAd+djZAxwD+7xj9y2ZvdouVeJWv396mE9/+zn6kdzRxUQZISR7ytyCtTfW+L1ZtE3Nd0cIKo/eXXX2t04Hamr1dtfP6m1ZhugEACQEXMcWCQ7DG2z88/u9vjyTw8WAKq98xEsUHciAKrdwAwM8sHLfSJDrJf7sRScAmynF8+YpxN7Hwh1ipHc4T+6lWgDgIyx8s6MxOwKHcNieGejBstX63dmOgcKAO15inBKDdUXUS7RBgAZYeS2oUOxzsRZ5N+zboByObxyyHThTqQA8GoZ4UWBWREBqAZEAoBs0ItNq2gcWJwz8OG2r1kT/+GF32DdteJbiVfn43z5Bf3yyAQBGcE8BEuh9uQMRHMDvF4I9JKfKKibbRepTqdd//z6gz4gyIl5EqCK2wSgZQCKUNvdb5bwWPm+5gsA62hlOitvVAC2DkVAkAtWDmPCQrjemJ4tBAp1d0Z/6gDy/P8s63iXdC8vXAUUfUCQC15eFW2F20gTceHnuChrctemDqCSLwDYiD1QZg7ivIMAgEzw7saZ4YyOd8aGumIWfNefl/K9u4wlXwCIaNTxzxsRBIwAICe0ZkaBVNRQjHkooBSBu7wNn0zeAfRRAIjpgyZ9wGqJVDCQC3rjW24SwEb8FUV3UoI9zP25s6H+Ibk4RHEA0ELD8+8R5bhHHxBkgumOazoRO0gbtdP4aFk/kFCnaWPYT+V7xf6P5i8dANRq9PzRhFAwAoBcYEfix8hmWC8Pq4ot6LOtgPA7Q91s41botZlvQMgFBbli5KEuySX4LXIVzMt9XfItPea2oa27hqoGsVP7rSNGgLq5wQkEMoFLxaqYY5YmHWQWm0H6oFyQvgExEMcZhaLBwOgDgiywcq+eBUC1j9iNcL2YPl61+WAP/9wACFwYxviXcyuvSojne4bTEACQBdZd6V7Q7VTo6AeNH+yd5eZdWuoconykCer4AjiWSAYHuWKJ3y7RbgxPBgP5ZqDtzqwDeLYnedIyiHEFqukV6DzBCQSywLptgkTQsCOQnwta7MzPxvxiy59/tSK2oUhFUGQCgVzRxvVUACK3weh0P00KL/QPY+JdCZHQAUSHIWuaiPgGAQBZoIuJXM1FFa3WRjN4Bbvjr/r6/XavLT8BMP+TC7mXxPJBMLtBIAAgC/TOt6qm47a2SIDZnefXjZAdQM8vCfsle/5JATCqExIrwkGmmO68VsQHFP0BSAv81A7gfDAC6GMEMFQAjL8bpBwhACAPyDRcdCMgTfkOKMAX+ZCHeZEA7wBMdCT1hokdGQcIAMgCywSCVct0RXDvAq2Aulp9IROAKQqANBa0b4gAYD0gyAMrD0vaBUvYBrdyXsXBP+W/BCsEZAtQ0jyEsrpAAEAWcD4YtSJO4Kh9x1sj+F7Acv4jsAaYfKCU44AQAJAJrACsEwpAYTa7+cSxCiDY89+cXJFSkE40EOAKAQBZ4JlMYLU2Ka3wtju3KqAADLXq/S83EggAABEFoKLDgIuEsdi0GUihG0TSYd2JSQRBJBDIglkAhPjHufietvvC55/uEIMAABAvqocKQB91Gvj1nV8v5oWkFgABAQC5wAtAl1gACstl/rARIHQCAAIAwH8uADT1jz//pAEYHc1cAVAEBLnwLwWALv4iCkAbgAtTJEUbCADIl7AAJMZsplPzqQKIeQJox5//pE5AASMQyIVwETA1ZveYnb9h6qado8ISo3XHWIExCwDygPcBfL59M2JMaCPKEIJsDiTEGwaCAIA8YZ2Arf4nobheHttKBBuAxACQBL2heQAYBwa5wM8C/JtU7IX/ZS0Z3dD5KNJjpvMagSAgV8LTgOkxC3cNuwGq7Vn6IjmmO64qZAKCTAnnASTHbNx9LEXYA9AfUygATQVGKCjIFjYRaEVWAybA7ty9+sQLJITq31MrAL8XoFwiFhzkgU2fCchjO317Ov9UAdq35ArAbwY6dhAAkAOmOzKpwOlrYF4+ttQLTDuBB+l1ERe6G5BbjordgCAH9Cb9XgC+A9gTJzCrAF+kSTyafKW7EftdAQEAOaC16xW1wjtfpMTLt5acf466Wu6lNkU6rLxzy1ENBABkgXV92uWgFG3lYU3Of1ABLq5IqACGW456c5gGBnlApmHJevDYGC2HlRLla4iq/tpN5OPEfANihgEhACATrPtKXoFVyjuw3bhLMA6I3xx6MslqEmb3WKua7CFFHgjIBCv3ipbe0jmBfLe5j/z5D1uCttQSFNEHgd2gIF+s/DJSK2Cq3WDay/M21P4XQgQNAQeZJhnIy0GJknx9+IBAJoSssLZIgLaflP9F2VSBv6nVanBJmgFeXhoqALABgFxgh2FUmnl4W7hhrUQwAPQUDAsXannpdgk+k3EnIgCqdxoCAPKA2Y9fiuaWog3gu+66rILP/+qrG8IKUI03H78QoBcT8+3vDiUAkAnacH3APr4TRlt5Po2lCB7wq7PysGrq8HTge/RCgJmOq4oIAJoAIB+8u9NGePxpGKPloQ26/+uqvjijvXwLLg0TQq2H2K5AywQileMAAfjG3rm2Kg4DYdgGJiExCSm0lWK1VEUFL1gQ/f//bDe697Ree3bP0vf5fmrOh5nMvMm8Ab3B+WmYDz8Ic3u7Szlj7Td+LzWHo3UWm7bDAJ0c7Fh9dPbT6QqngKA3+GOAj66ChaJzbbRpfwCwJCW++wTGpjVPzDbbLtsAMcyL8BpUNsyhAYK+IHI3CnWwjZUdFtoDW7WX/5Hho5/Hjo62RcxYqxCQVXagukt+60ACMPEEGiDoEcIW4V2YUXdH4cJRvkt4a1Cb+DffD0du05osGOPpIScnupMAwl/AqyCgTyg6xiz6MBFASlpPZpFpDek4W5L7wyuMR63tQjSbrEnKQXeTUMEtKCQA0CMclZoFu/LRum62/7Gdj/gt70/v/hu4Bc9+FQzYH38xKu3edWWHZCL4gYE+09QIM17IXHSy/S9ro1lr+6/1KQ82XCnsPOGm3SvQ1FtSsptnkUIJAG4goE80jsT7HkB2IP7bsk398xhuDnaomv6wSv1hwC0tcK/e7wDqmIUSAMwAQK9ocMWKGK/JvftdEW7/4YyPlM+bhjHGk+OZpOx6DCJiGpbgoGf4ieAGO87ze54AUtH+j+4/lP9Wraf6fm44jtozgPZFwPit4wBnD0GOYTybDtEBgD7htTAdlAB6Tu6d6n9vV5Mb27+f/vXy3y3nkFprE90oAk5LGqj3DJFZ8Cb5EWcAoGf4XthEXfqCqQFtjymPTHv7r2enwVjdfjpsd5UCWeNpgD8OmI9JybdeBAi1DwwCgJ4RjAO8OROjJOXzTN/a/g1P5jaXd44QAikwOA6YLOz+tT5ADIdFQwGQ5egAQM8Q022qQxmw2A/Ea0d/trpZ/fvyf7S4v3f76cAijm59h6fHLeVKvHgG+CcsPqEDAL0jPA/zzF5RAaQiu6qTm89+meD2TxuO3C0hwIuBOpsrEupFBQDXAAEYuMAZ9EVzYKnGdn1K+c3t3/DHx3rV9CIE3HxEeFaUU5JKPH8EEGSmuBjjUTDQO0QuM27Co8DnXggSvvhfHkdB8x+U/1Xg8HlTCBjdbANYxM2ksiSUeMoOvKHrifQcEiDoIappP2RR8oQkLpQku74X/pHR3uVfiaecxDdcm+hmCkg2laXhw5+V+bRoynijLfyAQQ+R5C/FNQTEmtyDtf+A7Coo/pvK/50l96SZaNAGhFKATwGCciUfS1b2xMOFsviIa8Cglyh7apABDS8cuYc2f5pWtQ//2/EfxdniecVOCrvIgjYgrAImpaNHxACh7Nz4z+FFEADaRgI9LJ4ocneiSeVkl/MiCXb/cPs3pzM58dKDQvWMm3spwGS7tfVlgLgtK9iy6XVCE9fwAgI9JbwN6GGMF0tSqlX2U2pI1lX1aMYjdjv+zUX9m6rXlre3ZagFhilAj+rKEQmlRGsyye38Gv+YAwIgeCUzMOOuLCklRUPwizHRcHH0m38Y/uFx3WZJSr4+W7SecG3u/AjTOikOqzFR7tcsmrqV4dFc/1M8CALAryqAaX6Vq15b2kunpBQeKaVyMiciu6yORaJ5FAZ/2P2/6+PjtcA0KAIay4C0OCycJZp+X7QPfSGlUnuyVaGbPsJ0Cisg0F+uM4Et923ramuJaDzN83y6p69Yt64Ok5HhgfDXZuKzfHt+X9B6ooMioKkM4DrJ6vnqfFl07m8oiEG+J7LbctJyS5FxPAgE+oyjHY9Y2yFbVu+q1XLrnDsvV4vycCpGifaV/wPhb3ScleHw/ita4KUIMNFNrmvi3KRFfSgXSze1RHbslov5KTMt5YqJ8RwA6DVCjIvYtD3cr3mUpKPMM0oTo7nWETNB9DdX/96+R8ku+hRp1xvz2xE+a88BWnPtF11MvlJko9RcMlbzIk2FKQDQa/64HhvkgEhrzb+ifeyHO3+7+DdZUSD+v2UzGPs+4C7sexb4hv6hVEIBBKC5Cbgxw/8b0UMwo72JNznZnVYh6XxK4sg8mH8eWrbhmUMDAHqOEHYTs6gzmPHV/5Zkxw+NTu1qon2q6gqjE4wBAyD35yw20cuEt3PrVYN9d0d247qrFMCiGaYAAbi4cafcdLT781mxsF786x4lSB5SLwV0kqn4CY+BAHC1Bkm06ST8tffpUB9UWAs3pPUp6SIFMP8WskD8A3B9MDfRpovdv8wD0+6u+4BVHaiBr8T/JJ/iCiAAF5wtE27elP5mxTwP/Dm6ILQffLMK8M8TuDEEQAB+ZoCUvxxTjOnYFKWkgfv4qlopsotNGmvG2Kvxzzduj/gH4NcLQYH9xmMww3jgzvWhSEkXF1LODHtlvVofLep/AH7l6sL3bESx6zz+aXXXn7PzRmB5yLRf8NMrjtO5HSD+AfgNt7e79Cl5jXnhL06K+dYGplwfjVR7u50XScyjIAfcmVEqVqSg/wPQNHk7ezQF+PKbx7PRcTGmvfoHG6p0U7KL02gW68iYh6XKdDfE/R8AWiZvy8ksvltXM8au0V+XZ6KB+kf1tFCC6FxuUh3z+yPKzO/+Sb2mHPIfAI0oSeNycqmrDWOsOfQN0zyOk6wut5Zy9ffL6dCcdDOKYq4j05YF2LVbSTcLSw7lPwBtqIGvqzPDuR/9N4b9gvHNgeYxT0abw2Joaa/+fTMtlBx7059TlmqfBCJjfs0D35atOU+y48qShPoHwD2/f1kdi3TG45jrr0TRN1uAmOtZmm0O1dkSDT9B9F8Q8pIDputdXaQzn6B8HmAX/ML9spPiVA2JFMIfgDuIi+33cF0dNkWWpkmSGJMkaZoVk3pXrc/W0lR+luj/hnRqQGTluprXkyxNEp8IvqJNkmaTU7mSloYKzT8AjyCUGxKRtd4LcFFV1WKxWp5zS3Rx3f1cwf8NIZ0ajv2ilTcwLOeeslqsLy6hw8+5aAA+KRdDbTGln0yHUikpP/MM3WXRMqcL9ivXjKUUBn8BeB4hpPqO/F+C6Lpod+U/WjcAAAAAAAAAAAAAAAAAAAAAAAAAAAAAAAAAAAAA8IU9OBAAAAAAAPJ/bQRVVVVVVVVVVVVVVVVVVVXYs5/WhGEwjuOBPFDhOQSSS5pTLzm0l8CkUHVu/nn/72lJq4jDOt3siPL7oCAYiBX9tkkBAAAAAAAAAAAAAOB+XJjLVM9o8TrMgG8ap3mK2QsBkBHWC7pKvE4DmAY/FoB6Dy5ASUlAASAnhjar7qL953y+XO+IaKEMi6enw3bfJWtSLMYVpenHLUk9dvb0Pa82ZARANhTV8prKd/WWSGl+dpraRiZeBc3jimD6cSuy/DBpdielnNVkeGIvEGv4N4pqJ2ejZDSr9jsKhvOkk5sGLtpK9se0J8WjUgDiOPeXAAgdCT455MfJZo0AQE6GAMgxhwg0n5ZUlj8spmghbjAEQMaHu7oI0KVJoUgBEL/CIlAU4ouTFIDD1AIgG8cANJe4UwN8m2UBWLfRlu8IQHx6G/R0ARClbSNbCgQAcncIgKtt+91us553Pp0z0//B7yi/rUBNra+q5o30PVcA/SJgugAoWjbxQ51vIh6XAAgAZOUYgA8KdIn96NL70kkfQnb3A82wteZJF7dfAQyHq3iqAFh6l9E72fMAOBnVCADk5Iu9s+lxVYfBMFItpVIWlpJNyqobFrBBoqpUKP3u//9Nt47TgTQww+lM7+3ck3d1prgQOPiJ7Xz0DoAdoHqU1oglwDXjjnP1fu8u96t/BIB5QSFAphfqdQBYURFx5X1flKdV27arM7wdRaP+ZnUA0MPugAhY2bh5uX67MWzOrP8sAmgzcu8D4EsBQLw0AxOBavV2eVTU36wAAIGkgRN5Dr/S76VnANDsg5GAVwOAhaTo/1FvJQ8AowTIbR1wA+82lf0ZAKxga4uaSaleCIB3xGVU1DMASISqbdhcvF0O8BwATi4JMDICIOov1wQAkFFLr3R6/X8AwAY0s4JGAiIAov5uTQRAPvvESGhEYwyimuKzaKymLTLUGp3xDwLAwIWTgIV6AgBC3+9Aif8AAIov//9Zoxn1fb0eAHvys3kzYKQ0KnCqEX2D0FaXcJcIrANP0zU4JaGxRsTSAQCttJwGgPq0dCMB8g8BoLG7W6j1oxtKhYgdAJAkZPfd7h705xVBOXxcaZTgVCK+WTwW9Qs1CQAazs53MPh+AgDra940TX49AYAe90JcAIC5Nlb5GW5CNe4CGgBOx9waH62xlsHqfsMAcBJyCgDwHtFcmQCTAaAQ6G53jdWebneB4eYKdwCwynujgCSdKRNkrL1SDW1JILAEKM97fiLUljioEPVvAqABfOynoL622bKYkYpl1RzH3kqJCpLrJcuK3kLjNSxQDnsAApxX1dJZF1nVrL1TS73L83zXUOuXu9zqWopJAEjQjQTUiZoMACmwhnW+yZZu7VSaZYd9Qm3qXYKasd/a7+9zqzU3Skr6e8cMk8mudyiUgiMdP9bCf4Bmt82WvEKjsI+vfLu5WVG/SxNTgJ1NAXLfSCJAXvH7SLKeuj2D1HLoHNBkc2ebOutlqwEHabGA66aw1umH8e3U4n5qVZrlzBeNU+I0AGiXBLSAUwEgtYLTga7Jd5DyvWQ5lFp2qwBmgXjyr5BlRqjiZUgaKjo0NhtJkfHMA64UCLCiT/mRMENbBB2DgKhXA8BAM5uHRgjr7Zzex/mMZV/M5QrqkAAI12rW2fI/aZVhUItnstRtQSZpd2bv1ASAjBzRIYWUTgeARGiIGAUlAZMAIHUJzdI5X/925xsELT8A0NtGgRUCwFVV57wqcQS4M3/qpVS6e4D9x5eDiASIenkEcLEAOHtGBnLyiLkN/m+i1cP25d9o0HLoMtY2LZbWesbWRR74oDRwzfgoWbOxOzUTwI8APjyyAhSTAEAN2nASINUUAJD/b10bZgXfAcGJ/q5MrTtQWhEYBiKA1AGAIhDCFx8LhbDlFmDP/9v7A/SfyAFUJEDUSwGgFmYZdlj8TfLRqr2ujT6d84tz28r4BJDUNVrb5WaV34yVOV1XFOITAY5k7Fsfl/x2Z4fd+XQz3rUVfZ9OXfLYnVjgZUOi1hcb1gp0Mg0AUsPaJQFGTgCAErBhd88uze540vq0ztvK3e59FFLDnpqxtc6dbVhX0EEEwEgdzlkYbrxkUd8/UdDy5YvN6rhGXB+bjaPvBVQcEYx6IQAkd2z+Knr54f/VHgDqclEDgGmWziUS5Xn0tSDb9HIGNi7J+kg+xcaB/3N8awCAjesdw6XrFiWQTt4ogJITAdAlAUdA+TUAEFp79WVj7B0suFE53+49V5eiHBoFSEIAaLimo+urkDOuTH5EJ9r5/3x7ts/PPr71obCP6fB+qzSjfo0mLQY6Fq4EgH2ftv5fNADKaEVCLOHETt323UqVmFnbHAANsrE2CHCgj71AuAuPZ1u0Y91sLAAu7AMfKYPWGuv7PIBuK/9pAOAkwMfPOAA07FJrfLJNcrdrBHBTOz8WWutuHoAmJckAAFRSV2OzhYQC/5iDFY12AGj3RBABjhU/kbfcrCnqV+hLAGhj3/KHGrtKoHI+rVF0Hxvg2La49uJ6hJUDiNEP8wIq9kEME+BZCyWq7swoXS+YoUtEhBAaHAC0Ejex6UQAdEkAyi8BwA3NFBjVN3VsdAhzjeoAIEghAEjOqIKw1ZpO2qeKhnNh/f8MqEX/f0Zzs0wdk4ConweAUEpTP8P+T7l6sDogB6P8bF+5jrWrrgkF99U3QbF/bwPhU6n6FfCU/U/7dQRtu+wZB9zfmQrMXw+TgHEAUArDSbmRj9HRIcjlw6nAIQC4NcPLKxBa/5waNs7/zePVObS6xCQg6tsAMPgoXd4zTbKgQNPrpLiEFo7gnayf5YCeS7seLQx2OYbtHEVmLjLXD86mS+MOqW8DgCS0YxUo8RUAQjdnuVw+g0RNB0CXgYS+ywmT9wAtqBi2MiRoMXvHZZpRv0V3AFxhQGadb5ZDo3UIF+c6arhkyN7iZQBcvfPlOtCm72uNv2lfeObiDPr7AOhGAugTOQYA/kRlDoEDBXsa3ctOtZ4MAG+BlftmOAkgU85SKagYFSYJZOASVx5GfR8A8237qMNlk/HQvpuv0+v3ul5eDg0aZg8p7GWWzucN4NcL54TLtjdDZxaKxtLJHL8NACaKlwSMA6A+FTSGj8HqQY4iUorO/xQAqtTDUwEQtt6eZRr2qd/Lh/WCqk7ebKuWqF8iB4BRud8FUYAyGKeqQKjBU7Z9BxAJZDT/p19C8Pt78kk/pE6vIS1cLHHT9mcAwLjxI5kQANyoOe89PNQkAkCxB5wOgPG8gmmz7CouXq4QIpGPvuNODVG/RHcAzFNPNOPVyjrcCRK/TgZVtzYokOaS2fb+Tkq1aldto+XwDtpciPe9IgMtBs98zG66lIn4EQBIWuXknFV+FgGc6Q7yAQAofhTpEwDgzpuDB5+J3vZrHG35Lh6at7EMGPXzEQARgALMZgFaBjPVivXw6JOSgg5nunSHZbcQdrgG0PYigOyT91mqUpmblHw6AvB3N5e2PsFlBRkCIFyc+ygtTfYcALgCGtp1cPVqBVUix5YN2CHaCICon/5psJQhQEerNaB8/M7o7/FoqCwfPo6juWlgZxuEB39XpdfdBZJiUd4kf2IUgNUlAWJ8FEBa7DyE4ILvYDd/CgBd/lNBIoKkvqs3IKyCEqCfMWSzlE4SpwJEfWMUoDkfH7TPm9WhclXAbA067LcNDsrAZXxukdJkopUNC9Y8st/2ursvfoFAkZKfAwDCufBGAgIAjN5BCTftiGBPACCY8u/nQAdAj6ZpPvKwjakrW4WMRYCoHx0GZC2uGw4CNr0XTHOduoFRrUJP43myiPJ+5nXe8op/BoA3P66e2J99HwDSfCQBKEMAhL7fbWpmjg0B8ukIgAdT/akAqnxIKYSsbbp1gjFxyhB/czDquz8Nph+EaDABXsfXn3+nBFeeV7t8RDt/IIuljE2l6/U+b9pN1i2n9SKAtnOJlwPAG2avQIsvAKCN9X087/Kb67t9kNLnAeDyh+UJtLf9KjfGr7fko6IYJP7mYNRr1gIIpBzUvpMLqe4xMlKnMy5r73uQ1FgDnHPym9TbUMMB4CEANv8aACRn3UQ4Iz8DACKAvjbbKus2IqAbeDIFYPZkfGX0RvX4k67VEx52BEDUaxYDScVJKKeqXd2Jeu5xuf15TO8ycFptinm3oxY7/zLzAKBh+y8BIEwCKI2WIwDgPQqvhyzt3QD/O1s+EwF4AU/VS/jXS66BeIOFXz1sQkYEwD/sXcuumzAQjdSRjOSFJc8GWLFhARskokg88ihJ/v+bajOkg6+BVqW0G5+7aHszGNvNHBjbcybgCAKg43KRezTtab+TvwJvTUkrHkZyeqPXsCpop4r5IqDQ0HCKwRb2bgOuBQErBCAxgXtTsiTXiDTLXzdDWekfEQDPJJ9tVtDRrRWb3H9nsgMBBBylB4CT49QfCySvi/J6G1dOkifxsJQUwcqs7h/XM+mCd84uAB5LAMva5lLRU5aCgMVtQGzlIzV9nxTBytyM4Hy+DWDQ/CEB8HipS3wIIL15BJDWv0ARdgECDlIEQsg5D59DgPIOCWyhEo6eDSmCGY2vS1yRgcbYI4DXPw0B+FWcdT18ApAIqp5ORefN+f0c1DRCVDE0fxoC8LZnDifBZyj5zDGHAGUMLWwhOQUEHEMAtDDFW826UvVn4VlsYH7ajiS+uif5zQlVHCsUo4zuf1sEZGgxpSAtE4CWVTMSWNrcYtI00+MItOnxnjcASn6m2ed9Qe4h97q8tCg2EFKBAo4hAH4+RvRiynJWHcRiC05+j902BIBRT4u91SeAK8fAy9Dc8n4C8IMAJV0CYFqKbEokVLFCzSPYRQDugEkMjZcE+Gwk/S4QQADh3xNA5+40IfRbSejLS2xpAVqh33TkHwTiaMOHtpD7CcCFjDkIEEwAriJXHoNSeun1aAcBzMVBFRScH8jXjQRwDzF+wIT/TgDTUeB+/RK0EJxLS/6g5VLTRADcG34GLkCAxV4CWKnFQ0GA+wbAT+ny+5KAJ+4hAE5I7kCNZEKhFbrJCpvpflKgQWCHgAMJoBhPm3Rf3DSXyZrbfRYB2X3ySuqtbEAnGT5a6w3CKzcoAHcTwLK4lo1rKiaAuaThC2LpN3qq6j0EwNIKiioweuWCFLXWgFpLj6LJDkFAwGEEcGMCmFypZM2KBej33YBKXyqovbB+Mx14zZpWH8bqeLfdBLAVBAiXALC9cM7OUjLeHgKgoz8kSjS5+gPUUpGAYTn3WlTD3WIIDBDwrwhAnFjmd7nJMi3TadcAIef8dt+h+f2W9bBYS8Br+T5qc112E8BWEKCZAHgjjuuieaKgewiARkxToKF2aXV++/UqYueoLKNaVSEdOOAoArh/c3en1MpaHSe5GVCKvRZEAMW6+7gEcI+mmFiy3bI67/6TgL5GOQUBTACOqLH2L6Ie7SIAaj6vkO5fA341qDdiABz11oIweMBxBMAa4OymnD+zeHKQpX4FbhBADD3rATjP4Ry0XquZFxV/QxNwlV6yof1CAO816W2Jlcz2EACNYToKAC83D8hNEEzfy2WUb2nQBAw4mAAuGQen86dSRkJBC3E9r2UpyFeeuzKGW8oEMFty/0YqfSthel6dxBEEoBOcFiCYAKbhr4QAgqRPdhEAHwWgPCCSCfdUQkm51Ctl/hFRDv4fcBABcGm/nk1wqgzagFDS92qW2OESfN4J/NNUc8wlAF3R171cqsLzLplLXAIQOwjADwLyOQHoRNIqhtchOsm8RgDXTQLwRcDiwpdC4ICLGnQZQIrpVuk9RAABhxGA4Gw5Z+mKcv4hFm4lwWfG6wOzN9ibu2KolYKndQkmAF71prcLrw6f5QuqmOERwGk/AXChr7K0nSICYArL28ohO1QVdGbuqOzhEgGoDQLwg/yiWdlr0BLMpWPPtdN1pP+8IAkacBgBsAe4L9pIG/ZjCV9UWgtSyYxbuGcfj5Bsaa8eIEatT5OhBCgyq6ifEgEIrR0RPHPBG6oY6ZZaq9PIF1yNZH5uIBsSHK12EQC/6xg4BFBM1dHb+DNSrVQLp4c1/azRCy2YwkZzRaabBMD2me1dXUm98mZi5uQKoHiyFUBHRUNDZbCAIwkgJgKYV8aR43VUxB8AEo2kkjk87G+55C6/wVqHhkoaO5QtQHVrTHqtubokUWtsQXDBLqpGekVKHEKdALRdNskS4FIdvVgpTFq5gwB4TS1yCUDLqiayi6k/pAc6dCRm0n9WPKFyz0kBKGtabRMAC6ysd07BldKp6jtAm2il8FQBPBt6/QjlwQOOIwBeHnd3qBV05OtRfX5qsIjfj5y+qC9AMY8gyKH7eyzBoBru1zyyhnU8lPaTN8DwrDgzJ58Kkj2+qwoM8Dl6G606uAn1dG7gOxjIi0p2EQBtYfIbgJMqZLOZz8+4BQN1KfrMEpjhoweFR9A+BxoBnegzkyDHSRmSLQLgm0bRVCfZh/iZUF023TA22w63vhwnO+qC/wccSgAIt5Q39mYMUJKffhsFMvo6K6e0/x5OWs53ESaHTsvc2DV5WRJPNJ/61lnflCwgNK4O0BVlVtMV078bqFC6xQWJXJrHq8+zJ+A+AiBVXocAqJB49LM/L9OfrEzHEZRnmOoq5K+6nOZQCKA2zGBfNK51AuDqf3TPlYIomhjAGpV583r19adsYxS0gAJ2EkBkfu6A21n3aUrlqpxMNiuTMRfJGv+edSDI/9mhR8PRjpBS8NDaZbeUPmhA8QWX3ny/vZbLs/V/b4vyZ2mj8lcEwKVFPXBoE9kepfbsv0t2fn+a76atKqcRUAYDBz2fTs0IIPUIgEutpZFBYWzXGKDIx8mezeE4iTfAcAg4YA8BfOPj9R5Yucri7BopgC6z33wSyZzeBoxXoJZfvKq6lqMh22VXBRpt/Dt+QI7CF9iKG1+uSJs3aPZ/VhshqyhdzU7gDAYDWp3fDAIsXFFQy2GRM1Ja/VB0ks98MptDXZ1qVg6tQU0nnOzsuATA/EICoxTfrGiz4qP8OtnZIzathwAg4I+B8G7qujZeq7ec4lZbPEAIx/s0DF2T8UOpzF/fAWL+SrKm5vdHzs/PrO4uUCkhJcKzyUwokeUd4OwCBbroc245zY37gxLel50ejWRTX7YIoBoaVs/bet1paosOlEt2xWykUd7fFChrgdDlWWTDoCfoj4RgbAiPUJI0opDJyzTax0sZlHYS6JYbXVMVPM91NhdVvZpJDO//AXsgNYxotdwwQiB8MZJCtQAXW0OsqZvHtXu3AIhs5Khq61v36Ov6de6KCwAoLaemh3dxu3xtXCUAemr5de3uCQCqhZZPCFicX3V/7u5iOyUu4UFsTUgFBGccErUd6fllB3rubgn89D0EeN6Kd8xzKLGC7921MZbFE5wcabl8z9a75fIcmma7q2GS3vTh+ziJ4fEfsJMBlMUvvAJjYxOjb2SuhhlOai0iRZUAQyl0SoYs8IZGVQFDrrbMZslpG8oC5e9MiD9YgQoYiUL9c2gaDCqlpeusBFYPi83P+j3plptAd7JRhe3/gP8PqpWJ4x96w05bM7JDr4FF79a/1bLUZEQ2RwJXuiP45nNb9Aa2H8iTGBb/AgICAgICAgICAgICAgICAgICAn6wBwcCAAAAAED+r42gqqqqqqqqqqqqqqqqqqqqqqqqqqqqqqqqqqqqqqq0B4cEAAAAAIL+v/aEEQAAAAAAAAAAAAAAAAAAAAAAAAAAAAAAAAAAAAAAAAAAAAAAYBDRrwQGf5FtpAAAAABJRU5ErkJggg==;" vertex="1" parent="1"><mxGeometry x="90" y="140" width="196.35" height="121" as="geometry"/></mxCell><mxCell id="8" style="edgeStyle=orthogonalEdgeStyle;rounded=0;orthogonalLoop=1;jettySize=auto;html=1;entryX=0.418;entryY=1.008;entryDx=0;entryDy=0;entryPerimeter=0;" edge="1" parent="1" source="4" target="3"><mxGeometry relative="1" as="geometry"><Array as="points"><mxPoint x="611" y="310"/><mxPoint x="172" y="310"/></Array></mxGeometry></mxCell><mxCell id="4" value="" style="shape=image;verticalLabelPosition=bottom;labelBackgroundColor=#ffffff;verticalAlign=top;aspect=fixed;imageAspect=0;image=data:image/png,iVBORw0KGgoAAAANSUhEUgAABQAAAAKACAYAAADD89WhAAAABHNCSVQICAgIfAhkiAAAAAlwSFlzAAAOxAAADsQBlSsOGwAAABl0RVh0U29mdHdhcmUAd3d3Lmlua3NjYXBlLm9yZ5vuPBoAACAASURBVHic7N15fFxV/f/xz7l3su97k6ZJ06ZNm6bp3kLZFMq+iAjigoJFwV1Rf+67fv1+Xb5fVBARBIsCIrIIyNIChQIt3ds0a9MmabZm3/dk5p7fHwhCLdDlzsydO6/nXwoP7pzM3OWc9/2cc5TWelIAAAAAAAAAuJIR7AYAAAAAAAAA8B8CQAAAAAAAAMDFCAABAAAAAAAAFyMABAAAAAAAAFyMABAAAAAAAABwMQJAAAAAAAAAwMUIAAEAAAAAAAAXIwAEAAAAAAAAXIwAEAAAAAAAAHAxAkAAAAAAAADAxQgAAQAAAAAAABcjAAQAAAAAAABcjAAQAAAAAAAAcDECQAAAAAAAAMDFCAABAAAAAAAAFyMABAAAAAAAAFyMABAAAAAAAABwMQJAAAAAAAAAwMUIAAEAAAAAAAAXIwAEAAAAAAAAXIwAEAAAAAAAAHAxAkAAAAAAAADAxQgAAQAAAAAAABcjAAQAAAAAAABcjAAQAAAAAAAAcDECQAAAAAAAAMDFCAABAAAAAAAAFyMABAAAAAAAAFyMABAAAAAAAABwMQJAAAAAAAAAwMUIAAEAAAAAAAAXIwAEAAAAAAAAXIwAEAAAAAAAAHAxAkAAAAAAAADAxQgAAQAAAAAAABcjAAQAAAAAAABcjAAQAAAAAAAAcDECQAAAAAAAAMDFCAABAAAAAAAAFyMABAAAAAAAAFyMABAAAAAAAABwMQJAAAAAAAAAwMUIAAEAAAAAAAAXIwAEAAAAAAAAXIwAEAAAAAAAAHAxAkAAAAAAAADAxQgAAQAAAAAAABcjAAQAAAAAAABcjAAQAAAAAAAAcDECQAAAAAAAAMDFCAABAAAAAAAAFyMABAAAAAAAAFyMABAAAAAAAABwMQJAAAAAAAAAwMUIAAEAAAAAAAAXIwAEAAAAAAAAXIwAEAAAAAAAAHAxAkAAAAAAAADAxQgAAQAAAAAAABcjAAQAAAAAAABcjAAQAAAAAAAAcDECQAAAAAAAAMDFCAABAAAAAAAAFyMABAAAAAAAAFyMABAAAAAAAABwMQJAAAAAAAAAwMUIAAEAAAAAAAAXIwAEAAAAAAAAXIwAEAAAAAAAAHAxAkAAAAAAAADAxQgAAQAAAAAAABcjAAQAAAAAAABcjAAQAAAAAAAAcDECQAAAAAAAAMDFCAABAAAAAAAAFyMABAAAAAAAAFyMABAAAAAAAABwMQJAAAAAAAAAwMUIAAEAAAAAAAAXIwAEAAAAAAAAXIwAEAAAAAAAAHAxAkAAAAAAAADAxQgAAQAAAAAAABcjAAQAAAAAAABcjAAQAAAAAAAAcDECQAAAAAAAAMDFCAABAAAAAAAAFyMABAAAAAAAAFyMABAAAAAAAABwMQJAAAAAAAAAwMUIAAEAAAAAAAAXIwAEAAAAAAAAXIwAEAAAAAAAAHAxAkAAAAAAAADAxQgAAQAAAAAAABcjAAQAAAAAAABcjAAQAAAAAAAAcDECQAAAAAAAAMDFCAABAAAAAAAAFyMABAAAAAAAAFyMABAAAAAAAABwMQJAAAAAAAAAwMUIAAEAAAAAAAAXIwAEAAAAAAAAXIwAEAAAAAAAAHAxAkAAAAAAAADAxQgAAQAAAAAAABcjAAQAAAAAAABcjAAQAAAAAAAAcDECQAAAAAAAAMDFCAABAAAAAAAAFyMABAAAAAAAAFyMABAAAAAAAABwMQJAAAAAAAAAwMUIAAEAAAAAAAAXIwAEAAAAAAAAXIwAEAAAAAAAAHAxAkAAAAAAAADAxQgAAQAAAAAAABcjAAQAAAAAAABcjAAQAAAAAAAAcDECQAAAAAAAAMDFCAABAAAAAAAAFyMABAAAAAAAAFyMABAAAAAAAABwMQJAAAAAAAAAwMUIAAEAAAAAAAAXIwAEAAAAAAAAXIwAEAAAAAAAAHAxAkAAAAAAAADAxQgAAQAAAAAAABcjAAQAAAAAAABczBPsBgA4eX0T49I9Ma4GJ8ZlYHJCLG2JpbUMTk0pEZF4j0d7jNfy/pSoGImPjJK0qGidFh0jKqgtBwAAAAAA/kYACISAxuFBVdHTKfWDA+rQ0IA6NNgvjSNDqn1kVHrGR5RP6xM6rqGUpEbH6syYWJkZn6ALEpMkPz5JFySlSElahi6IT9SGIiIEAAAAACCUKa31ZLAbAeDfDg72q1fbW9T2zsOqvLdHVfZ0qYHJiaC0JT4iUuanpuvS1HS9PHOaPnVarp6fnKaJBAEAAAAACB0EgECQHRjsV+sb69SLrU1qa2e76hwbdnS+lhoVI6dkZVtnZM/Q5+fN0iWp6SdWfggAAAAAAAKCABAIMK9lycbWQ+rJxjpjfXOjqh/sc3Tg926mxyXq8/Py9UV5hfq8GTOtaJOVBQAAAAAAcBICQCAALK1lS3ureri+xvh73QHHV/mdqFhPhLwnZ4Z1TVGJvmxmoRVpmMFuEgAAAAAAYY8AEPCjuqEB9afqfcY9+ytUx6g7Q7+3kxoVIx+ZO9+6fv5ia0FKGtOEAQAAAAAIEgJAwGY+reXRhlrjzuoy48WWRkXyJXLKtOn6k/NLratnz7eiTKoCAQAAAAAIJAJAwCbDU5Py14NVxs1lu4yDA71hVe13rDJi4vSNxYusz5UstdKiY4LdHAAAAAAAwgIBIHCSeifG5df7dpq3V+4x+ifGg92ckBAXESGfmLfQ+vriU3zTYuOC3RwAAAAAAFyNABA4QcNTk3JbxW7jV2U7TIK/ExNlmnLN3AXWD5afThAIAACAsDDh80n/5LgMT00pEZHhqSmZsnwiIjI0NSneN/73lPJaloiIpERFaRERj2FKQkSkiIhEmx6J8XgkLSpGJ0dFBf4PARBSCACB4zRp+eTW8l3GL/fuMHvGR4PdHFdIiIiUL5Uu931t8Uor1hMR7OYAAAAA78intXSPj0r3+JjqHhuTnokx1TU2Ir3j49I/Oan6JsZkYGJC+icn1MDkhPRPTMjA5LgamJyQMa/X9vZEGIakRcdIWnSsTouOlvSoGJ0ZGyt58Ym6MClVZicl6zlJKfr18BBA+CEABI7Dcy0N6itbXjRr+rpZ488PsmMT9HeXn2JdP2+RZSi+4lD33e0vm0831fNDBshl+bOtH6w43Qp2OwAA/8mntVz05N893eNjthzPVEqeuvgqbzprKvvVwOSEVPZ1q6rebnVoaFA1DvbLoeFB1Tg0KG2jw29U54WSrJg4mZWUrOcmpegl6Vl6RVa2XpqepaNNT7Cb5igXPvl3T+eYvcUea4sWWp9buDT0Thq4Blc5cAwODParL778rPl8yyHCDD9qGx1Sn3vpWfPP+6uMW88417coLYNNlEPYocF+2d3VzjUTIItSM/iuAcCh/l5XY2xobrD1Pv3b8l3mj1ec7rPzmOGseXhQvdpxWG3rOKzKe7tVVV+3tA4Pue7Z2jE2Ih1jI+rV9lZ1z/4KEXmtenBhWqZemTlNr8zM1mfk5OnCxOSw7oeX93bZ/vtfkFfguvMJoYUAEHgHXsuS2yp2Gz/Y+Yo5MjUV7OaEjW0drerUR/7subF4kfXTlWf54iKYFgwACD+DkxOSGMm6Xm7wi73bDLuPeVvFbuPri1f64pnSeVI+tOEx86X2FtU2Mhy24cyUZcnurna1u6td3V65V0REipLT9MX5s/RF+bOtM7JzdaRhBrmVAE4WASDwNvZ0d6hPbXrG3NfdGbadgWDyWpb8rmKPsb65Ud1+5nm+M3NmhPVbSACAe437vFLZ26MqejtVZV+3Ku/pVpW93dI5NqLGb/gabyBD3PrmerWnq8P2/mTP+JjcWVVm3LRoBVMKT8ITjXXGqJfL7Ej7+3vU/v4e9X9lO4zEyChZMz3fuqpwnn5/wVwryiQMBEIRASBwBC0it+zbaXx720vmpMWsimA7ONCrzn3iAc9nS5ZYPz/1vT7ePgIAQpXXsqRxeFBV9narqt4uqeztVru6O1Vtf4/y6f98z8Ug2x3+Z882v/2Q/7tvh/G5hUst+kfwp8HJCXmkodZ4pKFWkqOizKtmz7M+vWCJtTQ9ixf0QAghAATepGVkSF238SnzpcNNVP05iBaR31XsMV443KL+cvYlvoVp6XQ2AACOpUWkfrBfVfZ2q4qeLinv7VJVfT2qpq9H8XIxvGzvbFMvtvqvX9k6PKTuP1BlXFe0kCpABET/xITcWVVm3FlVZizPzNY3FJda1xYtJIQGQgABIPAvTzQeVNe/8LSnf2I82E0JqNmJKbpusC8kAs+q3i51xj/u9dxyxhrfx+aW0NEFADjKX2orjFvKdxvVfT1qeGoy2M2BA/x891bb1/470i/2bDeuLVpohURnDq6ys7NN7exsM3+y81Xj28tOsdbOKyUIBBzM7w8kwOm0iPxiz1bjqvX/CLvwT0Tk+ytOC6kgbdQ7Jde/8LT5mZfWM0UbAOAoe7o71I7ONsI/iIhITX+v+sehA34fb1X3davHDx1kXIegaR4eVJ/ZtMEsvO8Oz6/LdhjjPm+wmwTgKHhQIKz1TozLpU8/7Pnu9pdN6yhr77jdKdOm6/NnFIRUAPi6u6r3Gec8/jfP4dHw3bENAAA416/2bDMC1b/8+R7/VxoC76Z5eFDdtGWjueCBuzwbWhroowMOw4MCYat+aECd+Y/7PRua6sP24fTD5aeFdAndto5WdcrD95q7/bCzHgAAwIlqHx2R+w5UBWys9Wp7q3qprYX+EByhfrBfnf/Eg56r1v/D7B4fC3ZzAPwLASDC0raOw+qMR+8za/t7wrajdFp2rj57en7Ilz22jw6pNU884Pln48Gw/S0BAICz/KpsmxnoaZA/37OVxdfgKA/V7zeK7r8j4g9Ve8gdAAfgQkTYeaSh1jjvn3/zdI2NhHVg9NOVZ4R09d+bDU9Nygc3POb5Y3UZ9zQAABBUA5MT8seqfQHvkzzVWKf2dHeGdf8WztM7MS6f3rTBvPzph82+MFxvHXASBssIK389WG1c89wT5pg3vBemPS9vlj5tWm7IV/+9mdey5LMvbTB/umsL9zUAABA0t5bvMgYmJ4Ly2f+7dxv9IDjSY4cOGksfWufZ2dVOSA0ECQ8IhI07qvcan9j4pOm1QnLPC1t9b+mprqn+O9KPd242v73tZabAAACAgBv3eeXWit1B64c8cLDaODjYT8ACRzo0OKDOePQ+TyDXxwTwb1x4CAs3l+0wvvDSs2G50++RLs6bZa3KynH1F/GrvVuNb2zdRAgIAAAC6u7qfUb76EjQPt+ntfxm3w7GeHCscZ9XPvbcE+bNZZynQKBx0cH1bqvYbXxj64umqxOvY6RE5AcrzgiLEsiby7YbP9ixmRAQAAAEhE9r+b99O4M+vrq7utzoGhsNdjOAt6VF5CtbNpq8sAcCK+gPKMCf/lxbYXxly0YeLP9yRcFca3F6Zthkof+9e4vxP7u3cp8DAAB+92BdjVE30Bf06bej3im5JYjTkIFj9Ys9W43/Yv1uIGA8wW4A4C9/r99v3PjiM0z7/RdTKfneytPDovrvzb6/42UzITJSPleyNOz+dgAAEDj/u3e7Y4KM31fsNr615BRfjIfhXjBFGIYkRkZJYmSUTo6KksSIKEmIiNCJEZESFxkpIiJxERESabz1d0rwRGiP8dYsOdr0yLjv3xsZ9k9OqnHflAxMTMjA5IT0T06qjrERaR8ZVr0htNvu97a/bKbHxMiNxUvoqwN+xhMBrvRyW4tau/FJ00f494arZ8+zipPTwvIL+eqWjWZOXIK8v2AOHYsQlxOXoK+ZuyAsz+N3szxjGt8LAATJy20tapeDdjftHh+TP9eWG4QqwfHjFaf7vrZ4lRWsAHbc55XWkWFVP9gntX19av9Aj9rf36f2dneoTodND9ci8vmXnzMLk1L1OdPz6csAfkQACNepGxpQVz/7uDnhc+1Gt8fNVEq+tfy0sO0AWlrLdRv/aU675IP61KzpdCxC2MyEJPn5KWdxcQMAHOXmMudU/73u1/t2GTcUL7Eck0qGkRiPR4JZfRltemR2YrKenZgs5+YWvKXv2zA0oLZ1HFZb2lvUk431qt4Bu0Z7LUs+tOExz84rr/PmJyTSVwf8xHEPKuBkdI2NykVPPGh2j40E/UHmJB8rWmAVJaWE9cN0zOuVq9Y/bjYMDXJuAAAA29QPDqjHDx103Liqpq9HPdNUR78Hb1GQkKQ/VDjf+u3p5/rqPnqjd9/Va70/WXGGryjIM4W6x8fko88/wQwuwI8c96ACTpTXsuRDzz3uaRgK/lssJ4kwDPnW0vCt/nuzzrFhdcX6R8yRqalgNwUAALjEb8t3GE4NLW7et4vNQPCOFqZm6O8uX21Vf/iT3mcv/ZD3/QVzLI8RnJhgc1uL+p/dr5JRAH7CxQXX+Oa2TebLh5sJ/46wdv5Cq4BS+jdU9nSpGzc9Q2cYAACctKGpSVlXU+HYMdWzzQ2qrKeL/jHelRKRNbn5+pELrvBVXH2998pZRUGZPv7jnVvMmv5ezlnADxz7sAKOx9/qaozf7tvJ+XyEaNMj31yymuq/IzxYV2PcUr6L8wUAAJyUOyv3GgOTE8Fuxju6hT4yjlNRcqr++/mX+1654hrvyqycgBYSTFo++eIrz/GyHvADHgYIefsH+tSnqeg6qk8VL7Kmx8VT/XcU39z6ormt4zBvFwEAwAnxaS23VO62dTzlj40j7j9YZXQ5bOdXhIbVWdP1lvdf47159dm++IjIgH3us80N6inWrwRsRwCIkOa1LFn7wlOs6XYUcRER8vUlq9gt9W1MWZZ87PknzUGHv7UHAADO9GhDrXFocMC2kEKJyP1rLvOZyt7cY8zrld9X7mHchxNiKiVfXrTC2nf12oBWA353+8smVQyAvXgQIKT9YMdmcwdVXEf12QXLrKyYuGA3w9EODfWrr2x+nupRAABw3H5t89Ta8/Nm6csL5liXzSy0ffmW31fuMSd8vBfGiStISNIvXvZh71WzigKyvNCerg71hAN31wZCGRcUQtZLh5vV/5Zt4xw+isTIKPnKouX08o7Bn2srjYfrazmPAADAMdve2aY2t7XY+hL6a4tX+kREblq00vaApX10RP56sIr+Dk5KjMcjfzv/ct9XFq0ISAhod8gOhDsuKISkMa9Xbti03rQ0heFH88WFy3xp0THBbkbI+MLLz5qsjQMAAI7Vr8t22DqOWpoxTZ8zPV+LiJyRnauXZ2bb3sklTIEdlIj8avXZvuuKSvweAr7Q2qjKe9nFGrALDwGEpB/v2mLWD/bxMDiK5Kho+cLCZez8exy6x0flG6++wFRgAADwrlqGh9RD9fttHUd9bfFbq/5uKl1ue1+urLtTbWxtov+Mk6ZE5I73XOi7IG+W36sx1tWUk1kANuFiQsgp6+lSv91n71tXN7mpdLkvJSo62M0IOfceqDI2NNfTKQYAAO/o1ordxpRlXz6Xn5Ckj1xX7arZ86zc+ETbw5Wby7bTh4YtIgxD7l9zqTc7Lt6vIeBfD1QbPmZ9AbbgAYCQYmktN2x6xrSz0+Um6TFxmuq/E/eFl583x33eYDcDAAA41Kh3Sv5YXWbrGOorpcstj/HWQ0YYhnx+wRLb+3RPNtYZ1f09vPCELVKiouWOs87367rjbaPDsrm9lXMWsAEBIELKuv3lxp6udh4Ab+Nri5Zb8RGRwW5GyGoY6le/LmN9HAAAcHTrasqNnvEx246XGhUt189fdNSg74YFi23v12kRubV8F30d2OaS/EL9sbkL/FqA8MShA5yzgA24kBAyhqYm5Yc7tnDOvo1psQn60354UxxufrF3m9k2OhLsZgAAAIfRIvIbm8OzGxYstuIiIo7671KiouVjRcW29+3u2V9h9E2M231YhLGfrjrTijL9t5z2U00s0wPYgTAFIeNnu7ea7aND3PzfxjeWrLRiPUfvQOLYDU9Nyne3bWJDEAAA8BZPN9Wp2v5e2/qiEYYhn1uw9B0Dvs+XLLfs7vyOTE3JXTZPY0Z4y4tP1J+Yt9BvhQjVvd2qa2zUX4cHwoYn2A0AjkXb6IjcVsF0hbeTG5eoP/k200dw/O47UGV8sXSFtSgtgxWHARv1TYxL78S46p+YkL6JcemfHFd9E2Ni/Wtx77Epr7y+DmeU6ZHYCI9Emx6J8URIjMejEyKiJCcuXvLiE3S0SRcmmMa8Xjk8OqzaR0ekc2xUjXmnZGhqQkRE+sZfqyyKNj0SE/Ha7xdteiQhIkLnxidKTmy8TouOCWbzgRNya/keW18QfmBWkZUbn/COfY3ilDT93tx8vbGl0dYc8PeVe42vLFppGYp367DHd5autu6uLjcmLfuXBNQisrm91bi8YA7jHeAk0HtGSPjprs3mmJfNGd7Ot5ed4tey+3BjaS0/2fGK8dAF7/frosaA2wxMTkhVX4+q7O1SBwf6VcvwoDSNDKnW4SFpHRlSEz77LqmsmDiZHp+gZ8TF69L0LFmROc1alZmjM2NibfsMiBweGVY7u9pVZW+XVPV2q8r+HlU30K8GJydO6rjRpkey4+L19Lh4yY9P1HkJSTIjLl7nJSbq+ckZUpCYpIkl4CS1A31qfbO90xC/VLr8mMKMz5cssza2NNra0asf7FdPNdWpS/ILedkJW+TGJ+j3TM/TG5ob/HL73tHVpi4vmOOPQwNhgwAQjtc0PKTuqamg+u9t5MUn6Y8XlfA2zGZPNB40dnS2WSsys+kYA0eYtHxS1dej9vV0qn09naqsu0tV9/dI63DglmnoGBuRjrERtbtL1GOHDor8a1mTvIREvSojW180c7Z+38w5VkpUdKCa5Aq9E+OyvrnBeLG1Ub14uNnW6Y5vNu7zSsNgv2oY7JdXRP7jMxIjo2RBarpemJquF6Vl6tL0TF2amqETI6P80RzgXd1Wsct4vVrZDquycvQpWTnHdMDLZhZaeQmJRtPQoK3X460Ve8xL8gt5ww7bvH/WHGtDc4NfqhIqerr8cVggrBAAwvF+suMVv5SSu8X3V6y2Ig2q/+ymReSnu7YYj134AU4+hL2m4UH1SluLerWjVb3afljt6+lUU5Yz3zs0DQ2qpqFB9ff6/RJpmOZ7c/P1B2bNsT4wa56VShh4VIOTE/JoQ63xt4P7jedaGhzx2w5OTsir7a3q1fbWNwIPJSIzE5P1qsxsfWZ2rj5rer4uTklz9Usar2XJDZueCZmH/JWzi6zzcgtc95sMT03KOptfRh9r9Z+IiKmUfKZ4sfWtbS/Zei4829ygagf61NykFNf9ZgiOy2fOtT730rOmnWH568p7uykMB04SASAc7fDosPrrwWqq/97G7MQU/ZFC+3eHw2uebqo39nZ3WovTM+kYI6z4tJbnWw+pJxvrjGeaGvxWBeZvk5ZP1jfVq/VN9eaXXnne/HDhfOtzC5dZS9OzuKZFpKa/V/1f2Xbj3tpKIxSW2dAir1cNqgcOVouISHZsvFw8c5Z12cw51prpM3WMx11dW5/WcmdV6GzWMCcxRbsxALynpsIYOMlp7282PT5BXzmr6Lj6b58sXmz9eNcWW5fEsbSW2yp2Gb8+bQ0vO2GLabFxUpKaoff1dNreb2gaGlBeyxKPETK3RMBx3NVLguv8dt9uqv/ewQ9Xnm7xEPSv3+zbYfzp7Is5CRE2frbrVePWyt1G28hwSIZ+b2fM65W7a8qNu2vKjVOnTddfX7zKCtfFxLd1tqmf7txsPNVUb+uUxmBoGx2WP1btM/5Ytc+I9UTImtx867vLT7NWZEwL7T8MjqFF5NbK3bZ2tj5bvMSKOM7+W3p0jFw9e561br+9lYjraiqMn6480xcfEWnnYRHGFqam+yUA9GktzSNDqiAhifs7cIJIDuBYQ1OTcndN6Lz1DrT5qen6quN8e4zj92BdjdEyErh1zYBge7b1kOvCvyO92t6q3v/MI+bZjz/g2euHQYpTHR4ZVh9//p/mqQ//2fPPxrqQD/+ONOqdkscPHTS6x0aC3RS4yHMtDaqmr8e2+0SMxyM3Llh8Qv23zy889mnDx2pgckL+YnOoiPBWkprut4dL8/CQvw4NhAVu9nCsu6v3Gf0T48FuhmP9aMXplqHCZtwaNFOWJb+r2MO9EmFjThitBfVCa6Na/vd1nhs2PWPaOb3PaSyt5Zd7thlFf73T85faSsPNP7ASkZWZx7axAnAsbtm3y9Y+wIdmz7fSomNO6L9dlpGl/bE52e8q99LPgW1K0jL8dg8emGRsCJwMbvZwrD/W7OP8fBuLM7L0+2aG59S1YFhXU25M+JgFjPBQmJgcVuHJ62uslT54t2d7Z5vr3qp0jI3IRU895Pn61hfN4anJYDfH72YnpegTDVeAIzUMDainmurtnf67cOlJ9d9uXLDI9v5fZW+X2tja5Lr7H4JjRnyS3449PDXFeQqcBAIWONKmw81qv43TLdzmh8tX+/hyAqdnfFQebzzI/RJhYU5yWrCbEBRNQ4PqrH/c77mz2j2VMM8016uSB+6KWN9UHzaPDNb+g51uLd9l+GycKr8qK0cvP8lz9MOFxVZyVJRdTXrD78rtrXRE+Erw43qSw1PurdYHAoEbPRzprir3DMDstiwzW1+YV8gAJ8DuqqYiFeGhMCm8KgDfbNznlRteXG9+Y+smM9htOVm3V+0xLn3qYU/3+FiwmxJQK/0wPRLhadQ7JX+qKbe3+q9kyUlX78V6IuSauQtsrwJ8vPGg0Tw8GDYvC+A/SZGRfrsPD09O+evQQFhgQAvH6Z0Yl38cotrq7fxkxWlU/wXBCy2HVP3QAF89XK8wMUWH+/qiv9iz1fjO9pdCMgTUIvKNrZvMz2zaYHqt8FspYtW06QSAsMVfaiuMPhvXos6IiZWrZ8+35aK8sfjkg8QjeS1Lfs9agLBBQqQ/KwDdv5QF4E/c5OE4j9TvN8Z93mA3w5FWZ+fqNbkFDG6CQIvIA7VV4Z2KICzEeDySE5cQ9veZn+161fj+UqYr5wAAIABJREFUjldCLgT8xtYXzF/s2RqW/btIw5Ql6Zlhf+7CHrfavAHY2nmlVpRpzy2lJDVdn5ada/u5/sfqMtY8xkmLMEzxV4d5zEcdBHAywrKDCGd7qL6W8/Jt/Gj56fTKgujvDfs5NxEWCpOSg90ER/jJzs3GHSG0JMUt5buMX+7ZHjLttVtpeqaONj3BbgZcYGNrk6ro6bItaDCVkhsXLLa1au/GYvs3A+kaG5UHDlaF7T0E9hiZmhR/vYmJMDg9gZPBFQRH6RoblZcOswvZ0Zw7o0CflTODyoYgquzpUlX9bE4D95uTlMK95l+++Mpz5ub2Vsdf9w/V7ze+9MpzIVexaKcVmVmct7DFreU7bR0jXZQ3yypISLL1/Lxq9jzLHzte/87mykeEn+Ep/63TF6EM7vPASeAGD0d59FCtEY5rFh2L7y9bTfWfAzx0sMbxQQBwsgoTw3cjkCNN+Hxy5fpHPS3DQ4699puGB9UNLz5jhvuPtjIzJ9y/AtigaXhQPW7zWtSfXbjU9s5ttOmRjxfZvxnIjs42ta2zzbH3Ozjf0NSk384fu6bRA+GKABCO8kTDQTocR3FR3ixrVRYDGyf4Z1Md9024XmFyarCb4CjtoyPyqU3POHLU4dNarnn+n6admxWEKgJA2OH2yr2GT9t3Ks1MTNLn+Wn95uvn2z8NWETk9xW76evghA1O+m+jjqSoKL8dGwgH3NzhGOM+r7zc1sI5eQQlIj9YcTplkQ5R1tWh2kaHg90MwK+YAvyfnmmqV3+rq3HcM+oPlXuMlw83B/3lWVJklEyPT9BFyWl6WcY0fU7uTL0iM1svzZimF6Vn6oLEZJ0dF6/9tX5TUmSUzEtO5bzFSZm0fHJ39T5bT9Lri0otf+2sviAlXZ+SZf/O1w/W1di6AzLCS8NQv9+eSWnRsf46NBAWWCkZjvFia6Ma9fpvzYhQdXnBHGtJOusaOYUWkWdbDhkfn1tCKAvXKkxM0UrkpBbxjjJNmR6XoKfHJ0heXIKeFhcnSRFROjkqWpKjoiQ5KlpH/2sqT3xE1BsLe1tay8DkuExaPumfmFRNQwNSP9Sv6gYG1O6udjUwOXHyf+AJuumV580LZhRYSZHOqEAYnpqUH+/cEvDKxILEZH1ubr4uTc3UxWnpujQ1Qx/PWmR9E+PSMTaqusZGpXagR9X296vavh6p7u9VBwZ6lXUC1VfLM7O1v0IWhI+H6vYbHWMjth3PYxhyfXGpX/sLa+eXWFs7Wm29D4x5vfLn/RXGl0qX09fBcdvf1+O3Y6dGRzMmAk4CASAcY31zg+MqK4LNUEq+s4zqP6dZ31ivPj63JNjNAPwmxuOR6fGJumV48F0TlQjDkNK0TL0oLUMXp6TrkrR0vSAlQ3LjE+zopL/lGD6tZXd3h3qxpVH9ta7a2NPVEdDEp210WH62e6v581POcsSarL/cu93WsOKdlKZl6qtnz7MuLSjUC1MzTuq3TYmKlpSoaD0vOVXOyM59y7H6JsZlc3uLeqWt1dh0uFnt6DysjmU65srMbAaFOGm327zr98V5s6zs2Hg7D/kfPlRYbH1l8wvm8JS90y7vqC4jAMQJ2d/f67dnc25cgr8ODYQFAkA4xguHW3h1f4QPziqyStPSGdQ4zAttLUrLa9OzAbcqTEqWluHBt/wzQymZk5SqV2ZO0ysys/WKzGy9JD1LB2pRblMpWZExTa/ImKb/35JV1vbONvW78l3G/QerA7aB1O2Ve4xvLz3FF+wqwDGvV24p3+X3L/690/P1N5as9J0/Y1ZAnkUpUdFySX6hviS/0Cci0jM+JuubG4ynGuvUhpZDRtfY6FH/O7cGgKZSsna+fyvI7LQoIzNkf4eK3m5l93T6GxYs9vtvlxARKVfNKrL+tL/c1vCyqrdbvdzWoo4M6YF3U+2nANBQSvITEjkfgZNAAAhH6J+YkJq+bvKUNzGVku+w9p8jdY+NqAMDfWou66TBxQqTkvWLrU0qJy5BX5w/S1+QN0ufMz3fMdNfRV4LfVaec4nveytOt36y4xXj3gNVxolMHz0eg5MT8vuK3cY3l54a1Pvzg3XVfl2ja/W0XP1/p53tWxXkYC0tOkY+MqfY+sicYrG09u3oaldPHDpo3HegUh0aHHij37AqK9uVz0uPYcgdZ13giIpTt/t9pb0bX+QlJOoLAhScry0utT0AFHltjdEzsnM5/3DM+ibGZW+3f6rzc+ISdKThyP24gJBBAAhH2NLRfEJr/rjZNXMWWEUETI61pb2FABCu9qHCYutDhcXWe3PyHL+2WmFisr7nnEt8a+cvsj7xwlNmw6D/FiAXEflt+W7zpkUrrUBVPh7NnTZvVPC6SMOUX576Ht8XSpdbTvvVDaVkVWa2XpWZ7fvJyjPkxcNN6tdlO4y9PZ3K39Ms4W7DU5Nyb22VvZt/zPPf5h9HOn1ari5KTtP7+3ts/cCH62uN34yP+Y5njU+Et/XNDX6ryJ+fkuaX4wLhhDXX4AivtrdzLr5JhGHIt5avdmU1g1tsaWfKOtztnOn5+pzp+Y4P/97srJwZuvyDa72Xz5zj1/tn2+iwPBPEdWtbhofU5jb770ExHo88efFV3i86MPw7khKR9+bk6ccu/IBv15XXeYPdHoS2ew9UGoM2bjDkMQy5fn5pQF8SXj9voe33vXGfV+6psb+yEO71dGOd3x4fi9JObv1ZAASAcIjtXYedPtYIqOvmLbRmJSTxkHOwrR3tnLOAA8VFRMhDF7zf92k/r7310MHqoN0Dnms95JfPvnfNpb41ufkh9+xJpzoJJ+n2Sns3/7hgRoE1Pc6WjZCO2cfnlViv76Zupzuq9xkhd1NAUIx5vfJkU73f8oVF6VmcisBJIgCEI5R3dxGm/Eu06ZFvL6X6z+kO9PeoMS9FJ4ATmUrJbWee7/tI4Xy/3UufaKwzJnzBWRrruWb7A8C18xZaVxTM5dmDsLO5vVWVdXfaek1dNy+w1X8iIlkxcXJx3mzbr+H9/T1qk82bo8Cd1tXsM3rGx/x2/NVZ0wkAgZPEGoAIurbREekeP/qufuHok8Wl1vS4+IA94DxKyZKMaQF/oHaPjUrz8GDIdih9Wkt1X49amsHbSMCJlIjcdfZFvrqhAbWtw/4q84HJCXm2pUFdkl8Y8HvAJpun/0abHvnJyjMJ/xCWbq+wd/OP9OgYuXSm/UHcsbi+uNT6x6EDftkM5D05M9gMBG/L0lpuLt/lt+KivIREPSuR2VHAySIARNCVdTOV8nUxHo/8v8WnBLSDlRgZJduu+FjAS9mueOYRM5QDQBGRir4uAkDAwaJNj9y35lLf4gf/5BmemrT9+M+1HDIuyS8M6D17eGpSWm2+d142s9DKCeCLJ8ApusfH5KH6WltDiw/PmW8Fa6fSC/Nm65y4BH14ZMjWe8SjDbVG19ioLyMm1s7DwkUerKsxDvT3+q1f/57sGTyjABswBRhBV9lr745loeyzJcus7Ni4YDfD7/Z0d6gnG+tC/v7DuQs43+zEZP0/q87yS0j3SltrwO8B+/v7lN2joMsK5jCwQli6q6rMGPfZ+w70unmlQaumNZWS6+aV2H49T/h8so7NQPA2+ibG5abNz/s19b6U5xRgCyoAEXQHB/sIUUQkPiJSbipdHhbTK36yc7MrFpQ+0N8T7CaEne7xUXmwriYsByG58Qma9W9OzKdLlli3Vu42avrsDe3LejrV8NSkxEdE2nnYd1Q7YH+FxbIgLAMBBJultdxRXWbr86Q0LVMvDfJGBWvnlVr/vetV2/tZd1SXGV9bssrxO4Qj8G7a/LzZPjrit+NHmx65YEYBy1QANiAARNA1Dts7TSFUfWHhMl9mGEytcEv1nwjnbjDU9veqqzc8Fpy5VUH2gVlzrdXnvz8sXhLYzVRKfrTidMvuc8drWfJqR6s6N7cgYAP+9pFh2485OzGZABBhZ31zvaof7Ld384+ikqCHFLMTk/V7pufrF1obbf3bDg70qedbGlUo7hQO/3mwrsa4Z3+FX/v1F+YVWIF80Qa4mSsG4QhtDQP9wW5C0CVHRcuXS5cHvdMYCG6p/hMROWTzwAGA/3xgVpGVG59o++1nb5e9u4e+G7vXMoz1REiEQXcQ4ef3FXtsPfEjDEM+OneBI/py18/3zzTkP1Ta+50htG3paFXXbXzS7y9l1/rpfAbCETdxBJWltbSMhPZGEHb48sLlvpSo6GA3w+/cVP0nIjI0NSm9E+PBbgaAY2AqJdcV2b82VrXN04rfzbDXa+vnWdotr2SAY9c0PKieaqq3tT9yYd4syykzOT4wa67lj37l44cOGh1j/pvqidBRO9CnLn/6Ec+Y17/7CE6PT9AX5s3mQQXYxDUDcYSmrvFRmfCF94y29OhY+ULpsrB4s+Wm6r/XNQ0RYAOh4kNz5tt+r632466HRzPqtbcCcNznlSkrLB5BwBvuqCozfDaH39fNK3VMFyfa9MhH/HC/m7R8cnf1PsaPYW5bZ5s689H7PF1jo37/rC+WLLVMRVcbsAs3cARV9/h42N/Rv7pohS8hDNa1cFv13+t6xseC3QQAx2hBSrqeHp9g6yC9pr87oM+xSMP+2VaHhgbC/lmM8OG1LNtDrIyYWLkkf7ajkvS18xf5pT1/rN7nupe5OHaPNhwwzn7sr55AVIImR0XJpxcscdR1BYQ61w3GEVq6A/DmyMmyYuP1Z0rC48Hmxuo/EZGeiTEGzkAIOScnz9ZbUf/EREBfBPhjIfSqAE9jBoLpyaZ6o23U3s10PjJnvuW0tTSXpmfpJRn270hcP9ivnmtp4J4RZka9U/Llzc+ZV65/1Bz1TgXkM7+4cLmVGBkVkM8CwoWznlQIO+Eennx98Uor1hMR7Gb4nVur/0QIsYFQszjd/gFx2+hIwJ5lcR6P7e3fdNje3UIBJ7uraq/t5/t185y5ScH1Rf5p152VZa7s0+HoXjzcrEof/JPnN/t2GYFaNzYrJk6+tnhleK8TBfgBN28EVd9E+E6fzIlL0J8q9s/0DKdxa/WfiLAJCBBiFqSl2347CuSi+CnR9i/s/2jDAcVmIAgHbaPD8nRzg63jn8XpWXpxWqYjL6CPzl1gxXg8th/3sUMHjUCs/4bg2tpxWF3y1EOesx+731M30BfQF0U/XHlaWCyRBAQaASCCanTKvztHOdm3l51iRZv2d8qcxs3VfyIi4z4flTNACClJybD9mB0BrACcnZhqe9BwaHBAPdlUx70MrndPTbnhtXnTm2vnLnDsy9zkqCi5omCuXzYDWVdT7tq+XTjzWpY8fuigce4Tf/Oc+shfPE821qlAp9unTpuub5i/2LHXFRDKuHEjqCZ84RkAzohP1NcVLQyLB5ubq/9EwvccBkJVTly8Tomyt4quYzRwFYBzk1L8ctyvbnnBnPAx2wrupUXk7v0Vto59Ig1TrikqcXR/7no/zTb5Yw2bgbjJ3p5O9dUtG83cP98W8b6nHzafazkUlJdCUaYpd5x1gc9g51/AL9xffgRHm/Q5us/kN99fvtryx06OTuP26j8RkUkCQCDkzE1O1ds6Dts2uhiemrTrUO9qenyCjo+ItP0zD/T3qq9ued689YzzSAHhSi8dblYH+nttTRUuyptlpUfH2HlI270nJ0/PTkrRdk/hrO3vVZsON6v35MwgBwxBA5MT8lxLo/FMc516uqlBtQ4POSJx+8Up7/GVpNq/VAeA1xAAIqi8OvwCwNmJKfqjc5w7XcRObq/+ExGZsBgrA6EmNcreAfuEZQVs4KTktelRzzbbvwvn7yr2GMsypulPOHRDA+Bk3FVt/8YV180vdXw3R4nI2qKF1ne2v2T7m+c7K/cY78mZQUfI4brHx+TAQJ/a1dmmtne2qR1d7aq2v9dxa7++b2ah9YXS5Tx/AD8iAERQ+bQ44m1TIH1/xWmWx3B1UZyIhEf1n4iIz+eszhOAd5cUGalF7Hv+jPum7DrUMVkzPc96trnBL2XkN2xabyZFRftl3TAgWAYmJ+Th+lpb+ySZMbFyUd6skLhOrpu3UH9/x8visznweaThgNE7Me5LtXlZBbyzUe+UjHq9MjA5oQYnJ2VwckI6xkZU5+iIdI2Pqc6xEWkeHlKHhgalcWhABbJK/USVpGXov6y5lIW1AT8jAERQeZSEVXoyPzVdXz17Xkh0Fk9WOFT/iYhEetw/lRtwm8RIe3cWDPTaeWtmFGjZuskvx/Zally94THztjPPlU+xCDtc4q8Hq4xRr71B/dWF86yIEHmhmxMXr8+dUaCfaaq3NV8Z93nlzzXlxpcXreBecYT/2bPNvK1y70mfICNTk2rqTRvX9E+Mu27wlB0bL/+88Ep2/QUCgAAQQRVphld48sPlp1vhsKhtuFT/iby2WDGA0JIYGWXr8QIdAC5Nz9LFqem6qrfbLw8Ur2XJDS+uN59oOKh+d+Z51oz4RLeNNxFm7qq2f8faj4XYZm7XzVtoPdNUb3un5Y8EgEfVMz4mPeNj7u/0n6SMmFjZcOnV3vwEnjNAIITFAB3OFRUGG2G8bnFGlr68YE5YdJDCpfpPRCTKjAh2EwAcp3hPRMjfoj5T7P/qvCca64ziB+7y/Lpsh2H31EEgUMp6utTOzjZbg5h5KWl6Rca0kLoo3jez0LJ7B3QRkcreLrW5vZWgC8ctMyZW1l9ytZdNP4DAIQBEUEWZ4VOE+v1lq8NiXYtwqv4TEQmH3ZwBt3FDJfbHi0qsJJsrGY9meGpSbtqy0Sx+4I+ev9RWEAQi5NxVffLTMI90zZzikHuhG2165OpC/yxDc2eV/d8x3C0/IUm/dPlHvUvSM3moAAEUPukLHCkpOjwWDV6aMU1fnF8YFg+4cKr+ExFJigz9SqJQkhwVJcsyssPyO1+YmhGWfzeOLjEySr65ZJXvW9vs39nzaGr7e9XHn3/S/OmuV43vLjvV+sicBZbpgiAV7jbh88n9B6ptDaeUiFwztyQk78fXFi20brdhXboj/b1uv/Gb09f4AvFSAqFvVVaOfvSC93uzY+OD3RQg7BAAIqjSoqJCsgN1vH6y8nSq/1wqPSY22E0IK8UpGfq5S6/2BrsdOHlTliXto8Oqa3xMOsdGpHt8XHWPjsi4zysTPp+M+l67bY55JyXGEykRhiHxHo/Oio2TrNg4PSM+UbJj43V6dEyw/5Sg+fKiFdbtVWVG49BAwB4xrweB39v+ivGZ4sXWJ4sXWWlh/BvA2R5pqDV6xsdsPeYZOTN0qK5XdkpWjp6XkqZr+npsvWeMeqfkvtpK47MlS0OuMhKB9cniUuvW08/zsYY2EBwEgAiqtGj3hyenTsvV5+YWhGRH8XiFW/WfiEhqVHS4/cnAcekeH5NdXW1qb1enOjjUp+oHB1TdQL+0DA8qO6aTRpmmZMfF61mJybIoLUMvSsvUC9MydXFKmo52+TIT0aZHfnv6Gut9Tz8c8JFU49CA+ua2TeYPd242ry6cZ31u4TIr1NZEg/vdXb3P/um/c0Nv+u+bXTt3geWPyuE7q/cRAOJtpURFy21nnuf7UOF8zhEgiNzdM4bjZYRB9dSPVpwW2O0hgyQcq/9ERNLDIMQGjpWltezt6VTPNx9Sm9tb1O7uTtU8POjX6rQJn08ODQ6oQ4MDsrGl8Y3PMpWSmYnJuiQlTc9PTZfStEy9IjNbFyYmuyqkumxmofWp4kXqzqqyoNx/x31euWd/hXHP/gpjSUaWvnZuifXRuQuscK7MhDM0DA2oja2Ntt5/ok2PfHB2aAcYHy9aqL+7/WWxez3Pvd0dakdXu+JFAI502cxC69YzzmVHecABCAARVBnRMVqJiFufBufkztTvyclz65/3FuFY/ScikhkbF+wmAEHVPzEhjzTsN55urFcvHm4yum2ebneifFpL3UCfqhvoU48dOvjGP0+PjpHYCHet3Xnz6nN8L7e1KLun9R2vPV0dak9Xh/n1V180L86fZV07r1RflDfLijDC7t0QHOBPNeWGZXPIdUn+7IBsvuNPOXHxes2MAr2+qd72+8WdVXuNFWddEBYvvvHuStIy9M2rz/Gtyc131TMXCGUEgAiqWE+EpMXE6e6xEVcukfeD5VT/uZmplMyIS6BTg7Az7vPKk431xn21FerppgZj3Bc6yzJ2j4+JjI+56pkTFxEhT150lW/1I3/xdIyNBLs5Mmn55NGGA8ajDQckKybO/Pi8Bdan5i+25iSlcL9EQFhay7qactuv848VhebmH0e6rqjEWt9Ub/s04AcOVBv/t/psX3xEpN2HRghJj46RH6843XfDgiVsFgU4DAEggm5mQqJ0O2DAYreL8mZZp2TluKKj+G7CtfovJy5BU9mCcNI1Niq3Vuw2bq/cY3aOjQa7OXiTWYlJ+rGLPuBd8/gDnuGpyWA35w0dYyPyyz3bjV/t2W68Nzdf31C82Hp/wRwr0mABePjPhpYG25cfSI+OkQvzZoX09N/XXV4wx0qOijL7JyZsPe7Q1KQ8cLDa+OT8Ra74nnB88hIS9RdKllo3FC+2EkO8UhZwKwJABN3M+ES9s7PNVa+HlIh8Z9nqsOj8hGv1n4hIQWJysJsABETj0KD62e4txl9qK40xb+hU+4WbVZnZev2lH/Re8uRDnr6J8WA35y20iGxsaVQbWxrNzJhY89p5JVQFwm/WVZfb3i+5unCea6azR5seubpwvvWHyr22/0F/qqkgAAwzK7Ny9E2ly60rZxVZHpdcI4BbEQAi6AoSU4LdBNtdNrPQWpGZHRaDmnCt/hMRmRnP9F+42/DUpPz3nq3mzWU7CP5CxOqs6Xrj+z7sveiff/e0jQ4HuzlH1Tk2+kZV4Dm5M/VXFi33XZA3W7vqTSCCpn9iQh47dNAPu/+WuCrUurZooV8CwFfbW9T+/l5VlJxKH8nF0qNj5PJZc6zrikqt06ZN57cGQgQBIIJufmqaqx4ahlLyveVnuKqT+HbCufpPRKQ4Nd1V5y7wZvcdqDL+36svGG0jw+QyIWZxWqbeeeW13is3/MN8tb3Vsb+fFpHnWg6p51oOeRakZuivLFpufXTOAivKZHowTtxfD1Tavi7pnORU7bZlXU7NytFFyWl6f7+9mwdpEVm3v9z471VnhcU62OEkNSpaLi+YY32wcJ51zvSZmmo/IPQQACLoFqZmuKpDNT81XdcO9KjagcDvxrgoPUvPSUwO2PcZztV/IiILCADhQgOTE/LpTevNBw5W07MPYTlx8frF933Y+7UtG81by3c7/l5d2dulrn/hafO72142P1+y1PfpkiVWalR0sJuFELSuttL+6r85xa58sXtt0QLr29tesj1x//P+SvXTlWcKG0CEtgjDkGUZ2fqsnBn67Nw86705+ax9DYQ4AkAE3fyUVB1pmDJpueNFYWVPl/rIs48HpXzhl6e+1/el0uUBGeeFe/WfiEhpWqbTx9TAcdnc3qo++twTZuPQAKM2F4g0TPnt6ef6Lp1ZaK194RmzxeZNEfyhbXRYvrP9JfO/92w1185faH198SprOrut4xhV9nWr7R2HbT3PlYh8dO4CV56DHy8q0d/b/rL4tL1/3uGRIbW+uV5dlDfbld+bWyVGRklpWoY+M2eGPitnhnVaVq6Oi4gIdrMA2IgAEEEXaZhSmJyqq3q7HD8wwb+Fe/VfenSsZMfGB7sZgG0eqt9vXPPcE+aEzx0vY/Bv5+YW6PIPrvV+Z/sm8w+Vew27B/v+MDw1Kb/dt8v4Q+Ve4xPzFlrfWnqqlRef6PyGI6ju2W//5h+rs3P17ADOrgik6XEJ+pzcmXpDc4PtffA/VZcbF+XN5oHiQJGGKUUpqXpBSrouTcvQJWkZuiQ1QwoSklx5ngP4NwJAOMLStAwCwBBC9Z/I4owsOklwjTur9xqf2bTBDIVgCCcmOSpKfnfGeb5Pzl9sfeGVZ83NbS0h8cyd8Pnk9sq9xrqaCuOri1da31pyio+KFByN17Lk3v1Vftj8w53Tf193bVGJtaG5wfaZK080HjR6xsd8adExdh8a7yAlKlqSo6J1WnSMTIuJ1TMTkyQvLlHnJSbJjPgEPTM+SbLj4tl0CQhTBIBwhNXZufreA1XBbgaOUbhX/4mIrM7KcfWAAOHjN/t2Gjdtft4M92s6XCxJz9SvXP5R7xONB9X3tr9slnV3hsQ4cNznlf/atcVYt79c/ea0NdYHZs3lHoy3eKa5Xvlj5+s9XR3qG1s3uXZnmjHvpF+OO+HzyX21lcYXS5eH5bV6Uf5sfca06Sf9tydGRolpvHabToiIktc33kiIiNARhudfgV+UpEZF6xTWTQXwLggA4Qirs3MZe4YIqv9ec9o0zlmEvn80HDC+smUj4V8YujS/UF+SX+h9tKHWuKV8l7GptUmFwnnQOjykrlz/qHnNnGJ1yxnn+ZKjooLdJDjEuhr7p/+KiNxRVRb2fZ4Tta62ImwDwPfmzLC+tnhVWP7tAJyLBxocYX5ymk6NYopAKKD6T8RjGLIic1q4fw0Icbu6OtQ1zz9hWkz7DVtKRK4omGu9cNmHvRUf+qT38wuXWkmRoRGo3Xugylj44N2eHV3tIVHBCP/qGR+Tf/Jy0nH2dHWovT2hUWUMAOGAByUcQYnIKVnZvCVzOKr/XrM4PUvHR0QGuxnACeudGJfLnn7YHJmaCnZT4BDFKWn6ltPP9bV8/LNTt591ni8UdjlvGR5UZ/3jPs/9B+xf9w2h5f4DVQYbGDnTn2r2cX0CgEMwBRiOcd6MAv1UU32wm4F3QPXfa86fUUBYjZD2pZefNQ+PDAW1KiM+IlLmpaTp+cmpOjsuQbJjYvW0uHjJiUvQmTGxEmN6JDEyUnsMQxL+FbhrEemfGBctIn0T4+r1/989PiqHhgZU49CgahwckEPDg+rgQJ/qGhsN5p8YkuIjIuXG4iXWjcVLrM3treq28l3Gww21jg1Xxrxeuea5J8xDgwPy7WWncm8OU+uFt/qTAAAgAElEQVT2VxAyOdT9tVXGL099ry/ScO0yigAQMggA4RgX5hfqL29+PtjNwNug+u/fzpsxkxwUIeufjQfVvUGomIo2PXL+jJnWmtyZ+uzcmXp+Stpx70Ko5LUdDkVEUqOij7wO/+O67BwblbKeDlXe3aX29Xap51obVetwcIPPUHLatOn6tGnTfb8eG/XdVV1m3F5VZjQODTju+9Mi8p3tL5kjvin1XyvPdGZSCb/Z19OldjMV3LG6x8fk8UMHjStnFRHQA0CQEQDCMQoSEnVhUqo+ONBLJ86BqP57TUpUjKzMzOGrQEganpqUGzdtCGgZxsqsHP2ZBYutKwrmWokBXl8uMyZWzs0t0OfmFrxxzW7tOKy+sfVF86XDzTxrjlFGTKx8c+mp1teXnGI91VSnflexx9zQ3KCctn7kz3a9aniUIT9acTohYBhZt58ppk73p5pyAkAAcAAemHCUC/MKnDWagIhQ/fdm5+bmW6YiN0BourOqzAjU1N9zZxToly7/qHfbFR/zXle0MODh39s5JStHr5mez0D0BBhKySX5hfrpi6/y1nz4U94vL1puOW0X3p/s3Gz8ra6G51WYmLIsua+WNSCdbkNzg2obHQ52MwAg7PHAhKNcMWsugzIHovrv364snMdXgZDktSz5dflOvz/356Wk6fWXftC74ZIPes/IzuV6cak5SSn65tXn+Fo+9rmp2886z1eSluGI31qLyNqNT5llPV28qQkDTzbWGZ2s9el4XsuSe2rKGXcCQJBxI4ajrJ6Wq2fEJzpiEIHXUP33bwkRkXJ+LhuAIDT9ra7GaBoa9GsockPxImvXldd6z8ulmjtcxEVEyI3FS6zyD671bnzfh70X5s0+7rUd7TbqnZK1Lzxlei1u1263rmZfsE83HKN1+yvpSwJAkHEjhqMoEbli1lwGjg5C9d+/XZI/24rxsHQqQtPtlXv89sw3lJJbTl/j+8NZF/hiPRH++hg43Htz8vRTF1/p3XXVJ7wfnD0vqMsl7O5qVzeX7aCf62JdY6PyVFM9v3GI2N/fo7Z0tBLYAkAQ8dCE41w1ex6v7B2C6r+3uqqQcxOhqXt8TF5t98/Ay1BK7jnnEt/nFy7j+oCIiCxJz9R/O+99vuoPf8r7yeJSK9II6L4zb/jRrs0m00Pd697aSmOKKs+Q8qcaNmwBgGDiJgzHWZmZreenplN05gBU//1bVmy8Pn/GLL4OhKSnmuoMn592bP3pyjN818wpZhSO/zAnKUXfedaFvqoPf9J79ex5VqBLf0ampuR/y3YEJ32E363bX8E4JsQ8eHC/MeqdCnYzACBs8eCEI60tWvj/2bvz8Kiq+/Hjn3tnskz2hYSEQCAJWVjCjgiCiCxSFlERVNBi3Vpbrdp+1Wqt39pqXWq/ahfr2p+Cu4iIVNxQq6Ioi8gSIWyyJYFASCD7zNzz+wMzvZNMJpMwk2Xyfj3PfZ4Ebs6cu9/zmc85h8ZkByP7z92i3MEqRGd3oGtauXdXQGIvczNzjDtGjOV+Da+yYuLUK9PmONfO/bFjYq/0dv0i5Z9bN+rHamva7fMsmn+fE2S4ebbp2BFt87EjdCftYk7U18mbe3fyMgUAHYQbMDqly3MGGeEWxlrrSGT//ZcmIovyCEqj6/pP8QG/P+97hNvk8bPPc/q7XASvM5JT1SdzLnO8Of0iZ6/I6HZ5xJy018vidswUC/Fzd2dDKQlU9m5XtngHM8p2Ve15PQIA3HEDRqeUGG6TC/r1J+DSQcj+czcxra/KjomjBYYu6WhtjQRiHLTfjhjrTLZF+L1cBL8LMrKNgkuvdlyVl98u3YJf2FnQjgFA/3+U3SDObuYwDHl553e8o3RRqw9+rxVVVZK9CQAdgIcnOq1fDh1NALCDkP3n7pf5I2h9ocvaVnbU7w0tm9VKVixOS2xomDw7aYbz3dnzHSkRkQH9rI2lJVrB8WPtEnCwaprfH590A3b37oE9Wkl1VUdXA23kVEpeKNxKABAAOgABQHRao5JS1IRefYhDtTOy/9xlxyWoGelZnIfosgrKSv3e0JqVnmXEh4X7u1h0Q9N6Z6h1cxc5hvZIDuh99r39e9ol4BCIDMAT9XUES0wWb6cLaVf3fOE2jiEAdAAGWUOndsuQUc7Pig5wnrYjsv/c/WroKEPXaHuh69p54rjfT+BxKWncJuA3vaOi1erZlzomrXjZuuWY/wPWIiJrSg5qtwwdHYii3YQFYPzisrpaSYuM9nu5XVF5XZ28HYAvKc/u1Uf9a9IMsv0bufnzD/WVAdjfBWVHtfWlJdqopBSeJQDQjgisoFObkZ6lcuMT1Y526rrT3ZH9565nRJRamD2Ivlfo0irq6vxe5hgCgPCzxHCbrJxxsXPE689ZAzFr75qSQ7qIBDzAExcW5vcyywNwDXdVr+4u0GudDr+Xuyh3sJHFWL9NLMrLVyv37Q5I2Yt3bNFHJaUQdAWAdkRDH52armny2xFjCcC0E7L/3N06dDSzUaPLO1lf7/cy+0XHcKuA36VHxagnJgZmZumS6ippj3Hj4sJsfi/zWG0NX4L+YPEO/0/oEm6xytzMXN41PZjVN8uICfV/UFtE5JVd23XGtwSA9kUAEJ3e/Kw8Iz8xsGMDgey/xlIiotW1A4fxZoou76TD7vfgQVwo4/8hMC7OzDXO7d03IM/8PSfLAx5IiwsL83vdD1Se8HeRXdLOiuPalyUH/X4MZ/bNNGIDFOTq6sItVpnTr39A3oVKa6qF904AaF/cdNHp6Zomd40cRyAmwMj+c3fnyDGGzUr2H7q+k3b/ZgCG6hbh2kAg/Wb4mIBkAX5/oiLwAcAABMf3VQa+3l3B4h1bA/KesjBnMK8/XlyWPSBg7+CLd2zh3AaAdkQAEF3CBRnZxsjkVF7QAoTsP3f9ouPUVXlDCDoDHjgVlwYCa0rvDNU3Otbvz/zvT1T4u8gmEgIwO/a+E2QAKhFZUrjN78Gi+LBwmZGeyU3Ni6m9M1SSLSIgZb+zf48eiDE/AQCe0eBHl6CJyP+Nm+Tka8LAIPvP3UPjzjFCdUtHVwPwiwhriF/LcyoldU7GbUfgaCLyo/QMvz+WKuz1AX+NSI2MVP6eOb6gnInQ/lN0QNt30v+ZkHOzcowwC897b6y6Lhdn5QQkSFrndMorO7+jPQoA7YQbLrqMsT3T1MUM0ux3ZP+5m5iWri7ol815hqARabH6P5BSz6ykCKwxPXv5/bytcfh/QpzGQnWLJPs5W6qwvEyrcfh/5tuuZPH2LQF5T1mYPZjnvQ8u7T8ocN2Ad27jHRQA2gk3XHQpD40714gM8W82S3dH9t9/WTRN/jJ2MqlNCCqBuGfuDUAmDmCWG5fo90dTtb19gmhpkdF+rbvDMOTbY0e67TVX7bDLG3sL/d5m6R0Vo85O7c0rkA8mpPZWvaMCM/v714eLtO/IcgWAdkEAEF1KWmSUunVoYAYH747I/nP3s0HDjCGJPWgMIKhEhYb6vczdFcdprCGgEsNtfi+zxmH3e5me9PFzAFBE5LOiA932mlu2d6d+IgBZxwuyB/q9u3aw0kTk0v55AXs/WrxjK++iANAOuNmiy7lt+BhjaI+eBGn8gOy//+odGaP+cMbZBJcRdAIRjFhXWkyrGQEVGYCZpm1+Hg+zOekxMX4v892De7vtO3uggkMLsgfS/bcVLgvg/nqhsEAzFG+kABBo3fZlAl2XVdfl8QlTnRa+tT0tZP+5e2zCZGd0iP8zpYCOlhUb7/cyPy06yA0YAXXS7v9svajQ9gkADoj3f/flNcUHte449uahqpPaRwe/9/v9ZnBikhqamETEqRVG9OipAtE1X0TkYOUJ7aND+3muAECA0fhHlzQ6OVX9In8k39yeBrL//mt+Vp4xu29/dgeCUv/YeL+f25uOHtYOVJ6gsYaAKamu8nuZ0SFhfi/Tk8EJ/g8s1Tmd8vKugm733v7Cjm2aMwCZYQv7D+Adsg0u6Z8XsP32/PbN3e78BoD2xo0WXda9Z0xwDubb2zYh+++/UiOi1WPjp9D1F0ErOwABQEMpeX77VgKACJitAZj0Ii40rF3eGQbHB+bd5JmC7hcgCcQMsbqmyYKcQbw/tsGC7IEB229vfr9Tr7QHfqZuAOjOut2LBIJHuMUqSybPdoZb/D9OULAj++8UXdPk/537I2cgBpsHOovY0DBJj/b/7I1PfLdJr3G0z6yq6H4+DEC3z+y4BH8X6VFcWJj0CsDYmxtKS7QPD+7rNoH3daUlWkHZUb9v71mpvVV6gGa0DXa5cQlqRFJKQPZdld0uS/fsoG0KAAHETRZd2qD4RHXP6PFkb7UC2X//9auhY4xz0/rSCEDQOye1j9/P80OVJ7VHN6/jXgK/O1ZbI+8f/N7v51ZeAMbma86Y5MAESX779aeWQJTbGS3esSUg95eF2XT/PR2XBbAb8OId/s/4BAD8FzdZdHk3Dx1t/Cg9k5c5H5H9d8qYnmnq96PHETxGt3BOWnpALvt7N3xp2RqADB10b49sXm/xd3ZpmMUimdGx7fb4Oy89IyCf9fXhIu2pgk1B//5ebzjllZ3f+X07Q3WLzM8iAHg6Lu0/UOkBmojvP0X7tf2MLwsAARP0LxAIfpqIPH/uLGdmjP/HuQo2ZP+dkmyLUq9MPd8ZqnebRAp0c+em9QvI/bHaYZf5779lOV5XG4ji4cWRmuqOrkJAbD5Wqj286Su/P6eG9eiprHr7Pf6m98kK2DvJr7/42FJYcTyogyTv7NujH62t8Xu5P0rPMOLDwv1ebnfSOypanZXaOyDnt6GULGZ8WQAImG4fCEBwiAsLk9enXeCMDAnp6Kp0amT/iVh1XV6cMsuZFhnV3XcFupG+0TFqUABmJhUR+e74UW3K269aywgCtqt57y+35rz8tPV/132uB0swqKS6Si56701LndP/ydnn9QlMRl5z+kbHqNy4wHQ5rrTXy7S3X7V0tkyp43W14q/sxMU7tgRk2xbmDObZ7weXZQWuG/CSAEz8AgA4hRssgkZ+Yg/1z7PPc3aqt+FOhOy/U/50xtnOib38Px4a0NldlTs4YA22jaUl2uilz1u/PlLMLbgdOJWSjaWHtZ3lZdof1q+x5L70lHX0G4utj3y7Ti+uruzo6rXJjvIy7Zy3XrbuDlAw87z0jHbv9jknIztgz5p9Jyu0CctftGwoPdyh15wSkY8O7dcWfrDC0uv5f4T89D/vnXZ24rHaGvn3vj1+f1+JDQ2T2f2y6P7rB/P6DzBCApRRW1hepn15uIhnCQAEQLcPBiC4XNp/gPHbkYzr5gnZfyJXDcg3bh46mpd/dEs/zss3wiyB6/a+50S5Nv7NF6y/+mK15VgAuu7hv7aWHdUq7fVu/7b+SLH2qy8+svRZ/HjIlLdftf5r+2a9or6ug2roO0Mp+efWjfqYNxZbd5QfC0ijv6ctUsYk92r3R+BVeflGIKMY+0+e0Ma/+YL14U1f6fVG+776FFVVavdt+ELPfukp6+QVL1tf2vWdXus8NW7j58UHTmuzX95ZEJDtuTAj2wi3WP1ebnfUI9wm0wKYVRuoCWAAoLvj5oqg87tRZxlX5AwiyGNC9p/IeX0yjL+Pn0ZwGN1Wj3CbzOmXHdB7o90w5JFv1+uZLz4ZcssXqy27TpSTxREAXx851Ox+dSolqw9+r1398SpLynN/D5n77puWpXt26CcbBQw7msMw5NXd2/Xhrz9n/flnH1gCGay8asAQwxKgSQu8yY1LUBMCnHFe63TIrV9+Yhn0yrPWp7/bpFfZ7QH7rKO1NfLizgJ99jtLLX1f+Kf1rq8/s3jK2FxTfPC0dvbiwsB0AV2YE7gs6O7oigBmlb+2a7seiKEAAKC742swBB1NRJ6YON15sLpS+/jgPhqfQvbfsKSe6uWp5zvbcwB4oDO6fcSZxtI9O3RDBfaOcKK+Th79dr3+180b9LEpaWpeZq4xs19/1T8mrsNvRU6l5IS9vks/G3ztal3rdMiyvYX6sr2FEqLrljNT0tS0tH7GtPQMNbxHTxWoLnzNqbTXy+clB7X3D+zVX975nV5SXRXwz7Romvxs0LAOC/xcPWCI8WnRgYDPOLWr4rh23SfvWW794hPL9D4ZxnnpGWpcSm+VHRvfphlb6w2nFBw/pm05dkTbfKxU+6z4oLb+SLHm9OHe8XlJ8wHqlhQcP6atC8BQAqmRUWpSgGZD767m9OtvxIaGBSR4X1ZXKyu+36XPy8olaAsAfkQAEEEpRNflzfMudMx4Z6n1i9P8Jrqr6+7Zf1kx8WrF9LmOqJDQjq4K0OFG9OipLsnKM17e9V273BMMpWRN8UFtTfFBy81rVkufqBh1dmpvNTQxWQ1NSlbZsQnSJzLa77OzGkrJ4ZoqOVhVqRVVVWp7Ko7L1rJS7dtjpVrB8aNajcPh189rb18fLmn1c81uGPJZ0QHts6IDlt+t+0xCdF1y4xPVoLhElZ+YpAYmJElaZJTqFRElyRER6nRmSXcYhhyoOqntO3lC9p0s17aUlWqfFR/SNpaWaA6jfdvzc/plG+lRMR0W+Lkka4Bx11ef6QfaacKOivo6eXX3dv3V3dtFRCQyJERy4hJUr4go6WmLUHFh4WI1HdtqR73UOZ1S53DIkdoaraiqUo7UVGlHaqqlrV8U7Cwv047UVEuyLaLVf7ukcGtA7k2X9s9THZEFGszCLVa5ODPXeHb75oAcs8U7tmjzsnIDUTQAdFsEABG0Iqwh8tb0ixzTVr5m/aa09Y2lYNGds/96R8ao92Zf4kyJiOzoqgCdxh/HnG28saew3ccMExE5UHlCe3FngfbizgLXv1l1XVIiolRMaKhEWEMkNjRMIq1WFWENkejQUKmqr5d6U9DopMPuFkQqr6uVhnucoZSU1lbL4eqqdg80tZcqu122lZWe9jPNbhiy9ViptvVYqdYQLDJLCAuX5IhIFRMaJtE/fIESGxKqdE0Tm9UqVk2Xk/Z6qXM6pNrp1GocDql1OuRobbUUVVV2iv0fqlvk/rHndGhFwiwWuXvUOOPaT94NeBagJ1V2u3xTelj7Rg6LnOokEXBKRNaUHNIvzGjdkAOGUvJCYUFgZv/NpvtvIFyeOzhgAcD3DuzVj9RUO9sSSAYAeEYAEEEtNjRMVv5oruPct1+x7jgemMHFO7PunP2XGhGtPpxzqTM9Krq7xj8Bj7Ji4tQtQ0cbD36ztlPcGxyGIQebZkd1u/u1r9aXlvjUDfN0ldXVSlldbZc+LjcNHWnkxMZ3+DPgytx846FNX+s7y8u61P47HWtKDmgXZmS36m9WH/pe83AvOG158YlqZFLPDj8PgtHEXn1U3+hYte9khd+Pm90w5KXCbTqTtwGA/3SKl38gkJJsEbJ69qWO/MTkbvfy112z//pExajVcy51ZkbHdsfNB1r0hzPGO4fTIO6Svj5c1G2CSKejb3Ss+t3IszrFLAJWXZf7x0zsVkGMz4tbPw7g4u2B6f67sP/AbrXv25MmIgtzBgbsWfJ8gCaEAYDuipsquoXkH4KAZ/Ts1W0avN01+y87LkH954IFzs4w2QDQWYXqFnlh8mxnhDWko6uCVvrqCAHAloRZLPL6eRc4ozvR2K9zM3OM+Vl53SYQtbG0RKt2+D4jcZXdLsu/3+X3dxZNRC4LYIAKIj8O4OzKm44e1r49dvpDHgAATul2wQF0X3FhYfLOjIsd43v16RYvgt0x+y8/MVl9dP6ljt6RdPsFWjIwPlE9fvZUJy2rrmVdNx7T1lePjZ/sHJ2U0umeA4+fPc2ZGhHV0dVoF3bDkK9aMZvv63u265X2er/X48yUNJXFF4IBlRuXoEYlpwZsHy8p3EJ7FQD8hBsqupWY0DBZNWOe45Ig/xa+O2b/ndu7n/ro/EsdPW1M+AH4alFuvvHAmRM7RTdJtKykukr2n2yf2WS7qt+MONP46cDhnfIZnxhuk6cnnefQu8lstJ8XHfB5Q5/fQfffruyK7MDt55cKv9PbY9xTAOgOulWAABA51TVo8ZTZzrtGjgvaRm93y/77cc4g4+0fzXXEhoZ1dFWALue24Wcatw4/g0ZyF7D2cBHvbV7cOvwM4/4xnTugPTO9v/rrWVM6dR39ZY2P5+u+kye0T1sRLPSVVddlXv/g/sK3s7gse6ARogfm9lRcXSnvH9jTPaLmABBgvEiiW9JE5O5RZxmPnz3NGapbOro6ftWdsv90TZM/jJ7gfGbSDGegXjyB7uDBMyc57x51lkELq3NbV+p7l8ruRNc0+ePoCc6HzpzUJQJrv8gfYfyqG8xsurbkkGb4kLm1ZMdWn9ZrrfP6ZKhkW4Tfy0VTSbYImdYnI3CTgQRoghgA6G64maJbu2bAUOOTCxY4+kTFBE3CXHfJ/ksIs8ny6Rc6fjPizKBvRAGBponIPaPHO1+YMtsZbrF2dHXQjK8PEwBsLCEsXFbMuMhx16hxXepZ8PC4c51X5eV3qTq3VkV9nWwua3kCh8U7AzPT64IAdktFU1fkBm4ykBX7dukV9XWBKh4Aug0CgOj2RiWlqLUXXeGY1Ltvl4+bfdtNsv+G9EhWX8y9wjE9PavLHzOgM1mQPdD4eM5ljuy4BK6tTkaJyHoyAN2c0bOXWnfxlY6Z6f273Pmqicizk2Y4/zh6QlBPxNPSOIBfHi7SdpaX+X0XRIWEygUZ2QQA29Gcfv2NQA3FUuNwyGu7vwv691sACDRupICc6rrw7x9d7Lh12JlGVx6c+5Xd24M++++6gUONz+YsdGRGxwb7pgId4syevdTm+T9x3DVynBFsQyR0ZdvLj2nldWTAiIjEhobJ38ZPcX554eWOzJiu/Sy4a9Q446Wp5wdt5u2akkNeX6qe3xGYGV4v6NffiLCGBKJoNCPcYpWLM3MDFnRdvCMwmaIA0J1wIwV+YNV1uW/MBOfHcy5z9IuO65INCocRvF9297BFqjemX+j4+4RpTps1OBtKQGcRbrHKH8+Y4Pxm/k8cc/r1Z2zATkATTab2yVCWLvwl1emy6rpckTPI+O6ya+w35I/s0l/YmV3af4Cxcf6VjnEpvbvku0dz4sPCJcdLNnGd0ymv7doemNl/cwcF7wtRJ3Z5ALsBryk+qO06UR4cFz0AdBACgEAjY3umqa/mXuGYF8BvMdE65/XJMDZc/GPH7L5dr5sX0JUNjE9Uy3801/ntJVc5Ls8eaHTn4FNHy4tLUO/Pmu84fOWN9icmTnOOS+mtusvRCNF1uTx7oLH1kqsdiyfPcqZGRHV0lfxuQFyi+vzChY4nJk5zRoeEdnR1TsuIpBT1xMRpzgNX/Nx+z+jxzb5LvfX9Tv14Xa3fPz/ZFiFT0vrxvtABJvbqo/oFKCtXyakJYwJRNgB0F6TRAB7Eh4XLi1PPdy7Yt8u48bPVloNVJ3jh6ADxYTa5d8x45zUDhpGBBHSg/IQktWTKbOddo84y/t/2Lfriwq1acVVlt70sk20Rkp+YrPITe6jBCT3UhNT0dgs2JIbb5KcDhxs/HTjc2H2iXFv5/S5t5b7d+qdFB7R6o0tMguuzvtGxalHuYHX1gCFGehBN1tUcTUR+OnC4cWFGrvGXb9dZ/rl1o37SXt/R1WqRJiKjklPVBf2yjQuzctSAuESfjlWggjmX9M8zrDo5Dh1BE5EF2QPVnzZ8GZBju6Rwm/770eN5JwSANiIACHgxs29/dU6vvo77Nq61PPLtV7pTBX37o9O4KCPH+NuEqc4kW0RHVwXAD3LjEtQDZ0503jfmbHln/25t6a7t+rsH9upHaqo7ump+Z7NapV90nOoXHSv9YqJV/+h4ld8jSQ1N7KmSO8l9KSsmTt00ZJS6acgo46S9Xt47sFf/9/e7tHf27+myxyTZFiE/Ss80rsgdbEzqla6CpZtvayTbIuTBMyc6bx8+xvnY5vWWf23foh2s7FxfRIbqFjknLV1d0K+/MScjR/WKjGrVC9KRmmp578DewHT/zQlcN1S07PKcQcafNnwZkGO790S59lnxQe3s1ODqLg8A7UVTSnX+rxaBTmBj6WHt119+ZFlTfLBTvYQHm9z4RPXw2HOc5/XJ5OWui9tzokIrq6vxa5lRIaGSxwy1nYqhlGw4elhbtW+39mnxQX1DaXGXmKwiPixcUiKiXAG+vpGxql9snPSLjlUZ0bGdJsjXFoZSsr60RPu0aL/2n6ID2pqSQwHpaukPEdYQGZ7UU53Xu58xvW+WGtmjZ7cM+nmj5NQ7yIrvd+pv79ulbSo9rHXETTAnLkFN6d1XTe7dT01J62vEnMaMrxX1dbKz4nhADvSopBSeER3sm6NHNKcKTBy2d2S0SomI9GuZG48e1gw/f8nfJypa9bT5t55oX5uPlfo9s75XRJS09gsTwJ8IAAKttHLfLu3mzz+y7K+soIXiRwlhNrlzxJnOX+SPZJwxoAtTIlJYXqatLy3RNh8r1XaWH5NdJ8q13RXlWrXDHrDPjQsLk8TwCJUQFi6J4TZJCA1TiTabxIfZVI9wm6RFRUtPW6TqFRklqRGRKlhnXfXEUEo2l5Vq644UaTsrjmuFx8tke/lxbe+J8nbrNqyJSK+oaJUVEycD4xPVqOQUNSqplxoUn6jortk65XV1suFoibbxSIn2zdHD2qZjpdr3J8u1GofDL+VrIpIRE6eGJCSp/B7Jkp+QpMb27KV6R0XTaAUAoAsjAAi0QbXDLo9v3aj/37frLUdru2Y3q84iJjRMbswf6bx5yCgj9jSyCQB0fkVVlVppbY0cqamUIzU12tGaaqlx2KW8vl5TIlLrtEtDECMmNFQsmkUsmiYxISFKRMRmDZG4sDBJCLepxHCbJITZJDEsXCWE24QvDlrPYRiyr/KEVlJdJcdqa7RjtdVytKZGjtbVaqXVVdIw/lyFvV4zlBIlShpnd0ZYrRL2QzA1NiRUxYaGSY8ImySFRageNpskhkdIVmycyoqJ61ZB145QVlJ464EAACAASURBVFcrh6pOagcqT0hJdZVWVlsjDsOQSodDsxuGVNnrpN4wJNxiEZs1VMIsFomwWFRkSKikRUVLSkSk6hMZLT0jIlWobunozQEAAH5GABA4DVV2u/xj6wb9L9+utxz3c1fHYBcZEiJX5g42fjNirJMuEgAAAAAABA4BQMAPKurr5OmCTfrft36jF1WdJA3Fix62SPWzgUON6wcNN5jgAwAAAACAwCMACPiR3TDk1d3b9Uc3r9M3Hz1CINCkf2yCumnICOPHOfmGzUo3MAAAAAAA2gsBQCBANpSWaM98963+2q7tesM4St1NmMUiM9OzjGsGDjEm985QREQBAAAAAGh/BACBADtpr5fXd2/XX9m1Xf+saL/mVME9iZ4mImNS0tT8zFxjQc4gIyEsvKOrBAAAAABAt0YAEGhHh2uqZNnuQn3p3h36F8UHgyYYqGuajExOVRdn5Bjz+uep3pHRwbFhAAAAAAAEAQKAQAeptNfLJ0X7tX/v262/u/977VDViS7VQzYxPEImpvY2Jvfpq2b1zTZSI5jJFwAAAACAzogAINBJ7DlZoa0pPqBtLC3RvjhcrG0qLdE6UxpdSkS0GtczVY1LSVNnpfZWw3v0VLrWpWKWAAAAAAB0SwQAgU7qeF2tbDlWqm0rO6ptKTuibTtepu05US6HqysDGnXrYYtUGTGxMig+QQ2OT1KDEpLU0B7Jqke4LZAfCwAAAAAAAoQAINDF1DgcsreyQttbcVxKaqq00uoaKaur047VVsmx2hqpNQxNRKSivk4M0xiD8T9MxhGm6yohLFwSbRGSEBquekTYpFdElOoXHSf9omNUVEhox2wYAAAAAAAICAKAAAAAAAAAQBDTO7oCAAAAAAAAAAKHACAAAAAAAAAQxAgAAgAAAAAAAEGMACAAAAAAAAAQxAgAAgAAAAAAAEGMACAAAAAAAAAQxAgAAgAAAAAAAEGMACAAAAAAAAAQxAgAAgAAAAAAAEGMACAAAAAAAAAQxAgAAgAAAAAAAEGMACAAAAAAAAAQxAgAAgAAAAAAAEGMACAAAAAAAAAQxAgAAgAAAAAAAEGMACAAAAAAAAAQxAgAAgAAAAAAAEGMACAAAAAAAAAQxAgAAgAAAAAAAEGMACAAAAAAAAAQxAgAAgAAAAAAAEGMACAAAAAAAAAQxAgAAgAAAAAAAEGMACAAAAAAAAAQxAgAAgAAAAAAAEGMACAAAAAAAAAQxAgAAgAAAAAAAEGMACAAAAAAAAAQxAgAAgAAAAAAAEGMACAAAAAAAAAQxAgAAgAAAAAAAEGMACAAAAAAAAAQxAgAAgAAAAAAAEGMACAAAAAAAAAQxAgAAgAAAAAAAEGMACAAAAAAAAAQxAgAAgAAAAAAAEGMACAAAAAAAAAQxAgAAgAAAAAAAEGMACAAAAAAAAAQxAgAAgAAAAAAAEGMACAAAAAAAAAQxAgAAgAAAAAAAEGMACAAAAAAAAAQxAgAAgAAAAAAAEGMACAAAAAAAAAQxAgAAgAAAAAAAEGMACAAAAAAAAAQxAgAAgAAAAAAAEGMACAAAAAAAAAQxAgAAgAAAAAAAEGMACAAAAAAAAAQxAgAAgAAAAAAAEGMACAAAAAAAAAQxAgAAgAAAAAAAEGMACAAAAAAAAAQxAgAAgAAAAAAAEGMACAAAAAAAAAQxAgAAgAAAAAAAEGMACAAAAAAAAAQxAgAAgAAAAAAAEGMACAAAAAAAAAQxAgAAgAAAAAAAEGMACAAAAAAAAAQxAgAAgAAAAAAAEGMACAAAAAAAAAQxAgAAgAAAAAAAEGMACAAAAAAAAAQxAgAAgAAAAAAAEGMACAAAAAAAAAQxAgAAgAAAAAAAEGMACAAAAAAAAAQxAgAAgAAAAAAAEGMACAAAAAAAAAQxAgAAgAAAAAAAEGMACAAAAAAAAAQxAgAAgAAAAAAAEGMACAAAAAAAAAQxAgAAgAAAAAAAEGMACAAAAAAAAAQxAgAAgAAAAAAAEGMACAAAAAAAAAQxAgAAgAAAAAAAEGMACAAAAAAAAAQxAgAAgAAAAAAAEGMACAAAAAAAAAQxAgAAgAAAAAAAEGMACAAAAAAAAAQxAgAAgAAAAAAAEGMACAAAAAAAAAQxAgAAgAAAAAAAEGMACAAAAAAAAAQxAgAAgAAAAAAAEGMACAAAAAAAAAQxAgAAgAAAAAAAEGMACAAAAAAAAAQxAgAAgAAAAAAAEGMACAAAAAAAAAQxAgAAgAAAAAAAEGMACAAAAAAAAAQxAgAAgAAAAAAAEGMACAAAAAAAAAQxAgAAgAAAAAAAEGMACAAAAAAAAAQxAgAAgAAAAAAAEHM2tEVAADAE7vdLt9++63W8Ht6erpKTk7uyCoFvbq6Onnvvff0devWaUeOHJGoqCjJzMxUU6dOVTk5Oaqj6wcA/rRhwwZNqVO3tpSUFOnduzf3OQBA0CIACADolDZt2qSdccYZrufU0qVLnXPnzjU6sk7B7LnnntPvuOMOS0lJSZP/e/HFF50EAAEEk9LSUhk1apTrGfPQQw85b731Vu5zAICgRQAQALqQjRs3ak888YRr+Iarr77aGDNmTKsbLPfff7++d+9eTUQkJiZGHn74Yaen9f75z3/qd955pyUsLEyeffZZx8yZM9utcbR161bN/PuwYcNomAXIbbfdZvnzn//c7LAg2dnZ7HsAQWXLli1uz5j8/HzucwCAoEYAEAC6kA8//FB7+umn3QKAbSnnkUcesZSWloqIyNixYz02eo4dOyY33XSTxW63i4jITTfdZJk5c6ajLZ/XFuYAYGxsrGRmZtI4C4AXXnhBNwf/NE2TyZMnq4kTJxq6rsv+/fu13Nxc9j2AoNL4S6b8/PyOqgoAAO2CACAAdCHmBouu6zJo0KBWB2ZKSkqkIfgn0nzWw/Hjx7WG4J+IiGG0b+9bc3ZGfn6+0jTN2+pog/r6erntttssDb9brVZ5/fXXnRdccAFdrQG0yo4dO7RPPvnEdaO+7LLLjJiYmI6sklfm52l8fLykpaXxRQcAIKgRAASALsTcYOnXr5+KiopqdRmNuz0NHjzYY6Onf//+6tJLLzVeeeUV3WazyYMPPtiuQaGtW7e6fqb7b2C89dZbenFxsev322+/3SD4B6AtXnrpJf0Pf/iDLnLqy4RFixZ16nuJ+Xna3HMQAIBg0ux4PwCAzsXpdMp333132g0WXwOAIiIvv/yy89ChQ46jR4/a582b126NubKyMikuLnbVkwBgYKxevdq1jy0Wi9xyyy0ex4IEgJaYv7Tp37+/Cg8P78DaeKeUkm3bthEABAB0K2QAAkAXsXPnTq22ttb1e1vHK/Iw7pHXhk+vXr3avWG0efNmJgBpBxs2bHDt5xEjRqjExMSOrA6ALqzxsA0dWZeW7N+/Xztx4oTrdwKAAIDugAxAAOgiWpO552s5qamp0qNHj9Otmt+Z6xgSEkLjLEB2797t2s9DhgxhHwNok5qaGtmzZ0+XCQBu2bLF7ffOXl8AAPyBDEAA6CIaZ+61JShmGIZbN2Jvk4isWLFCb8g4zMjIUKNHj/b6eUop+fzzz7VVq1bpu3btkurqaq1Pnz5qxIgR6uKLLzbi4+NFRGTfvn3aV199pYmI2Gw2NXv27Cblmrtm5eXlqbCwMBE51TX4zTff1Ddt2qSVlpZKXFycDB8+XM2fP99V/ukqLS2Vjz/+2DWO1UUXXWSInJoVecWKFfrXX3+tHTt2TGw2mwwZMkTNmzdPpaent6nx+M0332irVq3Stm7dqtntdomNjZX8/Hx14YUX+lTm1q1btYKCArd96XA4ZOXKlfrKlSu1kpISLS0tTd14443G4MGDlXnf19TUyPHjx11lnTx5Ul577TXXF4MJCQlqypQpXutQWFiorVy5Utu8ebNWVVUlISEh0q9fP5kyZYoxadIknyduee+997SKigpNRCQrK0uNHDlSlZWVyZIlS/Svv/5aq6io0AYOHKjuu+8+Z0hIiIiIFBQUaA3XRExMjJo+fboSETl06JD29ttva5s2bdKOHTsmsbGxkpOToy677DLVp0+fJtvjdDpl9erV2gcffKCXlJSIw+GQtLQ0mT59ujF58uRWTz5TX18vn376qfbhhx/qRUVFUlFRIXFxcTJ48GA1e/ZslZeX59O58tZbb+l1dXUicio7s3///krk1EQLy5cv13bs2KGdPHlSUlNTZdKkSWrWrFlGw77xlWEY8tlnn2kfffSRXlhYKA6HQ2JjY2XgwIHq/PPPd31ma1RXV8vKlSv1L774Qjt06JBYrVZJTU2Vc845R02fPt0IDQ1tbZF+c7rXW2Pl5eXy7rvv6mvWrNGOHj0q1dXVkpKSImeccYaaM2eO0ZYvV3bt2qWtWrVK27x5s1ZeXi6hoaGSlpYmkyZNMqZNm6YsFovHv3M4HLJs2TLX9du3b181ZsyYFrfpm2++0Xbu3Ok6yceOHevxOvHk9ddf15U6ter+/fvF6fzvCALHjh3TzPeT2bNnGzabrdmyioqKtBUrVmgbNmzQysvLRdd16d27t5x99tlqxowZrT63W9LaTPgGBQUF2sqVK7UtW7ZotbW1EhUVJYMGDVJz5sxR2dnZrT6HKisr5b333tM/++wzrbS0VCorKyUpKUlGjRql5syZY6SmprZYRk1Njbz99tuufT1+/HjVq1cvtX37dm3JkiX69u3bRdd1Oe+889Q111zjGsrjk08+0Y4cOeJ23xURKS4uljfeeEPfsmWLVlZWJgkJCTJ27Fg1d+5cIzo6urWbCADoTJRS9SwsLCwsnX+56KKLnCKiRESFhoaq+vr6Vpexc+dOe0MZIqJuvvlmp6f1ampq6i0Wi2u9u+++2+Gt3I0bN9rPOOMMw1y2eYmKilJ///vfHUqp+ptuusm1HWeccYbhqbxx48a5yrr88sud1dXV9XfddZczLCzMY/k9evRQq1atsvtjPz///POOhnJzc3ON2tra+rvvvtsZERHh8bNDQ0PVPffc4zAMw+fPWLdunX38+PHN7q+QkBB10003OVs6xj/+8Y9d+/Lss882CgsL7aNGjWpS7vvvv29XStX/4Q9/cDT3mY2Xiy++2OO5oZSq37Jli3369OnN1l9E1KBBg4w1a9a0eEwMw6iPi4tz/d3//d//Od544w1HYmJik3PI/HfXXnuta9tnzpxplJWV1V9//fVOq9XqsT5Wq1XdfvvtTvNxeuONNxy9e/dudjvGjRtnHDp0yKfzqqqqqv7BBx909OjRo9l9ouu6WrBggfPEiRNey6qsrKzXdd31dytXrrTv37/ffuGFFzqbK3vIkCHG7t27fb4Gli1b5sjNzW1223VdVz/+8Y+d5eXlPpVnt9vrH3roIUdCQkKz25+ZmWl8+OGHfrlOW7P463prWA4cOGC/9tprnSEhIc1ua1RUlLr//vt9vi8UFhbaZ8yYYWia1myZGRkZhrf7XHx8vGvdc8891+O9tfExy8jIcO2X+Ph4dfz4cZ/3ga/3kvDwcGW32z2Wc/DgQfvll1/uNJ/vjZe0tDRj2bJlXp9BrV0WLlzoNJff0vrbtm2zT5s2zev1cvXVVzurqqp8+vwjR47U33zzzc7w8HCv++2OO+5wOhwOr2WtWbPG7Vhs3rzZ/pvf/MZpfoaLiJo7d67bPT0zM9O1PQ8++KCjvLy8/oYbbmjyd+b99Pnnn7f79cvCwsLC4r+FACALCwtLF1lycnJcL+v5+fktNlg8LcuWLXMLAD3zzDMeG1UbNmxwa1C8/vrrzTa+3njjDUdzgbnGyx//+EdHVlaWazt+8pOfNAkyNQ4I3XHHHc7Ro0d7DTaJiIqIiFBbt2497cbJbbfd5moYTpo0yTj77LNb/OyGevpS/mOPPeZoLkjVeJkxY4bhdDqbLWvEiBGuus2bN8+Zmprqsa7bt2+3K6Xq58+f32wAqfHy+9//3uMxf/LJJx3eGq3mJTQ0VC1dutRrw33//v1u59qNN97oMRgwYMAAt3N+7Nixrm1dsGCB03x9eFvuuusup9PprL/uuut82heDBw826urqvB7T/fv32wcNGuTT54uIGj58uFFdXd1seV999ZXbPlm2bFmTgKinJScnx6itrfVa1/r6+vqf/OQnPp8HgwcPNo4dO+a1zKNHj7odj5bOibfeesuvwZz2ut6UUvUffPCBPSYmxqfyRETdcMMNLd4Xli9f7mjuC4bGi67r6umnn/a4/8z3qt69e7f4jFiyZInb8+Cee+7x+bj8+9//9jkAOGzYMI91WbVqld1bwNi8aJqmHnroIb+dN0OHDnXtq+nTp3vdV88//7zP97yzzjqrxWtw7dq19qSkJJ/PoUsvvdTrOfTkk0+6jmNsbKy68sorPV7ft9xyi6ucxl8yPPXUU47s7OwWr+G4uDh14MABgoAsLCwsXXTRlFL1AgDo1GpqaiQ6OjqkoYvVZZddZrz00kutnrH1j3/8o3733Xe7+pB99dVXjjPOOEM1Xu/555/Xr7zyStd627dvd+Tm5jZZ7/PPP9cmT55sra//76MkNTVV5s2bZzR0ddywYYP28ssv69XV1aJpmij132L+8pe/OH/1q1+5zS584MABLT093TVEhc1mk5qaGtF1XWbNmmWMHz9eJSQkyM6dO7Vnn31WP3r0qOtvL774YuP1118/rZlsZ8yYYV21alWTfp/jx49XM2fONJKTk6W4uFheeuklvaH7rYiIruuydu1ah7eu0o8++qh+yy23uPZrZGSkLFq0yDjnnHNUdHS02r59u/b444/r5i55DzzwgPP2229vMgOz0+mU6OjokJqaGtfnG8ap1cLCwiQzM1PFx8dLcXGxbNu2zWGz2eT555/Xi4uLRUTkjTfe0NevX6+JiERHR8udd97ptt9mzZqlGncz/+tf/6rfdNNNrvrrui6zZ882zj//fJWamqrKysq0FStWaEuXLtUb6mKz2WTt2rWO5sYY/Pe//63NmjXLai6z4W8TEhKkX79+Std1ycnJUS+++KJTREQpJXFxcSHmQfwbPuuiiy4yhg8frqKiomTHjh3akiVL3M6RiIgImTVrltHQPTEjI0MtWLBA5ebmqsrKSvnqq6+0l156Sbfb7ebtdt54440eZ8EuLy+XoUOHWvfv3+86ZtnZ2er666838vLyVGxsrGzevFl7+OGHdfOYi//zP/9j/PnPf/Z4rj777LP6NddcY2nYHxEREVJZWSkREREyf/58Y9iwYSosLEzWrVunLVmyxK2u//jHP5w///nPPdbVMAyZN2+exdxVND4+Xi6//HLjrLPOUnFxcWr37t3a008/rW/atMlV1/PPP9946623PNb1xIkTMn78eGvjCSCuvPJKIy8vT9XW1moffPCB9uyzz7rqmZCQINu2bbOnpKR4KtJv/Hm9iYh89tln2pQpU9zud5MnT1YLFy40MjMzlWEY8vHHH+uPPvqofvLkSdc6q1atcjR0UW/sq6++0iZMmGA1H8Px48eriy66yOjVq5ccOXJE3n33Xf2dd95x1dFqtcqGDRuaXFM33HCD5R//+IcuIqJpmpw8edIeGRnpcd8opSQ/P9/aMNxCYmKi7Nmzxx4TE+N5ZzayceNG7f3333fV6YknntD37duniZzqfvyzn/3MtQ9zcnJcQyk0WLlypTZ37ly3fTlx4kQ1f/58o2/fvqqmpkb78MMPteeee87VFV7TNFm+fLnz/PPPP60Z6R0Oh0RFRYU0lOvtWly8eLF+5ZVXWhqeW2FhYbJw4UJj6tSpKj4+Xu3atUt78skndfP57628LVu2aGPHjrVWVVW5/m3cuHHqyiuvNLKyspTVapXPP/9c+8tf/mIpKytzrfPCCy84Fy5c6HG7f/nLX1r+9re/6SLu908RkbS0NNW3b1+pqKiQX/7yl8Z1111niJw6784880zXfTcmJkZOnDghVqtVZs+ebYwbN07FxsZKQUGB9q9//Us332uvv/564/HHH2fGeADoijo6AsnCwsLC0vKyfv16t2yL++67r02ZEOYMMF3XVWVlpcf1br31Vtd6NptNeeqCVFVVVd+3b1+3jIHrrrvO6anMgwcP2gcMGNAku+Ddd99tkkmwcuXKJpkleXl5hqfsvqKiovqePXu61ouIiFAtZV+0tPTp08etnr169TJWr17d5LPr6+vrL7/8crdMC2+ZGh999JHd3LVq6NChxr59+5qUW1VVVX/WWWe56pCQkODxOG3fvr3JfoqOjlaPPPKIw5dum+ecc47rM8aNG9dittCHH37oVv+UlBTVXHewt956y2HuHjlx4sRmy3/ggQeadEseNGiQ8fbbb9uby8b6/vvvm2z7ueeea5SUlDRZt6ioqD49Pd1jZssdd9zhsdvn+++/77atZ511VrP1v+aaa9zOgZtuusnpqd5lZWVu3S1jYmJUc5mFt9xyS5MMnpkzZxqlpaVN1l21apXdnMkzderUZut67733uu3radOmGUeOHGmynsPhaHJuf/rppx6PdeNuyc11h//ggw/s5nPitttu8yljtq2Lv6+3uro6tyzs0NBQ9dprr3m8D3/xxRd2c9bhrFmzmt3WMWPGuMq0Wq3qpZde8ljmv/71L7djt2DBgiZl/vOf/3Rb55tvvmk2U+vNN990W/dPf/rTaWXX9erVy7UdCxcu9Hpsd+zY4ZZFGRER0WyW+fr16+3mrs19+vRpMSO3pWXbtm1u94/nnnvO42dv3LjRbs5u79+/v1FQUNBkn9bV1dXPnDnTtf02m00dPny4SXmGYdSbs9ktFot66qmnPH721q1b7eas0DPPPLPZ63rSpElN7m8XX3yxc9OmTc0e/2eeeabJfXfYsGFGYWFhk7/Zvn27PTo62rVeampqm3ogsLCwsLB0/EIAkIWFhaULLM8995zby/q1117rfOKJJxytXczBraysrGZf4s3ju40YMcLjer///e+b1MnbNuzatcveuKvwwYMHmzQ2GgeEhgwZYngbM+2HzDXX+jt27Ghz96Ty8vJ68xhcKSkpytu4atXV1W4Bw4iICI9jM9bW1rqNt9S3b1+PgZeGZefOnW7BEk/daF9//XW3/ZSamqo8NU6bW8xj1V133XVej111dbVb8CouLk599913Xj+r8XFZv369x/UbB5pmzJhhtDSO1ooVK9wa8BMnTjSaG2NMKfcucg3L3Xff7XWbzY3qmJgY5Wmd2traepvN5ipz9uzZXst89NFH3eqxceNGj/tkypQpbg36RYsWeQwqNizm8Tf79Onj8XrduXOn2/U3fvx4r4GU6upqt6COp+u78Tl45513et3+m2++2XWsfemi2tYlENfb6tWr3c65xx57zGvAbNasWa5tTUpK8nj+7Nmzx63M//mf//G6/yZOnOjapp49ezYp8/PPP3cr75VXXmm2juZzJikpSZ08ebLN+7u8vLy+NcFE85cPVqtVtTQu5OLFi93OsxdffPG0gpWvvvqqW3me7k1Op7N++PDhrnomJycrTwHkhuXw4cP1UVFRrjKfeOKJJnX89ttv3Y7P7373O6/H29yV19u4v427E99///0t7h/ztShy6ksOb8MSXHXVVW7rtzSOKQsLCwtL51yYBRgAuoDGMxY+/fTT+tNPP31aZXqbRXjr1q1e16uurpa//vWvrq51WVlZ6rHHHvPaJSgrK0tNnTrVWLlypS5yquthWlpak7LN2xoTEyNvvvmm09vMg43rV15e7q0aXm3ZskVTpi7Kjz76qDMzM7PZ/WSz2WTRokXq3nvv1URO7ZctW7ZoI0aMcPubp556St+zZ49m+t2ZlJTUbD369++vzjrrLPXJJ59oIiKffvqpNnfu3MZ1df2s67q8+uqrjgEDBjRbV7Pi4mIxd4ttaUbpJ598Ut+7d6+r/v/4xz+cLc1me8sttzgfeOABV1fgpUuX6iNHjmxyjpiPd1ZWlnr55ZcdERERXutv/htN0+Sll15yWq3Nv9I03r7MzEz1u9/9zuv5OmjQIPXxxx9rIqe6uTocDmn8GWVlZWLuGjxv3jyvXRPT09PdfjfPwmxmngV79OjR6qmnnnLquu5xXZFT2/f111831NXjtMX33XefqytleHi4vPDCC05vM/LabDa54IIL1OOPP66JiHzxxRdu5TqdTrnzzjtdlRoyZIi65557vO7TK6+80nj00Ud1EZGDBw9qe/fu1TIyMnw6Z1sjENebxWKR2267zXV8Fy1a5POxbu44b9++3e33OXPmeC1z/PjxavPmzZqIiN1uF8MwxHxe5OfnK/MwC4WFhR7L+fDDD7WG80VE5NZbb3VGRUV5+2ivzEMhiIgMGjSo2XVXrVqlNexnEZE77rjDmDx5stdzYMGCBcatt95qOXz4sIiILF26VFuwYEGb62u+f1gsFhk0aFCTz3/11Vf1b775xrXeI4884vQ2U3RycrJMnz7dWLp0qS5y6hz66U9/6rZOfX292zl0/fXXe71ezOdQfX29VFVVSVxcnNs6hw8fltLSUtfvV1xxhfGb3/ymxS7S5n2Qmpqqli1b5vA2S7OH56z2Q1YgAKALIQAIAF2AeXwhfxk8eLDHfy8vL5eDBw9qpvWavOQvX75cN49PdNdddxneGg8Nvv/+e1e5AwcO9Nh4MDdMzjzzTOUtACdyKhBh5ks9mtM40Dpy5MgWGzg/TH7gaoXv27fPLQColJKG8ZlETo1zNW3atBbLHTBggCsgsXfv3ib/bw4SZWVlqQkTJvjcGGt8PnkLACql5LHHHnPVf9iwYeqyyy5rsYHZo0cPyc3NVd99953HAJLIqbG4tm/f7vr3Cy+8UPkyBpn5OPXu3Vv16tXL67Y3DnQtWLBAeQsYiojbWJUhISFNgn8ip8a7fPDBB30eC+uHbqEuns7Vo0ePSsM4jSKngoreAnUi4jbmV3h4eJP/r6iokFdffdV1DBctWmT07du3xfNl2LBhNE60YAAAIABJREFUKjIyUqqqquTw4cNux+/dd9/VzGPn/f73vzda2qcDBgxwC1Dt2bNHMjIyWqpGqwTqeps4caKaOHGiz8faYnF9P9LsPSkkJMTt96KiIk1OZVh5dO+99zrvvffeZusQExMjffv2VQ332cLCQo/Pjfvvv99VuZSUFPnFL35xWmPqeQgANrsNjz76qOuze/ToIT9MuuSVxWKRsWPHGsuXL9dFRL788ktdRNo8Bp35C66srCzl6Zoxn0ODBw/26Z43YMAA18/mL0wajBo1So0aNao155BrP2qaJmFhYU3WaQgIN2gpMN3AfA+dOnWqSk5O9rp+4+fsD5OiAAC6GAKAANAFmBssKSkpMn78+FY32Pbu3att2LDBa2BPxLfg0LvvvutaJzY2Vi699NIW62O3290apJ4aiY0DQi1lpomIW7BERDxmFfrK3CiKjIyUloKPIiK9e/d2+90cGBU5NQmKOVBy/fXX+3TsNO2/h6G8vLxJY9JcV1/2k1njY9zcBB0iImvXrtXMgduf/vSnhrlu3gwbNswVANy1a1eT/9+5c6dWW1vr+t3X7Wi07S2u35A51OCH7o9emc+r3r17+6Wx2zgo4GlindYEZxv8EDgSERFPwdD//Oc/esNkMSKnsoR8qe+1115rXHvttR7XfeWVV1wBkrS0NNVS9pqINJkE6Ifz2q+BhEBdb61lDiJmZ2d73MbRo0eriIgIqa6uFhGRm266yRIfH6+mTp3a5n2Sn5/vNQC4du1a7aOPPnL9++233+5sKeO2JeYAYEREhDSX1Xn06FFZvXq1a92FCxcavmYeDhkyRC1fvlxEREpKSqSqqkqam+CkJeb7R35+fpO67tu3T/vyyy9d6/zsZz/z6Z7X6BxqU93MzPeLPn36KE+B5MZfWnnansaOHj0qJSUlrt99fM66Psdms0lCQkJLfwIA6IQIAAJAJ3f8+HE5dOiQ6+V75syZxjPPPNPq7Ie7777bYg4ANtdQaNygGDJkSJN1vvrqK9c6Z599tuEpg6KxwsJCzTzjo6dGR1sCQuZMuNTU1NNqmJi3feDAgcpbt8sGjbMyGmf1mBu8IiIvvPCCtnTpUou0wLyPG39GbW2t7Nq1q1VBMLNG3b8kMTGx2XXNwQKRlrspNqeystJrEFPEt+PtcDhkx44drQp+ms8REe9dFBuYgxoDBw5scf2ioiLttdde09asWaNt2bJFO3LkiFZRUeGWnWeWkpLi8Vz10KBv8bO3bdvm+tlTZu3atWtdZcbFxcnYsWNPO+i2evVq18WhaZpccsklLZ7TDV2QGwQiiygQ11tjmzZt0pYuXaqvX79eKygokBMnTmgVFRXNrt9ctnNsbKzccccdzt/97ncWkVOBrWnTplkHDx6sZsyYoaZPn25MmDChxWxVs/z8fHn77bdF5NT9tPH/33///a7j1qtXL7fZetvKfK3k5eU1e9/85JNPdHMmWWvuJY3LPHHiRJsCgDU1NWLuHu7pi6gPP/zQbb+99dZburnbcnPMM2e39EwsKCjQli5dqn399df6tm3bpLy8XPMWNGzuHmS+XyQnJ0tLmXwibfuSwXwPzc3NVeYMVwBA10EAEAA6uba8rHtiziIMCwuTnJycFgOAnsbpO378uFvD0tdgQuPAhqeGV+Nt9SWbwdz49HUMPF/q6Mtni5xqiJo1bpQ23qaGMRBb44fZIF0KCgo0c0P6dDIAvXXXE3Fv1KampqrU1FSfP8dut7t+9tQgbjwWV3OBErMdO3Zo5kBSaxuvUVFRzWYoNaivr5fdu3f7tI+Kioq0O++8U1+yZIneXLDPk+bO1cbXX0vZhxUVFW4ZgJ7qah7vbdCgQT4Ftr1p3E354MGD2tKlS1udNXc63fWbE4jrrcHatWu1X/3qVxZzdpgvvJ3Xd911lxESEiJ33nmnpeH82bp1q7Z161btoYce0uPj4+WSSy4xbrzxRsOX68N8PRw/flxKS0ulYfzDLVu2aG+//bZrf9xxxx0+fXnTkoKCAtfP3q4V871E0zSfhlhoYLfb3fZ5W+u9bds2t3unpwB743Pogw8+0ESkVce8uXN78+bN2q9//WtL4yBjS3wZMqOle3kDDxngLf6N+Rj7ch4CADonAoAA0Mm1JUuqpXJycnJU40y1Bi0FhwoKCtwmysjMzGz154t43o7WBoSUUtLQxbS5+vqquLhYjh075rV+npizSUSadhc1Z+q1VeNuxqdzThiG4bbPWgp0mrv/Zmdn+/oxIuKe9ZeYmOgp4Ov6OSsry2MXt8basu3mAGDDOHTeFBYWaubgZXPn1Zo1a7SLLrrIeuTIEde/6bouubm5Kj09XZKSklRycrJYrVYpLy+XZ5991pUB1dy53ZrgbMO2ma9HT5lC5u6ozQX+W8NTZllbND6v/SEQ15uIyN///nf9lltusTgcDte/hYeHS35+vurZs6dKSkqSpKQkcTgcUlhY6BZ4bCmD9PbbbzdmzJih/vznP+uvvvqqbs6UPn78uDzxxBP6M888o//iF78wHnroIa+TtzS+nnfs2KH9MEusPPDAA3rDudKnTx/VXPfu1qisrJQDBw74dM6az8OePXuKL+N9mj+nQWhoaKv+1syX+4efzqEm5b7wwgv6NddcYzF/gREaGiqDBw9WKSkpkpycrJKSksQwDNm3b580TCgi4vl+oZRy+wKsLUMoNDcZl9mJEyfcxgUmAAgAXRcBQADo5Dx0yW31y3d1dbVboMpb0MccLPG0nrkhJuL7mHvmborNdVUyZylmZGSolsam+v777zVzfU6nYdKW7EMREfNMkSEhITJ06FC3vzOPCThp0iR1xx13tLr7duMgq/mc8JbN6cmuXbu0hjHHRFpuNJoDYc0FjZtj3jeejk1bxjFsbZDYMIxWjyvZeFIDT5+xb98+bdasWdaGbnuhoaFy6623GjfeeKOzZ8+eTco8fPiwPPXUU35v0PsyAYM54NDWcdPMGo9z+be//c3paTzDlvgyxmZrBeJ6W7p0qX7jjTe6+jympqaq++67z7j00ks9Tn60ZMkSfeXKla7ffbkv5efnq8WLFzv/9re/Od977z39nXfe0VatWqU3BJcdDoc89thj+r59+2TZsmXO5oLYeXl5KiwszHXMd+zYoY0fP17t3r1be+2111zn329/+1ujpa7Ovmj8hZC3AKA5eNp4QpyWmIevyMnJaXMXVPP9w2azeRyf0XwOjRgxQj3wwAOtPof69Onj9vtHH32kLVq0yJXlmZiYKPfcc49z0aJFHsdBXLVqldZSAHDPnj1uz7+23EPb8iWDL0MoAAA6JwKAANDJmQNTvo7x05ivXUaLioo0c+PH03rV1dVuLU9fuxM2Hl+vpXV87P7r9rs/A4C+BlrNY44NHjy4yYyS5v2emZl5WgP8NzDXNTc3t1VjhLW2S3lbG9qFhYWaefKNxl3FG4/F5es4huaswf79+3ucwdNs7969WlVVlev31mYM6rru8bz69a9/rTcE/8LCwuTdd991nHPOOc2W3Xi2Tk9lHjhwwG0sudbW1WazeQyqmYNF/hi7q3FX53POOUe1NTPZ3/x9vdXX18sNN9zg2mmZmZnqiy++cHgK8jYw38fCw8NbFeiMjY2V+fPnG/PnzxfDMJzLly/Xb7nlFn3//v2ayKkZ2JctW6bmzp3rMXvParVKXl6e+vbbb90mAvnzn/+sNwTg+vXrp6666qrTzv4TEbdsYhHv2Y5t7XpeW1srGzdubPWwE56Yj01eXp7HQKL5HOrTp89pn0NKKfnZz37mCv6lpqbKmjVrHN6GImh8n27pCxQR3+4XSqkWv+RrzJcvRAAAXcPpDQIDAAg488t6WxvZvgZ9Nm/eLC2tZ7PZ3P6ttLS0xe5StbW1LQ683jhL0ZeAUOPJHU4nCGFuTPXs2dOnQGvjmZUnTJjQ5POjo6NdPzfOnGorc6Zka7fZ/Le6rreYAWLOcGpN/Z977jm3d4yZM2e6fU7jsbjaOANwWyYAaVVguV+/fk0yUY8dOyYrVqxwbd/VV19teAv+iTS9Bj3Vo/H150vj3Lx9zU3AYM7cNM8G3Fbmc1rEf+e1P/j7env77bd1cyD74YcfNrwF/0Tcj/XpZKvpui4XXXSR8cknnzjN2XpvvPGG13uu+bwpLCyU4uJief75510nRsO4g/5gDg61NL6m+TqqqKjQfB0z85VXXtHNWcuN7yWtYb7/NXd9NTqHTrs78Keffuo2M/U999zjbGkcUvN9rlevXio2NrbJOuYvQzRN8+l+sX//fs08bm1bvmTIysoiAAgAXRQBQADoxA4dOqQdP37c9bs/xv8TaX7Qbw8zkDb5vMZdm8yN4+b4koHYloktzA2T5mZV9VVbuqM+8sgjurlr1NVXX92kRWue7GH9+vWn3ZgsLy93G4+pDQFA199mZGSolrqEmrM9tm3b5jZLc3MqKyvl2Wefdb1jjBs3TuXl5bnVsy3ZK9XV1bJ3795WdV9rnCXqy6y65qBGM4E6tzECp0yZ0mI9zEGhhvHiGvPl+vNQV9fPzWXmZGVluX5unInYnJ///OeWkSNHWkeOHGn93//9X7cIVuPPWbdunV/GBPQHf19v5swzEZFp06a1GLUyB3I9HZOVK1dq8+bNszQs5nu8JxkZGWrYsGGucsyTvnhivpYKCwu1v/zlL5aG6zYrK0stWrTIL9l/Iu7nX15entfxNc374uTJk02yBz0xDEP++te/uu4lKSkpMmPGjDbV//jx43Lo0KEW753mc6jxtd4WHs6hFq9r83XqywzA6enpqnFg3hNz0FCk9c/Z0wloAwA6HgFAAOjEfMnI84W5oRATEyPp6ektdsFNS0tT8fHxTdbJyspyy4j6+OOPvTbilFLywAMPuD1v/j97Zx4f0/X///e5d7ITSSSREBIRIrHv+9LYYoudorTaWrqgli7aUrRVpdKilBZFtfWppfYiYi+qtshiJyRkQSSRdWbuPb8/0rm/c+/cmbkTUanv+/l4nMcjk9w5c+7ZJud134uWDMD2xj97ErckZWIMS1lAWeLi4ggb061NmzZUzW2YtQxLSUkhrMuwJfLy8mD37t2q1z1pVmj2/Vrey7q/6fV60NL+KVOm8GxiDLU4bEo3SbVYXGrvYa2GtIh57OHVy8sLqlatajPmIZsEQO3wnZmZKesDW5ZMR48eJRs3bpTmilIMNaG0+lFbfyw5OTkyQcPSGujYsaPUwLi4OGJyXbbElStXyKpVq7hz586Rc+fOEaXFj6+vr+we1q9fLxPCLXH06FHCZg9+GpT1emPnMYDtsZ43bx5na0wePHhANm/ezJmKUvhV48GDB9LPgYGBVjub3Ydu3Lgh26dmzZol2hMywBZXrlyRWaBau1bpSrt3716b9x0dHc2xsUSnT58ulNZ6Ueveyc6hnJwc2Lp1q83zUnFxMWzbtk31OuV+wT7oUuP777/nTC7cANpCZtgRQuGJHjI8SaItBEEQ5NmDAiCCIEg5pgwzAEs/h4eHW7TSUIhDqtc4OztD165dpVPwli1bOOWhwoTBYIC33nqL37Rpk+z7xlYGYGdnZ5uJLSilsuQOTyIA3rhxQxYnbteuXZw1YTM1NZUMGTJEls3xgw8+UFUGhg4dKksUMHnyZF6ZSIUlPT0dunTpouvbt69u1qxZvFJYUZkTFutSUlRUJBO3tLy3T58+ImutNmPGDN6aFeCSJUu4VatWSePdq1cv2qdPH6uCr9Y4hqVZD1piT7JcvXqVsFlY1Q68Xl5est/9/vvvFufKzp07Sb9+/XRsn2nJAKxF3FT2h6Xg/MOGDZNcgwsLC2Hu3LkWTXhycnJg+PDhvMnqqVq1anTgwIFmc5u1Irt48SL55ptvrP5P+euvv3Ldu3fXtWzZUnfhwgVZu7Ozs2H+/PmcqbDr2l7Ker0prYotiUGCIMCcOXO4jz/+WGktaXZtu3btZB8SHR1ts+9u3Lgh9Unbtm1tCYDSz8XFxfD48WMAKLHeGjlyZJlZ/wEAPH78WJaQyEa7aNOmTaW2L1iwgLdmQb5jxw5Zf4aHh9O333671O1XsbBVva5Pnz5i5cqVpdfvv/8+xwqwSrKysqB37966AQMG8BMnTuSVAp/W/YJSCosXL+befPNNqxa3ACUPY0zxHQFKF0LB0kM+ltzcXJsPGW7cuEHY9Xv//n0tTUEQBEGeASgAIgiClGPYf9a1xvhRkpWVJXMZs1SHIAgyQc3aZ7366qvS3wwGA/Tq1Yv/448/JOssURRhz549pEOHDrrvvvtO9l1jybKJvVctgpAyA/CTWCYoD4aUUoiKitKtW7eOYzNXGo1G2LhxI9eqVSuejek0YMAAMSoqSvVg6unpCR9++KF0IkxMTCSdOnXSKd0Ts7Ky4JtvvuHCwsIcTp8+TSilsHr1aqI8TCmtOYOCgjTfd2ncrF1cXGQWfPHx8SQyMlLHxmsEALh27RoZM2YMP3nyZOnwWqNGDbp69WojqFCaOIb2Wg0KgiCzUCqrrLqtW7embObOX3/9lZszZw6Xnp4OACWH82PHjpERI0bw/fr10ykt7tSsEI1G4xO31ZKwWKdOHTp48GBpfn799dfcBx98wLOiN6UU9u3bR1q1aqVjLa6++eYb1SylEydOFFlLtHfffZf/+OOPeeW9/v3332TgwIH8iBEj+OLiYkhNTSUbNmyQ7Qlnz54lM2bM4E3FloWiNcp6vXXp0kW2rqdOncr/9ttvnElUe/z4MWzcuJFr166dbvbs2WYCotpY165dm7JuoNu2beNee+01Xiky3b17l3z88cf8yy+/LFtTo0ePtiqCVatWjaqFQ/jkk0/EsnbfZMWtmJgYYloDbMw+lk8//VQam8zMTHjhhRfMxiY9PR1mzJjBDxw4UHrIUrFiRfj111+FJ8lczO4fnp6eEBAQoLpenJyc4LPPPpPaefv2bdKhQwfd0aNHZe3Mzc2FlStXcuHh4Q4mS9NffvmFS05Oll3XpUsX2efMnj2b//HHHzlTwp+CggLYtm0bFxERoXvnnXfMBES1OXT58mWZa3IpY6javF5LBuD9+/fL1m9ZxZdEEARBngKUUj0WLFiwYCmfpUmTJiIAUACgQUFBYmnqOHz4sMFUBwDQxYsXG9Wuu3Lliuy6tWvXql5nKi+88ILIXg8A1NPTk9asWVN0dnaWfkcIof8kDqEAQLt166Z6H1WrVpXqGzlypGDrvnbu3Clr75EjRwyl7ee5c+ca2brY9np5edG2bduKbdu2FStXrkyV91yvXj3x0aNHVusvLi7Wd+7c2ay/goKCxA4dOojh4eGio6Oj7G8eHh70woULZvfUoUMHqZ7WrVvbNSfWrl0ru8+EhARNfWY0GvX/xD6T3stxHG3YsKHYqVMnMTQ0VOQ4Ttb+gIAAMSkpSbX+hw8f6tlrv/jiC6tzzVT+sTylAECbNGli896vXr0qmyNLly61+TmzZ8+W+ojneVpQUKB63axZswTleAIAdXd3p4QQ2e/8/f1lrxctWmTWjsTERFlbf/zxR5ttnTx5stQGFxcXKgiCxWvT0tJkawwAqJubG23btq34wgsviMo2AgD96quvrLbh8OHDBnatmNrRpEkTsU2bNqK/v7/ZnB80aJCgbOc333wjm5e21pOtUpbrTRRFfbt27czq4jiOVqxY0azPlP0YFxenugauXbtm8PX1NaszKChIbNWqlRgYGCjyPC/7u5ubG42NjdW0Zv9x+5beGx4eLlqbH6UtY8eOla0DnudpxYoVqZ+fH7X0njfffNNs7dSuXVuMiIhQHRt3d3d68ODBUu/vpsLune3bt7e6fwiCoO/fv79ZOwMCAsQOHTqI9erVk33PAQB1dXWlx44dU21nVFSUxf3C1hxSG/Off/5ZtmbOnz9vs38MBoPeyclJes+0adNsfs/+8MMPss+5cuWK2eew42lt3LFgwYIFy7MvaAGIIAhSTrHHIs8aWuMe2RtbbuPGjUZlzLtHjx7BrVu3pEQRrq6u8NNPPwkeHh7SNWoWVUorxaeV3dUSrFWEk5MTHD582GjK9JmVlQUnTpwgJ06cIA8fPpS9r0OHDvTgwYNG9v7UcHR0hF27dhn79u0rs9xJTk4mx44dI0lJSTK3086dO9Nz584ZGzVqZHZPT5IVWnmfttysTfA8D1u3bjX2799far8oinDx4kVy5MgRcuXKFVlsvh49etDTp08b2WD6LKWNY2jvvZcmSzRrVRcUFERZd1KWWbNmCUOHDjWzxMrNzQXKWMx069aNxsTEyKwgTdZjLE8aAzM0NFQ1A7AJPz8/iImJkWUfzc/PhxMnTpBDhw7JYvP5+vrChg0bhGnTplm1NOvUqRPdsWOHkc2YXVhYCOfPnycnT54kaWlpMovNBQsWCL/99pugbCcb7ywoKIjaWk+2KMv1RgiB3377TVDOZVEUZePI8zy8++674vz582XmW2pjDQAQEhJCDxw4YGTj5omiCMnJyeSvv/4it2/fllnrBgUF0b179xojIiI0rRXl98Xs2bNFa/OjtEyZMkXmci0IAjx+/BiqVKlisZ1LliwRJk2aJLKhKK5du0YOHjxoNjZNmjShJ06cML7wwgul3t9NsPuBre9TjuPgf//7n/DSSy/J5lBqaio5duwYUSZEat68OT1z5oyxffv2qvWuXbtWaN68udnf2Iy8hBAYN26cuGLFCuUcMnMZZvdynU4HlvZalitXrhA2bIW9e6izs7NqBmDWpV9tDSEIgiDlh7KLAowgCIKUKenp6YT9p17pRqSVgoICYOMuqSWqACiJ/WW6jhBiM16ar68vHD161Lho0SL+u+++k8VI8vPzg4EDB4offfSRKAgCsOKC2uenpKQQto2tW7e2ea/FxcVSez08PICN2WQvrPgSHh5OW7ZsSS9dumSYN28ev3HjRsJm3QUoOZS+/fbb4ssvv6zZpc7NzQ127NghbNmyha5cuZI7dOgQYd2LnZycoEOHDvT1118Xhw4dKqrFaXz06BEEBQXRoKAgAADo2LGjXXPCaDRKfVazZk1qj6uWm5sb/P7778KWLVvokiVLuBMnTsja7+rqCt26dRPfeOMNsUePHlbb9fDhQ9l4N27c2Obn5+Xlgb+/P/X39wcAeaB+S7BzGkCbiM7zvPQeS4d503UbN24UevbsSaOjo2VxMB0cHKBDhw508uTJYlRUlGgwGKBZs2bUJAwKgmA2uLm5ubK2ahG0HR0dpfdoySwaHh5O4+PjjdHR0dzatWs5pRt3/fr16ZAhQ8SJEyeKtmKDmejatSu9dOmSYeHChfzGjRuJ0v2xatWqdMCAAXTy5MmiJZftAwcOSO/RMq5aKIv1xt7DX3/9Zfzyyy/5NWvWcOx+VqlSJejdu7c4Y8YMsX79+vT48eOyuW3NnblBgwb03LlzxtWrV3Nr1qzh4uLiZEK6o6MjtGnThg4ePFgcN26c6OjoqPn+2URNDRs2lLmAlyVhYWF0586dxvHjx/NsnEJr7vk8z8PixYuFQYMGiQsXLuRiY2O5wsJC6e+m9fPaa6+JL774YpkIl1lZWbK9s0OHDprW108//SSMHDlSXLZsGRcTE8OxAppOp4O2bdvSMWPGiC+99JLV5Cqenp5w7NgxY3R0NLdy5Uruzp07Ul+5ublBZGSk+P7774stWrSgCQkJsjmkFsNSr9dLa79GjRpUi2t0RkaGbI9p1qyZzT4QRVF6T61atcwyAOfm5sqygP9jeYsgCIKUUwilVG/7MgRBEASxzt27d0lGRgb4+PhAQECAlGhk9erV3Ouvvy6dGhITE41PkrCjrCkuLoaKFSs6mOIpvfLKK+KPP/4oWWBQSiEtLY3cvXsXCCEQHBysGl+rNJ+bkpJC8vPzoUqVKrRKlSpgTYQob+Tn50NycjIpLCwEd3d31cPh/yUePHgAqampxMnJCWrUqEHd3NyedZNskpmZCffu3SOOjo7g7+9vMyGAFh4+fAipqanE2dkZAgICbPbDwYMHSZcuXSTlZMuWLYJa0pEnpSzX2507d0hmZiZ4enpCjRo17BLSrfH48WNISUkhhYWF4OXlBf7+/tTZ2dnuerKysiA4ONjBFGNu69atwoABA566MHPr1i2Sl5cHfn5+lE0cZAu9Xg83b94keXl54OLiArVr16b2iJ3/Fnq9HlJTU0lOTg74+flRX19fKO2ed/fuXZKeng7u7u4QGBhYLu9XC999952UtIQQAhcvXjSWNlkZgiAI8vRBARBBEAR5qrRr10534sQJAlASnD4lJcVYnoSuuLg40rhxY0mA+Prrr4V33nkHrRgQ5F+ge/fuupiYGAJQYjV2+fJl49NwVf2/xHvvvccvXLiQAwBo2rQpPXPmTLnac5HnA71eD/Xq1dOZMsv37NmT7tmzRzXpE4IgCFI+wP+wEARBELvIyMiATZs2afr+2LJlC2cS/wBKsgeXt4OoMvZa48aN0XoBQf4Ftm7dypnEPwCAL7744qnEqfu/RFJSElmyZInUibNnzxbK256LPB8sWrSIM4l/yszJCIIgSPkEYwAiCIIgmsnOzobu3bvrLl++TFxcXGifPn0simWnTp0ir732muQf5ePjA/9kLS1XsEHOCSEoACLIv0BaWhpMmDBB2h/Gjx8vDho0CC1vn4CcnBwYPXo0b4pT1759e9q3b1/cz5Ay5+zZs2TOnDnS+v3iiy8ENr4ggiAIUj7Bx6wIgiCIZubMmcNfvHiR6PV66Nevn27y5Mn8rVu3ZOYl6enp8PHHH/OdO3fWmWJQEULg22+/FZ4kUcfTgrUArFGjxhNnIEUQxDY6nQ5atmxJAQAGDx4sLlmypNw9HPgvcfz4cdK5c2fd2bNnCUBJAgtlNlkEKSvc3d2lpErvvfeeiGEzEARB/htgDEAEQRBEMzk5OdC+fXtdQkKCWaZPPz8/yMrKAmUWUEIILFq0SJgyZUq5PCAEBQVSVw5LAAAgAElEQVTpbt++TQAAoqKixO3bt+OhGUH+BSilsHPnTq53796as2kj/58JEybwZ86cIffu3YO0tDTZvvvpp58KH3/8cbncc5HnA4PBAHv37iVoZYogCPLfAQVABEEQxC6ys7NhypQp/Nq1a21akXt7e8OqVauEfv36lcuD6OPHj6FSpUoOlJacX2bOnCnOnTsXBUAEQco9jRs31sXFxZkF+Js6daq4aNEi3McQBEEQBJGBLsAIgiCIXXh4eMCPP/4onDp1yjhhwgTR399f9neTa9+CBQuEmzdvGsqr+AcAcPnyZeLh4QGenp7g6ekJzZs3R0sGBEH+E9y9e1cm/vn4+MC3334roPiHIAiCIIgaaAGIIAiCPDF5eXmQnp5OnJ2dwdvbmzo7Oz/rJiEIgjzXXL16lSQkJJAHDx5AcHAwbd++Pe69CIIgCIJYBAVABEEQBEEQBEEQBEEQBHmOQRdgBEEQBEEQBEEQBEEQBHmOQQEQQRAEQRAEQRAEQRAEQZ5jUABEEARBEARBEARBEARBkOcYFAARBEEQBEEQBEEQBEEQ5DkGBUAEQRAEQRAEQRAEQRAEeY5BARBBEARBEARBEARBEARBnmNQAEQQBEEQBEEQBEEQBEGQ5xgUABEEQRAEQRAEQRAEQRDkOQYFQARBEARBEARBEARBEAR5jtE96wYgCIIgttHr9XD9+nVSUFAAvr6+EBAQQDkOn+EgCIIoycnJgeTkZCKKIlSvXp16e3s/6yYhCIIgCII8c/D0iCAIUo45c+YMGThwIO/p6elQr149XYsWLXSBgYE6FxcXh8zMzGfdPARR5erVq6RZs2Y6U9mzZw951m1CSs+iRYs401i2adNGJ4ris26SGZRS+PXXX7lWrVrpvLy8HBo3bqxr2rSpzsfHx6F169b4wPs55dtvv5XmZosWLXQGg+FZNwlBEARByi34DxGCIEg55euvv+bee+893mg0mv3NyckJfHx8nkGrEMQ2Z86cIefOnZNEP19f32fZHOQJ2bdvH2caz/r165c76+OioiIYOXIkv3XrVtWGBQQE0H+7Tci/Q0xMjLTX1KpVizo4ODzrJv2rGI1GWL58OXflyhXy4osvih06dMC5jiAIglgEBUAEQZByyOrVq7mpU6fy7O+cnZ0hMDCQ5ubmgp+fHxCCRlVI+SQuLk6anDzPQ3h4OB5K/8NcvHhRGs/69euXu7EcNWqUmfjn6ekJvr6+NDMzk9SuXftZNQ15yrB7TXmcm0+bmTNn8vPnz+cAANasWcNduXLFWKNGjf9z/YAgCIJoAwVABEGQckZGRgaw4p9Op4O5c+cKkydPFl1dXQEAoDy64CGICfZQXrNmTWqat8h/j/T0dMjIyJBelzeRZevWrdzmzZsl8c/Pzw9Wrlwp9OnTRzRZKuJ++XySk5MDd+7cYQXAZ9mcZ8KhQ4ek+y8qKoKEhASoUaPGs2wSgiAIUo4pXz4cCIIgCKxcuZLLzc2VXs+ZM0eYMWOGyIoo5c0FTythYWE6QogDIcRh0KBBvO13aOPu3bvEVC8hxGH58uX/zQ56TmAtxho0aFCuBCPEPlgxF6D8iSxfffWVtNZ1Oh1s377dGBUVJbJ75H91v0SsExcXRyj9/9tLeROnS8OLL77Im77HQkJCbBpqtGjRQrpnb29vaN269X++DxAEQZCnB1oAIgiClDNYV7aaNWvS999//7kwXykqKoLr168/FWuNixcvyl6j6PTsyMzMhLS0NOl1eROMEPtQEQDLzdpKT0+HkydPSu0bM2aM2LJly3LTPuTpUp7nZmmJj4+36+HJV199JYSHh9MHDx7AyJEjqZeX19NtIIIgCPKfBgVABEGQckR+fj4kJCRIB4BevXpRni8zQ7lnSlJSEmETmpSlSMcemgghKAA+Qy5cuPDcHcr/L8OKLBUqVIDg4OByM54nT56Umfb17dv3uXhYgmiDnZuOjo4QGhpabuZmaSguLoZr166xAqDN9zg5OcEbb7yB8x5BEATRBPpEIAiClCOuXr1KBEGQXrdq1eo/faBhYUU6AICGDRs+FQEwICCAenh4lFXViJ2gAPh8cf78eWk8w8PDaXlKPnT58mXZ6zZt2uBc+z8EOzdDQ0P/8xmAL126RAwGg/QaH2QhCIIgZQ1aACIIgpQjWBdZAIA6derYfQAQBAESExPJgwcPIC8vj1SpUoU2bNiQuri4lLpdJsvE7OxscHR0hKpVq9ptbcFaNrq6ukKtWrXK7HDD1q3FakKJKIpw7do1cufOHRAEAby8vKBBgwZP1Gf2IAgCXL9+Xfp8X19fCA8Pp87OzqWus7i4GOLj48mjR49AEASoXr06hIWF0SeNh3bz5k1y7do1KCwsJNWqVaP16tWTJflg4/85OTnZNYdv3bpFbty4AUajsUz6oCxJSUkhCQkJQAiBhg0bQtWqVa3eV25uLsTHx5PHjx+Dm5sbhISEUH9//ydqw+XLl0lGRgbk5OSQypUr03r16j2R2K3X6yEuLo6kpaURJycnGhgYCHXr1pXuq6ioSGaRVN7E3Bs3bkht8/T0BG9vb7vrMBqNcPnyZZKWlgaCIIC3tzc0bNiQOjo6PnH7RFGEc+fOkdTUVGkfdnNze+J6TRQXF0NiYiK5f/8+uLq6QlhYGC1NHyhJSEggt27dgooVK0Ljxo1tzrEHDx5AYmIiKSwsBGdnZ6hTp47N9WELg8Fgmpvg4OAAprlpEqAFQYBLly6Vq7mZkpJCrl27Bnq9HipVqgRhYWF2rU/lQ7KneU+PHj2C+Ph4UlBQAE5OThASEgLVq1cvs8978OABXL16lTx+/Bh8fX2hYcOGz403A4IgyH8aSqkeCxYsWLA8u9K/f3/B09OTenp6UldXVwoAUqlUqRI1/c3T05N+//33Rkv1nDlzxjBixAjBy8tLVgcAUBcXFzps2DDh8uXLBnvatmPHDkPXrl1FnU5nVqe/vz+dNWuWkJOTo/reJUuWGNm2Ozo6Su/lOE52X+PGjRPsadegQYME9v0cx0l1Ozk5yer++eefLfZZamqqYeLEiYKPj4/Z/Tk6OtLBgwcLCQkJdvWZPeXu3buGSZMmCb6+vmaf7+bmRkeMGCFcu3bNrs8/deqUYeDAgYKzs7NZnZUrV6ZTp04VsrKy7Gqn0WjU//DDD8a6deuKau0cPXq0cO/ePT2lVF+/fn3pmoYNG4q26s7Ly9PPmzfPWLNmTbO6K1SoQMeMGSOkpqY+tTFQzgd27sTExBiuXLli6Nq1q0gIkdrVrl07i/e1f/9+Q7du3USe52X3QgihzZs3F3fs2GHXvdy8edPw5ptvCtWqVTPrH51OR7t27Sr++eefdtWZlpamf/PNN4VKlSqZzZGgoCDxm2++MRqNRv2ZM2cM7N+io6NlaykkJEQ09VXPnj1tjjWlVD9+/HjZ2j1y5IjmthcXF+u9vb2l9zo4OEht43letu49PT3pjRs3LNZ9/fp1w+uvvy54enqq7pejRo0Srl+/rqlt0dHR0l4XHBwsUkr1GzZsMAYGBsrGbPny5Rb3Ikvl4MGD0pwMCgoSTXPipZdeEipWrChrN8/ztEePHqKWPWvHjh2yuf7w4UN9bGysgV2/AEDfeecd1b3ZYDDof/jhB2OzZs3M5iUA0AYNGog//vijURRFu+43MzNTP2nSJNVxqVGjhrhw4UKjwWDQJyYmyubm559/rtq3vXr1kuZot27dbM7RO3fuyPpl1apVVscsLy9PP3/+fGPt2rXN+oHneRoRESEePXpUdTzYsfX09KQuLi6y93t4eEh/a9u2rVnbp02bJq2lmjVr2rw3QRD069evN7Zu3Vq2n5lKaGiouHz5cqPRaNQ0VjVq1JD6dv369UZKqX7fvn2Gzp07m+1/3t7edP78+ZrrxoIFCxYsT6egAIgFCxYsz7j4+/urHqDUSmxsrNlBIj8/Xz9y5EhB7R96NUHljz/+sHk4zM7O1kdFRQla2hQSEiKqCYuvvPKKpvdbO7xZKgEBAZr77K+//lK932XLlhmVgqtacXR0tHkILE1ZuXKlsUKFCjY/383NjW7fvt3m5+fn5+vHjh2raR74+/uLf//9tyZx4/79+/rOnTvb7G8vLy/6559/GlhRZuTIkVaF3SNHjhhq1Khhs25vb2+L41iWZc+ePZKoQAihmzdvVh2j4cOHm91XTk6OftiwYZrm/LvvvmtT8BYEQT9jxgyBFc4tFZ7n6bJlyzTN0b179xoqV65ss87u3buLy5YtM7K/279/v2wM2Hnh5+dHbX327du3ZfPDmpCqVi5cuGDQ0r8AQF1dXama2CCKon7evHlGLf3q6upKN2/ebLNfR44cKY17jx49xMmTJ6vOg127dtk9h6Ojo6UxaN26tbhu3Tqjmriv3DMOHz5s9bPmzJkj1VuzZk1x2bJlRvZBiqksWrTI7P7j4+MNjRo10rQH9+rVS3z8+LGme42NjTWoPQxRlk6dOomrVq2SzU1LeyT7cGfMmDE2192uXbtkc8xaPx46dEjT/kUIoXPnzjVrHzu2tsqwYcPM2t6xY0fps9u3b291LV27ds3QqlUrTWPWqVMn0dZDopSUFFk/HT9+3DB69Gib+9+rr75q18M+LFiwYMFStgVdgBEEQZ4hubm54OzsDDVr1qQAJS5EpkQZFStWBG9vb8per4ybl5ubC927d9f99ddfkusQx3HQqlUrGhwcTAkhcPz4cZKcnEwAAPLy8mDYsGG68+fPGy0F8y8oKIDOnTvr2FhuhBAIDQ2l1atXh/v370NSUhLR6/UAUOK2HBkZyV+4cMFYqVIlqZ7s7GzpvgwGA6Smpkr1+fj4wD/CCgAAtGjRQrUtauTl5YGDg4NU9+PHj8mDBw+kv1evXp3qdDqp3WpuVO+88w6/ePFimS9stWrVaKNGjcDBwYHGx8eTmzdvEoASN8mxY8fyFStWhKFDh5ZJsPUPPviA//LLL2WfHxAQQBs1agQ6nU72+fn5+TBkyBD+2LFj1FKG05ycHOjZs6eOzYgKUBJDKjg4mBoMBnLq1CmSlZUFAABpaWkkMjJSd+rUKWNISIjFvs/NzYWIiAid0jXN09MTQkNDqV6vh6tXr5K8vDzIysqCrl276tgYVvXq1bNY986dO8mQIUN0xcXF0u/8/f2paS5cuHCB3LlzhwCUuJNFRUXp4uLiDFWqVLFU5RPDupI7OzvD66+/zufl5ZldV6NGDdnr7Oxs6NKli+7cuXOy97ds2ZL6+vrSu3fvkr/++ouIYsn0WbhwIRccHEwnTJigOp9EUYThw4fzv/32m2yONGrUiIaGhlIXFxc4f/48MblbC4IAEydO5OvWrUsjIiIs9vm+fftIv379ZH0OAFCrVi3q7+8PaWlpkJycTARBgP3795Njx47JfPaUMckaNGhADx8+TABKMvLm5OQAuwco+eqrrzh2fsydO1eweLEKd+7ckda9Xq+Hu3fvSv3t6+sLbm5uUvvCw8NB6XIoCAKMGTOG/+mnn2T9GhQUROvXr085joPz58+TlJQUAlCyF7744ov8nj17aLdu3Sz2KztvLl68SPbt26caKFE5b7SQmJgo1XXjxg3yyiuv8JSWNCU4OJj6+flBeno6mPYLgJI9Y+jQobqkpCRD5cqVbbY5Pz+fTJw4kTfNT2ttPn78OOnTp48uJydH+p2TkxO0bNmSVqlShaalpZG//vpL+h7bs2cPGTJkiG737t1Ga+EHDh8+TPr06aMrLCyU/T44OJhWq1YN0tPT4datW8RoNMKRI0fI6dOnZYOrts9nZmbC/fv3pdfh4eE2v2fYfgGwHIfvt99+40aNGsWbvgcBADw8PKBFixbU3d2d3rhxg8TFxRFKKVBKYdasWbyPjw+wa/7+/fvENJ8BAJKTk4lpbN3d3eEfoR4AANq2bWvWDnZuWHMXPnfuHImMjNSxfeHg4AAtWrSgVatWpZmZmeTUqVPSd/qRI0dIVFSULjY21mjJFT4+Pl76mRACM2bM4I8dO0YAAFxcXKBmzZrUzc0NLl++TB4/fixdu2bNGm748OFi165dNX/nIwiCIGXIs1YgsWDBggVLSTEYDHonJyfpSfn7779v80n5+PHjZU/cu3XrZmaNZzQa9TNmzJBdN378eIt1T5kyRXZtly5dxIsXL8rqTElJMURGRsqsCT788EOLdR49elRmLWCvG6S1MmvWLKm9HMfR/Px8q9fPnz9fZnVRo0YNcfv27Wauaps3bzayLnaenp40IyPjidurtKoKDg4W9+zZY1B+/oYNG4ysS1iDBg1ENXc6o9Go79Gjh2wsOnXqJMbHx8v6uKioSP/xxx/LLAQ7duxo1WpkyJAhsrkQEBAgbtq0ySgIgnRNYWGhPjo62shadpnKzp07Vcf57NmzBtb60svLi/7666+yegVB0C9evNjItnfChAlP1XpEzYKlQoUKdMKECcLu3bsNCQkJhlOnThlu3rwp3ZfRaNR36dJF1v+vv/66cP/+fVnd8fHxhpCQEOm6SpUqUWvu82x99evXF0+cOGHWl2vXrpVZbVmzAkpJSTEowwNERUUJly5dktV7/fp1g5r1r7e3N1XWuXLlSlk7rVlpZmRk6Nkx79Spk13Wf8qyb98+2Z5y6NAhm3vK9OnTZfcVGhoqxsTEyN4niqJ+zZo1Miu7atWqWbRiU+7bplK7dm1x4cKFxqNHjxoSExMNhw8fNhQWFtp9ny1btjSz2lILTfDnn38agoKCZNda+w4JCwszq9ff35/OnDlTiI2NNSQmJhqOHTtmePjwofSeq1evyuYQz/P0vffeMwsDkZycbOjQoYNm9+f09HS90vIvMjLSzJU5OTnZMHjwYLO5WbFiRaq2Nx48eFA2R/bs2WNzjrz00ktS/VWrVlWdo3/++aeBHfNKlSrR7777zqjX62XXnTp1ysBaq7u5udHMzEzVz83JydGze92nn35q1fL07t27snv79ttvVa9PTU01+Pv7S9cRQujEiRMFdlwppfp79+6ZfY/MmzfPYhu+/PJLM+vFChUq0EWLFhnZ+ZCXl6cfO3asbMzULKixYMGCBcu/U1AAxIIFC5ZyUpQxjX766SerB4Dk5GQDe2Do0aOHWFxcrHqtKIr6pk2bSv/cV69eXfVgk5+fr2dFr1atWomWDq3FxcV6VtAICQmxeKBfsWKF7LBgLTaXvYU9EJrib1kq586dM7DxDMPCwsS0tDSL17MuoQDWRU4t5erVqwZW1KtXr55oTVRcs2aNrN+UYgWl5m5kL774omAwGCzWOW3aNNlhTM2tnFKq3717t+zebbV1w4YNZgfC5ORks7qLi4v19erVk+ZN5cqVaWJiosX5wLbXxcWF5uXlPbU1yK4RgJIYhrZiMC5atEh233PmzLG4bhMTE2UusGpuu0ajUc/GP6tbt66oPKyzhRUsCCEWRcWhQ4fKxn369OkW57LRaNQrBf7OnTubra2TJ09q3rOUDyHsif2npd8fPHhg9frY2FjZftmiRQvx0aNHFq9fv369rH5l/EN2TJXz/u233xYs7cX2FFEU9UoXdDWXXFO5dOmSTJjy9/dXfWhQVFSkV8Z1jYqKErKzsy22RRAEfZs2baQ5wfM83bhxo8W25OXl6evUqSNdX61aNVEpkJnKyy+/LCj7z1LsQEEQ9P3795dd36pVK9V9/9tvv5WN4e3bt23OucaNG0tt7t69u1m9hYWFsu89T09PeubMGYv1xsXFyda8JWFPuZa2bt1q9ft/7969mlyVu3fvLrWVEGI1nEVxcbG+SZMm0vVeXl4WH6iNGjXK7OGQ8kGhqRgMBj0rTptiWWLBggULln+/PFkqQARBEKTMULpZWnI9MnHixAni4eEBnp6e4OnpCV988YVgyV2HEALt2rWT6mNdjVmSkpJk7joTJ04ULWVhdXR0hB49ekh13rhxQ7VOU72mn93c3CAoKMjqvdkDmwnSlovX5MmTeVMbK1SoAL///rvg5+dn8fqePXvKXP/WrVsnuWiVhpkzZ3ImFzdXV1fYvHmz4Ovra/H6l19+WaxRo4b0gQcOHJB9bz98+BBmz54tucI1btyYrl27VjC5QKvxySefCKyb5rp161T/F5g/f75Ur4uLC/z+++9W2zpy5EixVatWUlvd3d2BbbuJFStWcKzr2qpVqwRr4/bBBx8IJlfOwsJCMLmZlTXKrKLVqlWjMTExVl2kHz58CHPmzJH6qUePHnTWrFkW3cTDw8PpgAEDpL/v37/f7F5Mbr2mdT1z5kzRy8vLYrs7dOggtY9SKnMFNXH9+nWyefNmaZy7detGFyxYYNH9lud5iI6Olv1dzcXQ5DZr4urVq6pjk5OTA8uXL5cu7Nq1K+3YseMT7QGsq6a/vz9YcnUFKHGpnjhxouQ66+PjA9u2bROsZWgdNWqU2LhxY3btq64T5b49ZswYcenSpRb3Ynu4desWYV3QJ02aJE6dOtXi/Kpbty4dOXKk9Pe0tDTCZnE2cenSJdle3bFjR7p582bBmvv2hg0bODbEwKxZs4Rhw4ZZbIubmxvMnTtX+vvdu3fJgQMHzNqSkpJCfv75Z6lvO3bsSBcvXiyYsv0q4TgOoqOjRfbvltxf2e8dd3d3m1luBUGAy5cvsxnlVfev69evE+a10KxZM4v1NmzYkEZFRUn9oNzD1doKYD18AoD5vFOGBwEA2L59O8fuMe+884742muvWRwzR0dHmDdvnrTus7KyYMeOHartZdefm5sb7NixQ7D0P4tOp4MXXnhB+ltGRsZT2cMRBEEQ26AAiCAIUk5g/6F2cHCAunXrWj0ADB8+XMzKyjKYSpMmTaxeX7FiRZttyM7Olr328/OzWue0adPETZs2Cf/73/+EjRs3CpbEMVZYqVu3LrUWC8oejEYjsAfcevXqWbz22LFjhBWP3n33XSE0NNSmCNGzZ0/ZIVZ5UNNKamqqTIQZP368aGuMOY6TxX66ceOG7O9Llizhc3NzpdfLli0TnJycrLajYsWK0L59e6nOmJgYs/uJj4+X9dWrr74q1q5d22ZfsTHXwsPDqfIQLwgCLFiwQOqDiIgI2r9/f6txFb29vWVrgRUPy5Lr168TNv7Y7NmzRWuCJwDAkiVLOFP/8zwP33zzjc2Ydmzfq82lJk2aUHZdjxgxwmr/uLm5yV6rCScrVqzg2Phun3/+uUWBxYQyfp6ayFKhQgWZmH/16lXVupYtW8axMePmzJljV+w/NVgBxFr8MwCAbdu2cWxfz549W6hataqWtS9dc/HiRcLGUDPB7ts6nQ6WLl36xPdmQinyDBo0yGYMUrbNAOpzTBnnbsmSJYKDg4PFOimlMG/ePGndBgcH0w8//FBLW0R2r4+JiTHb+FeuXMmxYuRnn30m2Pp+cHBwAPa7xtL4s3tFWFiY2X6k5Nq1a6SoqMhivaIoAhs7tk2bNlRLXFhWpFfu4SbYcXJxcYFatWpZnZ/sGFatWpV6enqaXcOOmZ+fH3z++ec252ZERAR1cXGRXqt9PyiF0tdff1209f8H+yCxrL7/EQRBEPvBJCAIgiDlBDaodkhICLUl5NhLRkaG9LO/vz9VsxILDQ0FQoh0uFqwYAHftm1bI3sgYKlZsyZlg5hbIikpSfrZlmWDPVy7do2wQdit1c1a8Dg7O8PkyZM1JfRo06aNrM7ExERSmnvYvHkzEYT/f/56++23NX3+u+++Kw4YMIACgCzJAaUU1q9fLx3C2rdvT9UCxavRunVrcffu3TxAiZVQVlYWsFZmq1evlvqK53l47733NLWVPcSqWYPExMQQNnHDPzHZbMJaJqWlpT0VAVAptrDWX5ZYv3691E99+vSxKegClCQKMFEW95KZmSl7rbS6FAQB1q5dK7O+05J0Rym0WhJZGjRoQE1Wh2oWgIWFhbB48WJJTYyMjNQ8Ty0hiqJsrtkSANetWydd6+3tDdasoFj+cXnlAErWW0JCAmEtmQAAEhISpJ9r1apFlYLsk8DWDaBu5aVE+VBDOT/+qVfqD0dHR5uW06dOnSJXrlyR3jNlyhTRmpWxCXd3dwgLC6OmuaQUHimlsGbNGmlutmvXjrJimSXY70oAy+Nvj3W4WvuU9Z4+fVpKqAWgfQ/v378/9ff3FwAAWIHRUlvr1KlDlQK8tbY2aNBAtb7Tp09L17z11luCpe9xFkdHR2jSpAk9ceKE6pgBlHzvsg9LtMxL1pLVw8OjzP4HQBAEQewDBUAEQZByguIferv/QU5JSSGnT58mCQkJkJOTQ5TZS1lXoPDwcNU6qlevTnv16kV3795NTO+pX7++7q233hJ79epFtQgcSnJycuDevXuslV6Z/fNvj9vUnj17pGu7d+8uWnN3Y1G6CapZAWmBdZ+rX78+tZSFWUnTpk1p06ZNza5NSkqSHUbtyVCsck/kn+D+AAAyN9smTZpQNVdeJSkpKYS1IFUbiz179kiHfVdXVyCEqFqYKLl3757089OyHmFFBZ7nbQoGyv6vU6eOpnthD+W2DvkAJRmQ//rrL3Lx4kWSlZVFWEs6AAA2A7i/vz8oLYESExPJw4cPpde2LC5NsOKTpWzaACXiw/bt2wGgRBiglMqsEH/44QfOJEIRQsrE+u/GjRukoKBAem1NADQYDBAbGytNmqioKFHrwxW1dQIlccwknnTftgZbd0BAALXmsmxCua+phWVg6w0NDaXWrP8AAP744w+p/ziOgyFDhpRqr2GztQOUzJe0tDTptda5qRSn1fr9wYMHMvFTiwBoaw9g93AHBwfo3bu3pvYGBgbSwMBAW/uJ9LOt70hRFGWCodr8Z7/vAACGDRumeW5aGzMA20KpGgovAK1NQRAEQcoYFAARBEHKAfn5+XDr1i27RTJRFGHDhg3csmXLOFZYsIW1w9CaNWuMvXv31p05c4YAANy8eZNMmzaNnzZtGgQFBdG+fftSZbw3ayQlJcni5pWxACj9zIYpIBUAACAASURBVPM8hIWFqdZ9+/ZtwlpbabEyMWEwGJ6ojSZYoUZr31mDPYwCyF1LbaG8J3Z8ioqKZNZwERERmupVWuWoHcrZPigoKICePXva/X+IpZiUTworKtSsWZO6urpavZ69FwCAhQsXcgsXLrRLnbQmRO3fv5989dVX/MGDB2WWo9ZQm/9///23rJ1ax1MpPlkSzNlxzsvLg7S0NGJyrzUYDPDVV1/JrCRbtmz5xHNfaa1pTYC4cOECyc/Pl16X5dovKCiQxVzUIjLZgy0rLzVYyywAcxdxAPla1SLesHtN7dq1aZUqVTS1BUDeh8oQEWUxN318fECtPUqRSsv3DrsHBAcHm+0B7JqvU6eOxTVhL/n5+XDnzh3N3//Xr1+3KYCzY+bn5wdaQjiYsDZmAPL1x3GczfZSSmUuw2W9ThAEQRDtYBAGBEGQckBCQgJhY3RpOezdvXuXtG3bVvfyyy/zauIfIURKJODu7i77m7V/wH19feHo0aPG6dOni8r3JScnk6VLl3KtW7fWtWnTRqcUQdRQWunVr1/f1ls0w9YdFBRELbk4KWOTaTn0mmBdjAG0xVJU8vjxY7h9+3aZHoDY2IdaLNZYlMJGpUqVpPfGx8cT9u9aXGEBtFnlqCUksJfKlSs/lcMjKxhomR+sS2RpUbuXvLw8GDx4MN+jRw9dTEyMqvjHJv9hUZsD586dk8UWsySSK9EqPinH+fLly9LPGzZs4FJSUghAyX40e/ZszZZj1mAFLI7jrI6Xcs7ZY6WnsvbNwgGw+3bDhg21Vm0Tg8Egc6nW2m6ly6/SajA3NxdMYwKgba5fu3ZN+tmevRNAvtcov0/Onz8vE5IaNWpk99zUkgAEwHp8WK31ssJXWYpYly5dks0jW23VYoHHzp2yHDMAgMTEROnnmjVr2nR7T05OlnkklOVDQARBEMQ+0AIQQRCkHGCvS016ejq0bNmSZ11rW7ZsSceMGSO2bt2a+vn5UR8fH8nFMDY2lnTt2lXa822JAC4uLrBw4ULho48+En7++Wdu165d3JEjR2Rxf06dOkU6dOig++GHH4SXX37Z4sGePYhVrFhRNTNsaWHrtnaoyM7OlvWvPZYbSgHBWlZYS+Tk5MjqsJVcQgusu62Li4tVazIl7OGwQoUKwGZCzsrKkl1bpUoVuw/lVapUAR8fH9nfCwoK4NGjR9LrBg0aUC1JWJS0bt26zA+PRUVFwGb21CJS3717V/q5QoUKEBkZabe4pYydVVxcDBERETrWMiokJISOGzdO7NixIw0ICAAfHx9qyjCbkZEBfn5+kv+mmijB9rmPj4+mvtPr9bJ5b20/qlOnDnV2dpZim129epVERERQURThyy+/lB409+/fX1RzZS8N7FyzZa2pTGz0hGvfYjsA7BdarHH58mVZfFOtdV+4cMFqLMv4+HiiSKBhs052/9TihmxCFEWZhaQysQU7N729vTW5xGtxfwWwPwNwUVER3Lhxw+oewM6lstjDTdibAZh1z+d5XvV6tq32xtxjH5ipJSOxJwEPgFwwBEALQARBkGcJCoAIgiDlAPYg6ebmZjMD4Ouvv64ziX8cx8G3334rvPHGGxYFCKXLnNYn8B4eHvDWW2+Jb731llhQUACxsbFk1apV3M6dOzlKKRgMBhg7dizfrFkzquUgVrduXZuZGLUiCIJMyLJmNfEkceNOnToli/ukJeC5EuU9awmgb4uyuqdGjRrJxqSwsFDWWG9vb011snNYbX4prQ7HjRsnag2i/7RJSkqSWdppOdSy9xMUFEQ3bdr0xLHtPvnkE54V/6ZMmSIuWLBAsDRfLl68KBsrNWGfFe21juXly5dlVqDW+sPkem+y5jKtyS1btnAmK0mO48rM+g/APmvNslonlSpVMtuX2Xa4uLiU6uGAJUorLrKun76+vqCMPVeaerUIc2okJSXJYlYqBWB2bmq17NUa/9HeDMCXLl0ibLxEtXrZOspiDzfBfke6urqCrfiw7BgGBwerWr6XdsxSU1MJ+2BROWZahFIlSutwtABEEAR5dqALMIIgSDmAFejCwsKotUNrUlISYQN8T5kyRbQm/gHIDwy+vr6ahQAWV1dX6Nu3L92+fbuwbt06SewwGAywfPlyiw1+WhmAb968SdiMitbqVh7W1ALjqyGKIuzYsUMWu69ChQp2t1V5+CwLEZS9J6PRqBqrSY2rV68S9sDZpUsX2dxhXdEA1GNAKREEQRbjSe3wrJzTWsfg36A0ogh7P2VxL/n5+bBixQqp0p49e9Lo6GiL4h+AtjhnrLCpdY7Y2x+se6pJAPziiy+kexk8eLBYGuFcDaW1pq1wCcr+0xrTs6ioCPbv3y/dQ0REhKicw+y+XbduXZuZW+2BHQOdTqfJaspgMMDevXulRjZv3tzsPWy9FSpUAC1Z3Nn7sicm6rZt22TzqGvXrrLPeppzk92PtLi9K+tVc7lm9+2yepAFIP+ODA0Ntfr9D6DNAq+0Y/b7779bHbPExES7H5aw3zf+/v6yjPMIgiDIvwsKgAiCIOUAeyxaYmNjZS5c48aNs2lZw9avdhi6du0a2bVrF4mJiSExMTEyYU2NUaNGiWy8pri4ONXTUF5enize1LPKAKx0O1ZaRFpiz549hE3OMnz48FJZMVWuXFkmDrAxtayxYcMGbuXKldzChQs5ZdIP1rKnqKhIc3y95cuXc6b5QwiBESNGyPrG19dX9jo9Pd1mnVqscipWrChzCy6LeIBlBbs+nJycQItrcq1ataSf79y5Q5Tx4uzl9OnTMmupsWPH2rWufXx8zNyuAeSuilrGEkBusaPT6WwKKAoBEP744w9isgjkeR4++eSTMrP+S0pKsmmpxaJc+0qhxxK//vorx2ZAHT58uJqYprkd9sLGOaxduzbV4uK/adMmjnWrHTZsmFm/s/cfHh6uySKb7UOt/Wc0GmWCdtOmTc2yyLPzNSMjQ1O9WrNTs2OnRXBi78vZ2Vk1aQabbOT69etamgsxMTFk5cqVXHR0NLdlyxbVc5fWUBYAJWECtAjggYGB0s9av+8opbBs2TKpjSEhIVSZtEeLUKqE3U/Q/RdBEOTZggIggiDIM+b+/fuQkZEhvbZ1kGRjKgGYCzZKkpKSCOsqqPYP+PHjx0nfvn113bt313Xv3l2nFNfUYGNpWcrMeunSpX8tA7DycMlSv359WcbGEydO2Ly/4uJi+PDDDyXVrnLlyjBq1KhSCRlOTk6yfj979qzNz09MTCSjR4/mJ0yYwL/33nu8MrtnmzZtZPer5Z4uX75MfvjhB+m7PzIy0iwOX506dWSigJZELzExMZoOhWw8sj179mjKbkspNUvGUNawB+TQ0FCqxb2vSZMm0r0UFBTAgQMHNB2yi4uLVX/PutUB2I7X9/DhQ1m/WxLp6tSpI/0+LS2NsNlG1RAEAQ4ePCiL22Yr8zI73snJyeTTTz+V1s2wYcPEsjz022ud2LJlS+rgIIVJ1LROcnNzYc6cOdI6CQwMpP3795et/YcPHwKbWbysBUD2Pq3tbSaKi4vh008/ldrs5eUFQ4YMsSoAak0swu418fHxsoQOloiOjubu3r0rfdakSZPM2sLOzUePHtlMrCOKIhw8eFC6x+rVq1O1JBWCIMisC5VWzWrXHz58WNbfansA6w579uxZYstqsbCwEEaPHq2bMGECP23aNP7KlStm1xQVFUFycrJmAVCrAM6O2a1bt4gW8f/777/n2DGYOHGiqBSIlQ9L2DFUQxRFzACMIAhSjkABEEEQ5BmjjONlb0wra2LdjRs3SGRkpEw8UvsHXCkCbd++3epBLC0tDdhYZc2aNVNtM3tABihx/ykr0tPTpbo9PT0tipAAJbH7oqKipFPg1q1bOVtCyLvvvsuzwtBHH30klCYDsImoqCipj/744w+rny8IAkycOJE3HTD9/f2hffv2sj5u3bo1DQgIkH63ZMkSzporan5+PowaNYo3WerpdDr47LPPzBQ4X19f2aFu7dq1nDUB7tChQ2TatGmS4GPNKufFF1+UxiA5OZmsXr3a6v8hRqMRxowZw0dEROhYix4TOTk58OjRI3j06BGwFoj2UhpLrp49e4qsqDxnzhzelivw3r17SVBQkMPOnTvNxl65rtlEB0oePXoEvXv31rHWtZYO1h06dJD9fuXKlRb7nFIKb731Fs/GvtMiErHuvQaDQYpDp9PpYNasWWUa59FeAcLDwwO6dOkiXbN+/Xru4cOHFq8XRRHeeOMNns3a/dlnn4msiAhgblVVlgJgXl6eLGv4oUOHuPv371t9z/Tp03lWaHn11VdFZWy49PR0mWWc1gcyrJBoMBhgyZIlVtft6dOnyaxZs6Q9oUGDBvSll14ymwf2zE0AgClTpvCsUGfJ+o3neVmYCzYTthrTpk3jT58+bVPMZb9D0tLSyPbt2622d/bs2bxJeNPpdDBgwACzejMzM2UPQmx9R2oVwAcPHiy1lVIKX3/9tVX/9ISEBDJ9+nTpmlq1atHx48dbFZDr1KlDletCSXJyMsnPz5deowCIIAjybEEBEEEQ5BmjPEjaipXFut4ClBz8Hj9+LLtGr9fDmjVruGbNmslEAgD1rH6tWrWirJvXwoUL+djYWNVD0+3bt0lUVJTOJCryPA8jR45UPeQ7ODjIPqss3T5ZC43s7GxQE4hYpk6dKprccAsLC2HQoEG8mhBQUFAAr776Kr906VLpO7Jjx45UzYLFHsaPHy+a3PiKi4th8ODBvDLjLkCJuDNo0CD+0KFDUl8tWrRIMGV+NcHzPEyZMkVq0/nz58nEiRN5Nau6O3fukI4dO+rOnDkj1fnhhx8KlrKysof1W7dukXHjxvHKOFKiKMLSpUu5nj176lirtsDAQItxEocNGyay2TjfeecdfteuXapzIjExkXTu3Fm3bt067s8//yQRERE6Zcyw6tWrO3h5eTl4eXk5zJs3r1QB2LKzsyE1NdVuSy4XFxd48803pX46ffo0efXVV3k19/mioiKYOXMmHxUVpUtPT4cBAwboWCEDwDxb66effsqx7QIo6fPdu3eTRo0a6ZSWmZYSB7Vu3ZqyySm++uorTq3P79+/D/369eOVIoyWA7u/v79qXNERI0aIpcn0bA2ltaYtAQIAYPr06dLEycrKgqFDh+qUeyZAieXf4MGD+V9++UWWvVhNvFJxhdR+EzZISEggrNVadnY29O/fX8e695ooKCiAN954g//222+lNvv5+cFHH31kthEov2u0WgB27NhR5go6d+5cno1Dy7Jt2zauS5cu0p7g4uIC69atE9TiIzZp0oSyIuTSpUtV3WSzsrJg0KBBvFJ4tLZW2YdSx44dI2qie2ZmJgwaNIhfvHixpnp79uwpW0tvvPEGr+YSbTAY4KOPPuIXLFgg1fvmm2+Kala6yu9INrGVGkpXZUsCeOPGjWm3bt2kv0VHR3O//fab6rlv//79pGPHjjqTZaeDgwP8+OOPgprbOeuartH9V/YaE4AgCII8WzALMIIgyDOG/Ye+cuXKNi0ABg4cKE6fPp03WYScPHmShISEOHTu3FmsVq0apKWlwcGDB7nMzEzV93t4eJj9jud5iI6OFocMGcJTSqGwsBB69Oih69Wrl9iiRQvq5+cHGRkZ8Pfff5M9e/bILM3eeOMNUSlKmggPD5e9njBhAn/kyBEiCAK0b9+eWhIOtcAKE0ajETp16qSLjIykDx8+hKlTp5olHWjcuDGdNGmS+PXXX3MAAGfOnCFhYWEOr7zyitiwYUOal5cHly5dIhs2bOBYYa5u3bp0y5YtxicN8F+9enU6Y8YMYfbs2TwAwN9//y19foMGDaggCPD333+TX3/9Vfb5r732mmgp9uDEiRPFn3/+mTNZuKxYsYI7duwYGTlypBgYGAiZmZlw6tQpsnXrVo4V8IYPHy5ay8r65ptvikuXLuVNc2jdunXciRMnSP/+/amHhwf9x/qFKMVlAOuHcjc3N1i+fLnQr18/nSiKUFhYCFFRUbquXbvSHj16iN7e3pCeng4HDhzgDh06JFnGODg4wPz582UiQnJyMmFFnNIKTU9iyTVz5kxh69atxOQ299NPP3FHjhwhw4cPp2FhYTQ3NxcSExPJli1bZPHkBg4cKHbs2FH2OU2bNqXNmzenJpE2JSWFhIWF6SIiIsRatWrB/fv34cSJE0QZAsCE2roGKLHInDVrljh69GgeoOThQFRUlK5nz560VatWoimBy44dOzg18bJhw4aa+qJ+/fqUFTUdHBxg5syZZZ7luTTWml26dKEvvfSSuGHDBg4A4ODBg6Ru3bq6V155hYaHh9Ps7GxISEggP//8M8fOqRYtWtCffvpJ1U+d3bc9PDyAFbafFDVR6cSJEyQkJMRh1KhRYsOGDSnHcZCYmEh++eUXWdZWnudh/fr1RrX5UFoBEADgu+++E9q1a6crKiqC4uJi6NOnj65fv35iZGQkdXFxgdTUVNiyZQvHWtvpdDpYv369wLrLK/nkk0/EoUOH8gAl+/iQIUP47t27c23atBFFUYSrV6+S7du3c8oQCADWx//FF18U9+7dywOUPCwYMGCAbsCAAWLDhg3po0ePyKVLl0hsbCxRS5BhLbHGkiVLhN69e+sopZCeng4tWrTQjRw5Umzfvj11cHCAS5cukV9++UUWO7ZVq1ZUzdoaoCSuoJeXF5j2/EWLFnFpaWlQoUIF8Pf3pzNmzJCtIaVruLXvpSVLlggtW7bUPX78GIxGIwwbNoxft24d17t3b7FixYpw79492L59uyy+LMdxsHLlSkFpnQlQIkSzbt1axDx7YvUiCIIg/wKUUj0WLFiwYHl2pVWrViIAUACgHTt2FLW8Z+fOnQadTkdN77NUqlevLs6cOVNgf3f8+HGDpXoXLVpk5DjOZr2m8tprrwlGo9FqWzt27CiqvXfRokXGJ+m3Bw8e6N3d3VXbFRcXp3qPBoNBP2TIEEHr/XXu3Fl88OBBmY21IAj6YcOGafp8Qgh9++23BUEQrNaZmppqqFu3rmofq9U5depUm3Wa5tg/1ilWS2RkpNi+fXvp8z/44APBVt3ff/+95nnm4+NDt2/fbjZXduzYYWCvO3PmjMV5ba0sX77cyNZz8+ZNu+q5c+eOoWbNmpr7f+zYsUJRUZFqXfHx8QZLc5ot7u7udNGiRbJ2r1y50up6Gj58uM15x/M8nTNnjqzey5cva+qPSZMmyep/7bXXbM4De8ujR4/07GfMmzdP8x5SUFCg79atm6ZxAgAaFRUlPH782GJ9bdu2lepq166dpn1ba5k8ebKsL5WvLRVHR0f6888/W+yTMWPGSPX4+PhQe9u1ZcsWo7Ozs6b+q1y5Mt29e7emucO2y1LhOI7OnTvXSAiRfnf+/HmL9RuNRn2bNm1sjjchhI4aNUr2+Xfu3LHa7oULF8raYa1ERESIOTk5Vu//7bffVr3/0aNHm62h6tWrS/f00ksv2Vxje/fuNbi5uWlqa6VKleimTZsszp+jR4/K9twdO3bYHF+2b/39/e2ec1iwYMGCpWwLugAjCII8Qyilsgx5Wi0y+vTpQ//44w9jzZo1Va93dHSESZMmiRcuXDC2bt1aZkFgyYIIoMRN9sCBA8bmzZtbbUe9evXo9u3bhVWrVqm6drGsWrVKYGPVmfDz87P6PltUrlwZVq9eLajF/vP391dtv06ng40bNwpff/21ULlyZYt116hRg65YsUKIjY01WrvOXjiOg19++UVYuHChYMliC6DE8ujQoUPGpUuXCsrYcEqqVatGT548aRw/fryodBNmadu2LT148KBx0aJFNusEKJljO3bsMFatWlW1LytVqgQLFy4Udu7cabxz5470ey1WWWPHjhWPHDlitObu7ujoCKNGjRITEhIMbOwtE8ePH5duwt3d3cw1XiusRU3FihUhKCjIrnqqV69Oz507Zxw3bpzV/m/QoAHdvXu38fvvv1d1rQMo6bsTJ04YLcXUJITA0KFDxXPnzhkHDx4su8baugYAWL9+vTBt2jTR0npt2rQpPXz4sJGNNeni4gKsy6M12EQVjo6OT8X6z954qSwuLi6we/du46effiqoJY4wUadOHbphwwZh+/btgiVXdkqpzLLpaSYAqVKlCnzzzTfCL7/8Ilja1wBK9oxjx44ZR4wYYbHf2XpLY4k1cOBA8fjx48bWrVtbfK+TkxOMHTtWjI+PN/Tq1UvTZ/zwww/CjBkzREvJdxo0aEAPHDhg7Nq1K6X/xEW1lZ2a53nYuXOnsWfPnhavadSoEd27d6+RjRHp4eEBat9XLNOnTxd///13wdpeERgYSH/88UfhwIEDRmvzDQDg888/F5TZdgHMvyNzcnLsDlfQo0cPeurUKWPnzp0tXuvg4ACjRo0S4+LijGzsQCUq1tK2Pl62TmxlE0cQBEGePoRS+nRT6yEIgiAWEQQBzp8/L/2DHBAQQO0RxgwGAxw4cICcOnWKy8jIAC8vLwgLC6O9e/cWvby8AKAk+QObUCAwMJD6+PjYrPvChQvk2LFjJDk5mRQUFICnpydUr16dRkREmGWOtUVubi789ttvXHx8PHFycoKQkBA6cOBAUS1umL3cunWLbNq0iaSmphJ3d3eoV68eHTZsmGhL5CoqKoL9+/dzZ8+eJRkZGeDg4AA1atSgbdq0oW3btqVaRLInoaCgAPbt28edO3eO3L9/Hzw9PaFq1ao0MjKS1q5du1QHpczMTNi7dy+XmJhIHj16BBUqVIA6derQF154we4xM1FUVAS7d+/mzp49S7Kzs8Hb2xuaNWtGu3XrJrq6ugKAPCNmaGgotSdZyoULF8iRI0dIcnIyoZRC1apVaWBgIHTt2lW0JL5SSiE0NFRniinZt29fcceOHbZTCqtw/fp1kp2dDQAlMbWeRMx59OgR7N69m7t27RrJzMwEX19f8Pf3p23atKH2CJSUUvjzzz/JkSNHyL1794iLiwvUrl2b9u7dW0r8IoqiLLlBlSpVNLmhpqamkm3btpGrV68SnuehatWqtEuXLtQUDzIrK0sSE52cnDQ/lOjevbvOlJV4/Pjx4ooVK0o1HtZg2wZQEgbANAftIS8vD/bv3y+tPScnJ6hZsyZt27YtbdmyJVVmPlWi7Ptq1arRskxw5Ofn52DKDN+9e3e6b98+I0DJfn/o0CFy8uRJkpGRQYxGIwQHB9MuXbrQFi1a2BynuLg4yeXVy8sLgoODSz3Xz58/Tw4fPkySk5NJYWEhVKlSBRo0aEC7d+8uWnu4YY179+6Rbdu2kStXrhBCCPj7+9OIiAjavHlzSgiB7OxsuH79OgEoEa20rqm///6bxMTEkNTUVOLi4gLVqlWjnTt3pk2aNKGEEEhLS5NcW+3ZA0RRhMOHD5OTJ0+StLQ04ujoCFWrVqXt27enrVq1sjmPWAwGA/z+++/c6dOnCS2Jb0r79OkjizlYVFQkE3GDg4Op6XteC4mJiSQ2NpbcvHmTFBQUgI+PD9SrV4/26NHD4l7Lcu/ePXLv3j3pdbNmzWzeIzvnKleuDJYeWiIIgiD/DigAIgiCIAjyn2L37t2kT58+krnQnj17rFr6IE+XQ4cOkYiICB1AiWh4/fp1oy0rKkSd+/fvg6+vr5TZ5N133xUXLFhQ5mIqgiAIgiD/90AXYARBEARB/jMYjUZ4//33JT/WZs2a0cjISBSbnhGCIMD06dOl8Rg7dqyI4l/pUbpZlta1HUEQBEEQRAkKgAiCIAiC/Gf4/PPPOVPcTDc3N1i/fr1gj6sdUrZER0dLmV9dXV1BmbUUsQ+lANi4cWMUABEEQRAEKRNQAEQQBEEQ5D9BUVERbNiwgQMoSQKwZs0aITw8HAWSZ8R3333HffDBB5L136xZswRLSWMQbbBJoVxcXKC0sTsRBEEQBEGUqKfbQhAEQRAEKWc4OzvD2bNnjRMnTuQHDBhA+/fvj9Zm/yL79+8nN2/eJBkZGbB9+3aOTWDUoEEDOnXqVByPJ4S1AKxXrx61lBkXQRAEQRDEXvC/CgRBEARB/jO4u7vDunXrMCnCM2Dp0qXcrl27zLxHAgIC6NatWwUHBwe1tyEaoZRCUlKSJACi+y+CIAiCIGUJugAjCIIgCIIgNrl3755ZsMWwsDB66NAhISQkBMWqJ+TOnTskNzdXet2wYUPsUwRBEARBygy0AEQQBEEQBEFsMnjwYDEgIIDcu3ePBAYG0j59+tARI0aIjo6Oz7ppzwVubm70f//7n2Td2qFDB3SpRhAEQRCkzCCUUv2zbgSCIAiCIAiCIAiCIAiCIE8HdAFGEARBEARBEARBEARBkOcYFAARBEEQBEEQBEEQBEEQ5DkGBUAEQRAEQRAEQRAEQRAEeY5BARBBEARBEARBEARBEARBnmNQAEQQBEEQBEEQBEEQBEGQ5xgUABEEQRAEQRAEQRAEQRDkOQYFQARBEARBEARBEARBEAR5jkEBEEEQBEEQBEEQBEEQBEGeY1AARBAEQRAEQRAEQRAEQZDnGBQAEQRBEARBEARBEARBEOQ5BgVA5P+1YwcyAAAAAIP8re/xFUYAAAAAjAlAAAAAABgTgAAAAAAwJgABAAAAYEwAAgAAAMCYAAQAAACAMQEIAAAAAGMCEAAAAADGBCAAAAAAjAlAAAAAABgTgAAAAAAwJgABAAAAYEwAAgAAAMCYAAQAAACAMQEIAAAAAGMCEAAAAADGBCAAAAAAjAlAAAAAABgTgAAAAAAwJgABAAAAYEwAAgAAAMCYAAQAAACAMQEIAAAAAGMCEAAAAADGBCAAAAAAjAlAAAAAABgTgAAAAAAwJgABAAAAYEwAAgAAAMCYAAQAAACAMQEIAAAAAGMCEAAAAADGBCAAAAAAjAlAAAAAABgTgAAAAAAwJgABAAAAYEwAAgAAAMCYAAQAAACAMQEIAAAAAGMCEAAAAADGBCAAAAAAjAlAAAAAGexztAAAAkFJREFUABgTgAAAAAAwJgABAAAAYEwAAgAAAMCYAAQAAACAMQEIAAAAAGMCEAAAAADGBCAAAAAAjAlAAAAAABgTgAAAAAAwJgABAAAAYEwAAgAAAMCYAAQAAACAMQEIAAAAAGMCEAAAAADGBCAAAAAAjAlAAAAAABgTgAAAAAAwJgABAAAAYEwAAgAAAMCYAAQAAACAMQEIAAAAAGMCEAAAAADGBCAAAAAAjAlAAAAAABgTgAAAAAAwJgABAAAAYEwAAgAAAMCYAAQAAACAMQEIAAAAAGMCEAAAAADGBCAAAAAAjAlAAAAAABgTgAAAAAAwJgABAAAAYEwAAgAAAMCYAAQAAACAMQEIAAAAAGMCEAAAAADGBCAAAAAAjAlAAAAAABgTgAAAAAAwJgABAAAAYEwAAgAAAMCYAAQAAACAMQEIAAAAAGMCEAAAAADGBCAAAAAAjAlAAAAAABgTgAAAAAAwJgABAAAAYEwAAgAAAMCYAAQAAACAMQEIAAAAAGMCEAAAAADGBCAAAAAAjAlAAAAAABgTgAAAAAAwJgABAAAAYEwAAgAAAMCYAAQAAACAMQEIAAAAAGMCEAAAAADGBCAAAAAAjAlAAAAAABgTgAAAAAAwJgABAAAAYEwAAgAAAMCYAAQAAACAMQEIAAAAAGMCEAAAAADGBCAAAAAAjAlAAAAAABgTgAAAAAAwJgABAAAAYEwAAgAAAMCYAAQAAACAMQEIAAAAAGMCEAAAAADGBCAAAAAAjAlAAAAAABgLWtWHGYuOC2EAAAAASUVORK5CYII=;" vertex="1" parent="1"><mxGeometry x="490" y="140" width="241" height="120.5" as="geometry"/></mxCell><mxCell id="9" value="API Request" style="text;html=1;strokeColor=none;fillColor=none;align=center;verticalAlign=middle;whiteSpace=wrap;rounded=0;" vertex="1" parent="1"><mxGeometry x="250" y="60" width="290" height="20" as="geometry"/></mxCell><mxCell id="10" value="API Response" style="text;html=1;strokeColor=none;fillColor=none;align=center;verticalAlign=middle;whiteSpace=wrap;rounded=0;" vertex="1" parent="1"><mxGeometry x="250" y="290" width="290" height="20" as="geometry"/></mxCell><mxCell id="11" value="front end" style="text;html=1;strokeColor=none;fillColor=none;align=center;verticalAlign=middle;whiteSpace=wrap;rounded=0;" vertex="1" parent="1"><mxGeometry x="20" y="100" width="160" height="20" as="geometry"/></mxCell><mxCell id="12" value="backend" style="text;html=1;strokeColor=none;fillColor=none;align=center;verticalAlign=middle;whiteSpace=wrap;rounded=0;" vertex="1" parent="1"><mxGeometry x="620" y="100" width="200" height="20" as="geometry"/></mxCell></root></mxGraphModel></diagram></mxfile>